<svg width="34" height="33" viewBox="0 0 34 33" fill="none" xmlns="http://www.w3.org/2000/svg">
<path fill-rule="evenodd" clip-rule="evenodd" d="M33.0151 16.2978C33.0151 12.1214 31.3007 8.11613 28.2492 5.16301C25.1976 2.20989 21.0588 0.550842 16.7433 0.550842C12.4277 0.550842 8.2889 2.20989 5.23734 5.16301C2.18578 8.11613 0.471436 12.1214 0.471436 16.2978C0.471436 20.4741 2.18578 24.4794 5.23734 27.4325C8.2889 30.3856 12.4277 32.0447 16.7433 32.0447C21.0588 32.0447 25.1976 30.3856 28.2492 27.4325C31.3007 24.4794 33.0151 20.4741 33.0151 16.2978ZM24.7397 11.6907C24.7397 12.9617 23.6774 13.992 22.364 13.9942H22.3594C21.7406 13.9764 21.1533 13.7262 20.7218 13.2967C20.2903 12.8671 20.0484 12.2919 20.0475 11.6928C20.0466 11.0937 20.2867 10.5178 20.7169 10.087C21.1471 9.65627 21.7337 9.40443 22.3524 9.38486H22.3594C23.6727 9.38486 24.7397 10.4174 24.7397 11.6907ZM13.5098 11.6907C13.5098 12.9617 12.4475 13.992 11.1341 13.9942H11.1272C10.5084 13.9761 9.92121 13.7256 9.48993 13.2959C9.05866 12.8661 8.81715 12.2908 8.81655 11.6917C8.81594 11.0926 9.05629 10.5169 9.4867 10.0863C9.91711 9.65571 10.5038 9.40415 11.1225 9.38486H11.1272C12.4428 9.38486 13.5098 10.4174 13.5098 11.6907ZM10.209 18.0074C10.1656 17.8228 10.0841 17.6486 9.96942 17.4952C9.85476 17.3419 9.70927 17.2125 9.54168 17.1148C9.37408 17.0172 9.18784 16.9533 8.99411 16.927C8.80039 16.9007 8.60317 16.9125 8.41429 16.9618C8.2254 17.0111 8.04874 17.0967 7.8949 17.2137C7.74106 17.3306 7.61321 17.4764 7.51901 17.6423C7.42481 17.8082 7.36621 17.9909 7.34671 18.1792C7.32722 18.3676 7.34723 18.5578 7.40555 18.7385C7.96014 20.7257 9.17578 22.4807 10.8645 23.7321C12.5532 24.9835 14.6209 25.6617 16.7479 25.6617C18.8749 25.6617 20.9426 24.9835 22.6313 23.7321C24.32 22.4807 25.5357 20.7257 26.0903 18.7385C26.1407 18.56 26.1543 18.3735 26.1301 18.1899C26.106 18.0063 26.0446 17.8291 25.9495 17.6684C25.8544 17.5078 25.7274 17.367 25.5759 17.2539C25.4244 17.1409 25.2514 17.058 25.0667 17.0098C24.882 16.9617 24.6892 16.9493 24.4996 16.9735C24.3099 16.9976 24.1271 17.0577 23.9615 17.1504C23.7959 17.2431 23.6509 17.3665 23.5347 17.5136C23.4185 17.6607 23.3335 17.8285 23.2845 18.0074C22.8961 19.3975 22.0454 20.625 20.8639 21.5002C19.6824 22.3755 18.2359 22.8498 16.7479 22.8498C15.26 22.8498 13.8134 22.3755 12.6319 21.5002C11.4504 20.625 10.5974 19.3975 10.209 18.0074Z" fill="white"/>
</svg>
