<svg width="32" height="31" viewBox="0 0 32 31" fill="none" xmlns="http://www.w3.org/2000/svg">
<path fill-rule="evenodd" clip-rule="evenodd" d="M21.7549 6.68703C21.7549 6.26616 21.8585 5.84963 22.0587 5.47214L24.4884 0.894627C23.8768 0.430637 23.1152 0.177998 22.3302 0.178712H8.81227V30.5509H22.3302C22.4774 30.5509 22.6201 30.5422 22.7627 30.5248C22.1052 29.5622 21.7554 28.4416 21.7549 27.2967V6.68703ZM3.92281 0.178712H5.93612V30.5509H3.92281C3.00745 30.5509 2.12958 30.208 1.48232 29.5977C0.835062 28.9875 0.471436 28.1598 0.471436 27.2967L0.471436 3.43287C0.471436 2.56981 0.835062 1.74211 1.48232 1.13183C2.12958 0.52156 3.00745 0.178712 3.92281 0.178712ZM13.1265 7.50057C12.7451 7.50057 12.3793 7.64342 12.1096 7.8977C11.8399 8.15198 11.6884 8.49686 11.6884 8.85647C11.6884 9.21607 11.8399 9.56095 12.1096 9.81523C12.3793 10.0695 12.7451 10.2124 13.1265 10.2124H17.7283C18.1097 10.2124 18.4755 10.0695 18.7452 9.81523C19.0149 9.56095 19.1664 9.21607 19.1664 8.85647C19.1664 8.49686 19.0149 8.15198 18.7452 7.8977C18.4755 7.64342 18.1097 7.50057 17.7283 7.50057H13.1265ZM24.6311 6.68703L27.5671 1.14845C27.6147 1.05791 27.6881 0.981709 27.7792 0.928434C27.8703 0.875158 27.9753 0.846929 28.0825 0.846929C28.1896 0.846929 28.2947 0.875158 28.3857 0.928434C28.4768 0.981709 28.5503 1.05791 28.5979 1.14845L31.5338 6.68703V19.4325H24.6311V6.68703ZM24.6311 22.1443H31.5338V27.2967C31.5338 28.1598 31.1702 28.9875 30.523 29.5977C29.8757 30.208 28.9978 30.5509 28.0825 30.5509C27.1671 30.5509 26.2892 30.208 25.642 29.5977C24.9947 28.9875 24.6311 28.1598 24.6311 27.2967V22.1443Z" fill="white"/>
</svg>
