<svg width="28" height="28" viewBox="0 0 28 28" fill="none" xmlns="http://www.w3.org/2000/svg">
<path fill-rule="evenodd" clip-rule="evenodd" d="M0.142334 3.54183C0.142334 2.77391 0.447392 2.03743 0.990398 1.49443C1.5334 0.95142 2.26988 0.646362 3.0378 0.646362L24.2713 0.646362C25.0392 0.646362 25.7757 0.95142 26.3187 1.49443C26.8617 2.03743 27.1667 2.77391 27.1667 3.54183V24.7753C27.1667 25.5432 26.8617 26.2797 26.3187 26.8227C25.7757 27.3657 25.0392 27.6708 24.2713 27.6708H3.0378C2.26988 27.6708 1.5334 27.3657 0.990398 26.8227C0.447392 26.2797 0.142334 25.5432 0.142334 24.7753L0.142334 3.54183ZM14.3552 9.3154C14.6155 9.5015 14.7913 9.78322 14.8441 10.0988C14.8969 10.4143 14.8225 10.7379 14.6371 10.9986L9.81127 17.7547C9.70947 17.8972 9.57789 18.0158 9.42565 18.1023C9.27341 18.1888 9.10417 18.2411 8.92968 18.2556C8.7552 18.2701 8.57964 18.2464 8.41521 18.1863C8.25078 18.1261 8.10141 18.0309 7.97748 17.9072L5.08201 15.0118C4.96449 14.9011 4.87037 14.768 4.80524 14.6203C4.7401 14.4726 4.70527 14.3133 4.7028 14.1519C4.70033 13.9905 4.73028 13.8302 4.79087 13.6806C4.85146 13.531 4.94146 13.3951 5.05553 13.2808C5.16961 13.1666 5.30545 13.0765 5.455 13.0157C5.60456 12.955 5.76478 12.9248 5.92619 12.9271C6.08759 12.9294 6.2469 12.9641 6.39467 13.029C6.54244 13.094 6.67567 13.188 6.78647 13.3054L8.67432 15.1932L12.672 9.5953C12.8587 9.33579 13.1405 9.1607 13.4559 9.10826C13.7713 9.05582 14.0946 9.13028 14.3552 9.3154ZM15.5848 13.9173C15.2649 13.9173 14.958 14.0444 14.7318 14.2706C14.5055 14.4969 14.3784 14.8037 14.3784 15.1237C14.3784 15.4437 14.5055 15.7505 14.7318 15.9768C14.958 16.2031 15.2649 16.3302 15.5848 16.3302H21.3758C21.6958 16.3302 22.0026 16.2031 22.2289 15.9768C22.4551 15.7505 22.5822 15.4437 22.5822 15.1237C22.5822 14.8037 22.4551 14.4969 22.2289 14.2706C22.0026 14.0444 21.6958 13.9173 21.3758 13.9173H15.5848Z" fill="white"/>
</svg>
