<svg width="146" height="145" viewBox="0 0 146 145" fill="none" xmlns="http://www.w3.org/2000/svg">
<g filter="url(#filter0_d_1_12111)">
<path d="M128.386 98.1829L116.864 92.4218L109.531 73.3469C109.444 73.1213 109.312 72.916 109.143 72.7438C108.974 72.5715 108.771 72.436 108.547 72.3457L63.0464 54.1578C62.7283 54.0311 62.3801 54.0002 62.0446 54.0689C61.7091 54.1375 61.4011 54.3027 61.1582 54.5442L55.0898 60.6127C54.8515 60.8557 54.689 61.1627 54.6219 61.4963C54.5549 61.83 54.5862 62.1759 54.7121 62.4921L72.9 107.993C72.9903 108.217 73.1258 108.42 73.2981 108.589C73.4704 108.758 73.6757 108.89 73.9012 108.976L92.9761 116.309L98.7372 127.832C98.8586 128.086 99.0392 128.307 99.2638 128.476C99.4885 128.646 99.7507 128.759 100.028 128.806C100.122 128.815 100.216 128.815 100.309 128.806C100.774 128.804 101.22 128.618 101.548 128.288L128.843 100.993C129.043 100.799 129.195 100.56 129.285 100.296C129.376 100.032 129.401 99.7501 129.361 99.4739C129.314 99.1963 129.2 98.9342 129.031 98.7095C128.861 98.4848 128.64 98.3042 128.386 98.1829ZM58.3919 62.2637L59.3667 61.2977L82.016 83.947C80.5233 86.0621 79.8786 88.6603 80.2094 91.2278C80.5402 93.7954 81.8224 96.1454 83.8025 97.813C85.7825 99.4807 88.3163 100.345 90.9027 100.234C93.4891 100.124 95.9399 99.0466 97.7704 97.2161C99.601 95.3855 100.678 92.9348 100.789 90.3483C100.899 87.7619 100.035 85.2282 98.3674 83.2481C96.6997 81.2681 94.3498 79.9859 91.7822 79.6551C89.2146 79.3243 86.6164 79.9689 84.5013 81.4616L61.852 58.8123L62.8181 57.8375L106.527 75.3228L113.421 93.2561L93.8104 112.867L75.8772 105.973L58.3919 62.2637ZM90.4556 83.0775C92.0342 83.0799 93.5632 83.6295 94.782 84.6326C96.0008 85.6358 96.8341 87.0306 97.14 88.5793C97.4458 90.1279 97.2052 91.7347 96.4592 93.1259C95.7133 94.5171 94.508 95.6067 93.0488 96.2089C91.5896 96.8112 89.9668 96.8889 88.4567 96.4288C86.9467 95.9687 85.6428 94.9993 84.7673 93.6858C83.8918 92.3722 83.4989 90.7957 83.6553 89.2249C83.8118 87.6541 84.508 86.1861 85.6254 85.0711C86.9078 83.7928 88.645 83.0758 90.4556 83.0775ZM100.792 124.082L96.4012 115.299L115.836 95.8644L124.618 100.255L100.792 124.082Z" fill="white"/>
<path d="M50.5406 110.364C50.2047 110.046 49.7601 109.869 49.2979 109.869C48.8358 109.869 48.3911 110.046 48.0552 110.364L45.8246 112.594C39.8718 104.515 36.5879 94.7801 36.4305 84.746C36.273 74.7118 39.25 64.8786 44.9463 56.6166C46.653 57.5557 48.618 57.9165 50.5469 57.6448C52.4758 57.3731 54.2647 56.4837 55.6456 55.1097C57.0265 53.7358 57.9249 51.9513 58.2063 50.0238C58.4876 48.0963 58.1368 46.1295 57.2063 44.4182C65.4682 38.7218 75.3015 35.7449 85.3356 35.9023C95.3697 36.0597 105.105 39.3436 113.184 45.2964L110.918 47.5007C110.592 47.83 110.408 48.2752 110.409 48.739C110.407 48.9702 110.452 49.1993 110.539 49.4133C110.627 49.6273 110.755 49.822 110.918 49.9861L118.664 57.6705C118.993 57.9976 119.438 58.1813 119.902 58.1813C120.366 58.1813 120.812 57.9976 121.141 57.6705L128.843 49.9685C129.006 49.8054 129.135 49.6117 129.224 49.3984C129.312 49.1852 129.358 48.9567 129.358 48.7258C129.358 48.495 129.312 48.2665 129.224 48.0532C129.135 47.84 129.006 47.6463 128.843 47.4832L121.141 39.7812C120.812 39.454 120.366 39.2704 119.902 39.2704C119.438 39.2704 118.993 39.454 118.664 39.7812L115.687 42.7408C108.349 37.2194 99.6746 33.7504 90.5532 32.6901C81.4318 31.6298 72.1925 33.0164 63.7841 36.7074L73.91 26.6079C75.0581 27.1565 76.3635 27.2807 77.5945 26.9584C78.8254 26.6361 79.9025 25.8882 80.6345 24.8474C81.3665 23.8066 81.7062 22.5401 81.5932 21.2727C81.4803 20.0052 80.9221 18.8187 80.0176 17.9237C79.1131 17.0287 77.9208 16.483 76.6522 16.3835C75.3837 16.2839 74.1208 16.6369 73.0878 17.3799C72.0547 18.1228 71.3182 19.2077 71.009 20.442C70.6997 21.6763 70.8376 22.9802 71.3983 24.1225L54.3082 41.239C52.5729 40.075 50.4874 39.5496 48.4078 39.7526C46.3282 39.9555 44.3836 40.8741 42.9061 42.3516C41.4287 43.8291 40.51 45.7737 40.3071 47.8533C40.1041 49.9329 40.6295 52.0184 41.7935 53.7536L24.677 70.8438C23.5303 70.285 22.2226 70.1509 20.9862 70.4652C19.7499 70.7795 18.6651 71.522 17.9245 72.5607C17.1839 73.5994 16.8355 74.8669 16.9413 76.1382C17.047 77.4095 17.6001 78.6021 18.5021 79.5041C19.4041 80.4061 20.5967 80.9591 21.868 81.0649C23.1393 81.1706 24.4068 80.8223 25.4455 80.0817C26.4842 79.3411 27.2266 78.2563 27.541 77.0199C27.8553 75.7836 27.7212 74.4759 27.1624 73.3292L37.2883 63.2296C33.5935 71.6357 32.2026 80.8737 33.2583 89.995C34.3139 99.1164 37.7782 107.792 43.2953 115.132L40.3269 118.11C39.9998 118.439 39.8161 118.884 39.8161 119.348C39.8161 119.812 39.9998 120.257 40.3269 120.586L48.0289 128.288C48.3568 128.618 48.8021 128.804 49.2672 128.806C49.499 128.806 49.7285 128.761 49.9425 128.672C50.1565 128.583 50.3509 128.452 50.5143 128.288L58.225 120.586C58.5522 120.257 58.7358 119.812 58.7358 119.348C58.7358 118.884 58.5522 118.439 58.225 118.11L50.5406 110.364ZM119.92 43.4873L125.137 48.7039L119.92 53.9205L114.703 48.7039L119.92 43.4873ZM74.9112 20.4604C75.1722 20.1972 75.5055 20.0176 75.8687 19.9441C76.232 19.8707 76.6089 19.9069 76.9516 20.048C77.2943 20.1891 77.5873 20.4289 77.7936 20.7368C77.9998 21.0448 78.1099 21.4071 78.1099 21.7777C78.1099 22.1483 77.9998 22.5106 77.7936 22.8185C77.5873 23.1265 77.2943 23.3662 76.9516 23.5073C76.6089 23.6485 76.232 23.6846 75.8687 23.6112C75.5055 23.5378 75.1722 23.3581 74.9112 23.095C74.738 22.9221 74.6007 22.7167 74.507 22.4907C74.4133 22.2647 74.365 22.0224 74.365 21.7777C74.365 21.533 74.4133 21.2907 74.507 21.0647C74.6007 20.8386 74.738 20.6333 74.9112 20.4604ZM45.403 44.8485C45.913 44.336 46.5193 43.9294 47.187 43.6519C47.8546 43.3744 48.5705 43.2315 49.2935 43.2315C50.0166 43.2315 50.7325 43.3744 51.4001 43.6519C52.0678 43.9294 52.674 44.336 53.184 44.8485C53.955 45.6182 54.4803 46.5994 54.6935 47.6678C54.9067 48.7361 54.7982 49.8438 54.3817 50.8504C53.9651 51.8571 53.2594 52.7176 52.3537 53.3231C51.4479 53.9285 50.383 54.2517 49.2935 54.2517C48.2041 54.2517 47.1391 53.9285 46.2334 53.3231C45.3277 52.7176 44.6219 51.8571 44.2054 50.8504C43.7889 49.8438 43.6804 48.7361 43.8935 47.6678C44.1067 46.5994 44.632 45.6182 45.403 44.8485ZM23.6583 76.9913C23.2997 77.2904 22.8423 77.4445 22.3758 77.4234C21.9094 77.4023 21.4677 77.2076 21.1376 76.8774C20.8074 76.5473 20.6126 76.1056 20.5916 75.6391C20.5705 75.1727 20.7246 74.7153 21.0237 74.3567C21.3751 74.0113 21.8482 73.8177 22.341 73.8177C22.8338 73.8177 23.3068 74.0113 23.6583 74.3567C23.8314 74.5296 23.9688 74.7349 24.0625 74.961C24.1562 75.187 24.2044 75.4293 24.2044 75.674C24.2044 75.9187 24.1562 76.161 24.0625 76.387C23.9688 76.6131 23.8314 76.8184 23.6583 76.9913ZM49.2935 124.529L44.0769 119.313L49.2935 114.096L54.5101 119.313L49.2935 124.529Z" fill="white"/>
</g>
<defs>
<filter id="filter0_d_1_12111" x="-5.66129" y="-6.22305" width="157.624" height="157.624" filterUnits="userSpaceOnUse" color-interpolation-filters="sRGB">
<feFlood flood-opacity="0" result="BackgroundImageFix"/>
<feColorMatrix in="SourceAlpha" type="matrix" values="0 0 0 0 0 0 0 0 0 0 0 0 0 0 0 0 0 0 127 0" result="hardAlpha"/>
<feOffset/>
<feGaussianBlur stdDeviation="3.30782"/>
<feComposite in2="hardAlpha" operator="out"/>
<feColorMatrix type="matrix" values="0 0 0 0 0.913725 0 0 0 0 0.823529 0 0 0 0 0.956863 0 0 0 1 0"/>
<feBlend mode="normal" in2="BackgroundImageFix" result="effect1_dropShadow_1_12111"/>
<feBlend mode="normal" in="SourceGraphic" in2="effect1_dropShadow_1_12111" result="shape"/>
</filter>
</defs>
</svg>
