<svg width="114" height="113" viewBox="0 0 114 113" fill="none" xmlns="http://www.w3.org/2000/svg">
<path d="M112.386 82.1829L100.864 76.4218L93.5306 57.3469C93.4442 57.1213 93.3123 56.916 93.1431 56.7438C92.9739 56.5715 92.7709 56.436 92.547 56.3457L47.0464 38.1578C46.7283 38.0311 46.3801 38.0002 46.0446 38.0689C45.7091 38.1375 45.4011 38.3027 45.1582 38.5442L39.0898 44.6127C38.8515 44.8557 38.689 45.1627 38.6219 45.4963C38.5549 45.83 38.5862 46.1759 38.7121 46.4921L56.9 91.9926C56.9903 92.2166 57.1258 92.4195 57.2981 92.5887C57.4704 92.758 57.6757 92.8899 57.9012 92.9762L76.9761 100.309L82.7372 111.832C82.8586 112.086 83.0392 112.307 83.2638 112.476C83.4885 112.646 83.7507 112.759 84.0282 112.806C84.1217 112.815 84.2158 112.815 84.3093 112.806C84.7743 112.804 85.2197 112.618 85.5476 112.288L112.843 84.9932C113.043 84.7994 113.195 84.5604 113.285 84.2962C113.376 84.032 113.401 83.7501 113.361 83.4739C113.314 83.1963 113.2 82.9342 113.031 82.7095C112.861 82.4848 112.64 82.3042 112.386 82.1829ZM42.3919 46.2637L43.3667 45.2977L66.016 67.947C64.5233 70.0621 63.8786 72.6603 64.2094 75.2278C64.5402 77.7954 65.8224 80.1454 67.8025 81.813C69.7825 83.4807 72.3163 84.3447 74.9027 84.2342C77.4891 84.1237 79.9399 83.0466 81.7704 81.2161C83.601 79.3855 84.678 76.9348 84.7885 74.3483C84.8991 71.7619 84.0351 69.2282 82.3674 67.2481C80.6997 65.2681 78.3498 63.9859 75.7822 63.6551C73.2146 63.3243 70.6164 63.9689 68.5013 65.4616L45.852 42.8123L46.8181 41.8375L90.5271 59.3228L97.4211 77.2561L77.8104 96.8667L59.8772 89.9727L42.3919 46.2637ZM74.4556 67.0775C76.0342 67.0799 77.5632 67.6295 78.782 68.6326C80.0008 69.6358 80.8341 71.0306 81.14 72.5793C81.4458 74.1279 81.2052 75.7347 80.4592 77.1259C79.7133 78.5171 78.508 79.6067 77.0488 80.2089C75.5896 80.8112 73.9668 80.8889 72.4567 80.4288C70.9467 79.9687 69.6428 78.9993 68.7673 77.6858C67.8918 76.3722 67.4989 74.7957 67.6553 73.2249C67.8118 71.6541 68.508 70.1861 69.6254 69.0711C70.9078 67.7928 72.645 67.0758 74.4556 67.0775ZM84.7923 108.082L80.4012 99.2994L99.8362 79.8644L108.618 84.2555L84.7923 108.082Z" fill="white"/>
<path d="M34.5406 94.3637C34.2047 94.0462 33.7601 93.8693 33.2979 93.8693C32.8358 93.8693 32.3911 94.0462 32.0552 94.3637L29.8246 96.5943C23.8718 88.5151 20.5879 78.7801 20.4305 68.746C20.273 58.7118 23.25 48.8786 28.9463 40.6166C30.653 41.5557 32.618 41.9165 34.5469 41.6448C36.4758 41.3731 38.2647 40.4837 39.6456 39.1097C41.0265 37.7358 41.9249 35.9513 42.2063 34.0238C42.4876 32.0963 42.1368 30.1295 41.2063 28.4182C49.4682 22.7218 59.3015 19.7449 69.3356 19.9023C79.3697 20.0597 89.1048 23.3436 97.184 29.2964L94.9182 31.5007C94.5915 31.83 94.4084 32.2752 94.4088 32.739C94.4075 32.9702 94.4518 33.1993 94.5392 33.4133C94.6266 33.6273 94.7554 33.822 94.9182 33.9861L102.664 41.6705C102.993 41.9976 103.438 42.1813 103.902 42.1813C104.366 42.1813 104.812 41.9976 105.141 41.6705L112.843 33.9685C113.006 33.8054 113.135 33.6117 113.224 33.3984C113.312 33.1852 113.358 32.9567 113.358 32.7258C113.358 32.495 113.312 32.2665 113.224 32.0532C113.135 31.84 113.006 31.6463 112.843 31.4832L105.141 23.7812C104.812 23.454 104.366 23.2704 103.902 23.2704C103.438 23.2704 102.993 23.454 102.664 23.7812L99.6869 26.7408C92.3494 21.2194 83.6746 17.7504 74.5532 16.6901C65.4318 15.6298 56.1925 17.0164 47.7841 20.7074L57.91 10.6079C59.0581 11.1565 60.3635 11.2807 61.5945 10.9584C62.8254 10.6361 63.9025 9.88823 64.6345 8.8474C65.3665 7.80658 65.7062 6.5401 65.5932 5.27265C65.4803 4.00521 64.9221 2.81873 64.0176 1.92372C63.1131 1.02871 61.9208 0.483014 60.6522 0.383454C59.3837 0.283894 58.1208 0.636902 57.0878 1.37985C56.0547 2.1228 55.3182 3.20766 55.009 4.44197C54.6997 5.67628 54.8376 6.98024 55.3983 8.12253L38.3082 25.239C36.5729 24.075 34.4874 23.5496 32.4078 23.7526C30.3282 23.9555 28.3836 24.8741 26.9061 26.3516C25.4287 27.8291 24.51 29.7737 24.3071 31.8533C24.1041 33.9329 24.6295 36.0184 25.7935 37.7536L8.67704 54.8438C7.53029 54.285 6.22256 54.1509 4.98624 54.4652C3.74993 54.7795 2.66509 55.522 1.9245 56.5607C1.18392 57.5994 0.835547 58.8669 0.941298 60.1382C1.04705 61.4095 1.60007 62.6021 2.5021 63.5041C3.40412 64.4061 4.59672 64.9591 5.86799 65.0649C7.13925 65.1706 8.40684 64.8223 9.4455 64.0817C10.4842 63.3411 11.2266 62.2563 11.541 61.0199C11.8553 59.7836 11.7212 58.4759 11.1624 57.3292L21.2883 47.2296C17.5935 55.6357 16.2026 64.8737 17.2583 73.995C18.3139 83.1164 21.7782 91.7924 27.2953 99.1324L24.3269 102.11C23.9998 102.439 23.8161 102.884 23.8161 103.348C23.8161 103.812 23.9998 104.257 24.3269 104.586L32.0289 112.288C32.3568 112.618 32.8021 112.804 33.2672 112.806C33.499 112.806 33.7285 112.761 33.9425 112.672C34.1565 112.583 34.3509 112.452 34.5143 112.288L42.225 104.586C42.5522 104.257 42.7358 103.812 42.7358 103.348C42.7358 102.884 42.5522 102.439 42.225 102.11L34.5406 94.3637ZM103.92 27.4873L109.137 32.7039L103.92 37.9205L98.7033 32.7039L103.92 27.4873ZM58.9112 4.46035C59.1722 4.19722 59.5055 4.01755 59.8687 3.94414C60.232 3.87073 60.6089 3.90688 60.9516 4.04801C61.2943 4.18915 61.5873 4.4289 61.7936 4.73685C61.9998 5.0448 62.1099 5.40706 62.1099 5.77768C62.1099 6.1483 61.9998 6.51057 61.7936 6.81852C61.5873 7.12646 61.2943 7.36622 60.9516 7.50735C60.6089 7.64848 60.232 7.68464 59.8687 7.61122C59.5055 7.53781 59.1722 7.35814 58.9112 7.09501C58.738 6.92209 58.6007 6.71674 58.507 6.49071C58.4133 6.26467 58.365 6.02238 58.365 5.77768C58.365 5.53299 58.4133 5.29069 58.507 5.06466C58.6007 4.83862 58.738 4.63327 58.9112 4.46035ZM29.403 28.8485C29.913 28.336 30.5193 27.9294 31.187 27.6519C31.8546 27.3744 32.5705 27.2315 33.2935 27.2315C34.0166 27.2315 34.7325 27.3744 35.4001 27.6519C36.0678 27.9294 36.674 28.336 37.184 28.8485C37.955 29.6182 38.4803 30.5994 38.6935 31.6678C38.9067 32.7361 38.7982 33.8438 38.3817 34.8504C37.9651 35.8571 37.2594 36.7176 36.3537 37.3231C35.4479 37.9285 34.383 38.2517 33.2935 38.2517C32.2041 38.2517 31.1391 37.9285 30.2334 37.3231C29.3277 36.7176 28.6219 35.8571 28.2054 34.8504C27.7889 33.8438 27.6804 32.7361 27.8935 31.6678C28.1067 30.5994 28.632 29.6182 29.403 28.8485ZM7.65831 60.9913C7.29972 61.2904 6.84227 61.4445 6.37583 61.4234C5.9094 61.4023 5.46771 61.2076 5.13755 60.8774C4.80739 60.5473 4.61264 60.1056 4.59157 59.6391C4.57049 59.1727 4.72462 58.7153 5.02365 58.3567C5.37512 58.0113 5.84819 57.8177 6.34098 57.8177C6.83377 57.8177 7.30684 58.0113 7.65831 58.3567C7.83144 58.5296 7.96879 58.7349 8.0625 58.961C8.15621 59.187 8.20444 59.4293 8.20444 59.674C8.20444 59.9187 8.15621 60.161 8.0625 60.387C7.96879 60.6131 7.83144 60.8184 7.65831 60.9913ZM33.2935 108.529L28.0769 103.313L33.2935 98.0961L38.5101 103.313L33.2935 108.529Z" fill="white"/>
</svg>
