<svg width="145" height="145" viewBox="0 0 145 145" fill="none" xmlns="http://www.w3.org/2000/svg">
<path d="M89.6094 92.4717L73.3949 83.1095C73.1304 82.9569 72.8304 82.8765 72.525 82.8765C72.2196 82.8765 71.9196 82.9569 71.6552 83.1095L55.4407 92.4717C55.1762 92.6241 54.9566 92.8435 54.8039 93.1078C54.6512 93.3721 54.5708 93.672 54.5708 93.9772V112.653C54.5708 112.958 54.6512 113.259 54.8039 113.523C54.9566 113.788 55.1762 114.008 55.4407 114.161L71.6552 123.52C71.9194 123.674 72.2195 123.755 72.525 123.755C72.8306 123.755 73.1307 123.674 73.3949 123.52L89.6094 114.161C89.8739 114.008 90.0935 113.788 90.2462 113.523C90.3988 113.259 90.4792 112.958 90.4793 112.653V93.9772C90.4793 93.672 90.3989 93.3721 90.2462 93.1078C90.0935 92.8435 89.8738 92.6241 89.6094 92.4717V92.4717ZM72.525 86.6262L85.26 93.9772L72.525 101.331L59.7901 93.9772L72.525 86.6262ZM58.0503 96.9904L70.7853 104.344V119.002L58.0503 111.648V96.9904ZM86.9998 111.648L74.2648 119.002V104.344L86.9998 96.9904V111.648Z" fill="white"/>
<path d="M48.0734 56.9323C48.378 56.9336 48.6775 56.8535 48.9409 56.7004L56.3291 52.4368L71.6551 61.2933C71.9194 61.4467 72.2195 61.5275 72.525 61.5275C72.8305 61.5275 73.1306 61.4467 73.3949 61.2933L88.7209 52.4461L96.1091 56.7096C96.3724 56.8628 96.6719 56.9429 96.9766 56.9416C97.3601 56.9426 97.7332 56.8167 98.0379 56.5837C98.3425 56.3507 98.5616 56.0235 98.6611 55.6531C98.7606 55.2827 98.7349 54.8898 98.588 54.5355C98.4411 54.1812 98.1812 53.8854 97.8488 53.6941L90.4792 49.4329V31.7384C90.4792 31.4329 90.3988 31.1327 90.2461 30.8681C90.0934 30.6034 89.8738 30.3836 89.6093 30.2306L73.3949 20.8708C73.1304 20.7181 72.8304 20.6377 72.525 20.6377C72.2196 20.6377 71.9196 20.7181 71.6551 20.8708L55.4406 30.2306C55.1761 30.3836 54.9565 30.6034 54.8039 30.8681C54.6512 31.1327 54.5708 31.4329 54.5708 31.7384V49.4329L47.2012 53.6871C46.8688 53.8785 46.6089 54.1743 46.462 54.5286C46.3151 54.8829 46.2894 55.2758 46.3889 55.6462C46.4884 56.0166 46.7075 56.3437 47.0121 56.5768C47.3167 56.8098 47.6898 56.9356 48.0734 56.9347V56.9323ZM81.9405 44.4966C81.7425 44.3824 81.5239 44.3082 81.2973 44.2785C81.0707 44.2487 80.8404 44.2639 80.6196 44.3231C80.3988 44.3824 80.1918 44.4845 80.0105 44.6237C79.8292 44.7629 79.6771 44.9365 79.5629 45.1345C79.4486 45.3325 79.3745 45.5511 79.3447 45.7777C79.315 46.0044 79.3301 46.2347 79.3894 46.4555C79.4486 46.6762 79.5508 46.8832 79.69 47.0645C79.8292 47.2458 80.0028 47.3979 80.2008 47.5122L85.2484 50.428L74.2647 56.763V42.1027L83.2836 36.8974L86.9951 34.7494V47.4217L81.9405 44.4966ZM72.525 24.3851L85.26 31.7384L72.525 39.0894L59.79 31.7384L72.525 24.3851ZM58.0503 34.7494L61.7617 36.8974L70.7806 42.1027V56.763L59.8039 50.4257L64.8515 47.5098C65.0495 47.3956 65.2231 47.2435 65.3623 47.0622C65.5015 46.8809 65.6037 46.6739 65.6629 46.4531C65.7221 46.2323 65.7373 46.0021 65.7075 45.7754C65.6778 45.5488 65.6037 45.3302 65.4894 45.1322C65.3752 44.9342 65.2231 44.7606 65.0418 44.6214C64.8605 44.4822 64.6535 44.38 64.4327 44.3208C64.2119 44.2616 63.9816 44.2464 63.755 44.2762C63.5283 44.3059 63.3098 44.38 63.1118 44.4943L58.0503 47.4217V34.7494Z" fill="white"/>
<path d="M57.635 87.8559C57.8984 88.0091 58.1979 88.0892 58.5026 88.0879C58.8861 88.0889 59.2592 87.963 59.5638 87.73C59.8685 87.497 60.0876 87.1698 60.1871 86.7994C60.2865 86.429 60.2608 86.0361 60.1139 85.6818C59.967 85.3275 59.7072 85.0317 59.3748 84.8404L52.7614 81.0268V63.3811C52.7614 63.0756 52.681 62.7754 52.5283 62.5108C52.3756 62.2461 52.156 62.0263 51.8915 61.8733L35.677 52.5112C35.4126 52.3585 35.1126 52.2781 34.8072 52.2781C34.5018 52.2781 34.2018 52.3585 33.9373 52.5112L17.7228 61.8617C17.4566 62.0157 17.2359 62.2374 17.0831 62.5042C16.9304 62.7711 16.8509 63.0736 16.8529 63.3811V82.0568C16.8529 82.362 16.9333 82.6619 17.086 82.9261C17.2387 83.1904 17.4584 83.4098 17.7228 83.5622L33.9373 92.9244C34.2015 93.0778 34.5016 93.1586 34.8072 93.1586C35.1127 93.1586 35.4128 93.0778 35.677 92.9244L51.0333 84.0586L57.635 87.8559ZM34.8072 56.0162L47.5422 63.3695L34.8072 70.7206L22.0722 63.3811L34.8072 56.0162ZM20.3324 66.3828L24.0439 68.5285L33.0674 73.7361V88.3918L20.3324 81.0384V66.3828ZM36.5469 88.3918V73.7361L45.5658 68.5285L49.2773 66.3828V79.018L43.3412 75.5919C42.9413 75.3612 42.4662 75.2988 42.0203 75.4184C41.5744 75.538 41.1943 75.8299 40.9636 76.2298C40.7329 76.6297 40.6705 77.1048 40.7901 77.5507C40.9097 77.9966 41.2016 78.3767 41.6015 78.6074L47.5491 82.0405L36.5469 88.3918Z" fill="white"/>
<path d="M127.327 61.8616L111.113 52.4994C110.848 52.3467 110.548 52.2664 110.243 52.2664C109.937 52.2664 109.637 52.3467 109.373 52.4994L93.17 61.8616C92.9055 62.0146 92.6859 62.2344 92.5333 62.4991C92.3806 62.7637 92.3002 63.0639 92.3001 63.3694V81.0267L85.6868 84.8449C85.3544 85.0362 85.0945 85.3321 84.9476 85.6863C84.8007 86.0406 84.775 86.4335 84.8745 86.8039C84.974 87.1744 85.1931 87.5015 85.4977 87.7345C85.8023 87.9675 86.1754 88.0934 86.559 88.0924C86.8636 88.0937 87.1631 88.0136 87.4265 87.8605L94.0283 84.0516L109.384 92.9173C109.649 93.0707 109.949 93.1515 110.254 93.1515C110.56 93.1515 110.86 93.0707 111.124 92.9173L127.339 83.5552C127.602 83.4009 127.819 83.1801 127.97 82.9151C128.121 82.65 128.199 82.3499 128.197 82.0451V63.381C128.199 63.0735 128.12 62.771 127.967 62.5041C127.814 62.2372 127.593 62.0156 127.327 61.8616V61.8616ZM110.243 56.0161L122.978 63.3694L110.243 70.7204L97.5078 63.381L110.243 56.0161ZM104.072 76.2273C103.958 76.0295 103.806 75.8561 103.625 75.7171C103.444 75.5781 103.237 75.4761 103.017 75.4171C102.796 75.358 102.566 75.3431 102.339 75.3731C102.113 75.403 101.895 75.4773 101.697 75.5917L95.768 79.0179V66.3827L99.4795 68.5283L108.498 73.736V88.3917L97.4916 82.0381L103.439 78.605C103.637 78.4905 103.81 78.3381 103.949 78.1566C104.088 77.9752 104.189 77.7681 104.248 77.5473C104.307 77.3265 104.322 77.0963 104.292 76.8698C104.262 76.6433 104.187 76.425 104.072 76.2273V76.2273ZM111.976 88.3917V73.736L121.006 68.5283L124.718 66.3827V81.0383L111.976 88.3917Z" fill="white"/>
</svg>
