<svg width="113" height="104" viewBox="0 0 113 104" fill="none" xmlns="http://www.w3.org/2000/svg">
<path d="M73.6094 72.4717L57.3949 63.1095C57.1304 62.9569 56.8304 62.8765 56.525 62.8765C56.2196 62.8765 55.9196 62.9569 55.6552 63.1095L39.4407 72.4717C39.1762 72.6241 38.9566 72.8435 38.8039 73.1078C38.6512 73.3721 38.5708 73.672 38.5708 73.9772V92.6528C38.5708 92.9584 38.6512 93.2585 38.8039 93.5232C38.9566 93.7878 39.1762 94.0076 39.4407 94.1606L55.6552 103.52C55.9194 103.674 56.2195 103.755 56.525 103.755C56.8306 103.755 57.1307 103.674 57.3949 103.52L73.6094 94.1606C73.8739 94.0076 74.0935 93.7878 74.2462 93.5232C74.3988 93.2585 74.4792 92.9584 74.4793 92.6528V73.9772C74.4793 73.672 74.3989 73.3721 74.2462 73.1078C74.0935 72.8435 73.8738 72.6241 73.6094 72.4717ZM56.525 66.6262L69.26 73.9772L56.525 81.3305L43.7901 73.9772L56.525 66.6262ZM42.0503 76.9904L54.7853 84.3438V99.0018L42.0503 91.6484V76.9904ZM70.9998 91.6484L58.2648 99.0018V84.3438L70.9998 76.9904V91.6484Z" fill="white"/>
<path d="M32.0734 36.9323C32.378 36.9336 32.6775 36.8535 32.9409 36.7004L40.3291 32.4368L55.6551 41.2933C55.9194 41.4467 56.2195 41.5275 56.525 41.5275C56.8305 41.5275 57.1306 41.4467 57.3949 41.2933L72.7209 32.4461L80.1091 36.7096C80.3724 36.8628 80.6719 36.9429 80.9766 36.9416C81.3601 36.9426 81.7332 36.8167 82.0379 36.5837C82.3425 36.3507 82.5616 36.0235 82.6611 35.6531C82.7606 35.2827 82.7349 34.8898 82.588 34.5355C82.4411 34.1812 82.1812 33.8854 81.8488 33.6941L74.4792 29.4328V11.7384C74.4792 11.4329 74.3988 11.1327 74.2461 10.8681C74.0934 10.6034 73.8738 10.3836 73.6093 10.2306L57.3949 0.870778C57.1304 0.718083 56.8304 0.637695 56.525 0.637695C56.2196 0.637695 55.9196 0.718083 55.6551 0.870778L39.4406 10.2306C39.1761 10.3836 38.9565 10.6034 38.8039 10.8681C38.6512 11.1327 38.5708 11.4329 38.5708 11.7384V29.4328L31.2012 33.6871C30.8688 33.8785 30.6089 34.1743 30.462 34.5286C30.3151 34.8829 30.2894 35.2758 30.3889 35.6462C30.4884 36.0166 30.7075 36.3437 31.0121 36.5768C31.3167 36.8098 31.6898 36.9356 32.0734 36.9347V36.9323ZM65.9405 24.4966C65.7425 24.3824 65.5239 24.3082 65.2973 24.2785C65.0707 24.2487 64.8404 24.2639 64.6196 24.3231C64.3988 24.3824 64.1918 24.4845 64.0105 24.6237C63.8292 24.7629 63.6771 24.9365 63.5629 25.1345C63.4486 25.3325 63.3745 25.5511 63.3447 25.7777C63.315 26.0044 63.3301 26.2347 63.3894 26.4555C63.4486 26.6762 63.5508 26.8832 63.69 27.0645C63.8292 27.2458 64.0028 27.3979 64.2008 27.5122L69.2484 30.428L58.2647 36.763V22.1027L67.2836 16.8974L70.9951 14.7494V27.4217L65.9405 24.4966ZM56.525 4.38507L69.26 11.7384L56.525 19.0895L43.79 11.7384L56.525 4.38507ZM42.0503 14.7494L45.7617 16.8974L54.7806 22.1027V36.763L43.8039 30.4257L48.8515 27.5098C49.0495 27.3956 49.2231 27.2435 49.3623 27.0622C49.5015 26.8809 49.6037 26.6739 49.6629 26.4531C49.7221 26.2323 49.7373 26.0021 49.7075 25.7754C49.6778 25.5488 49.6037 25.3302 49.4894 25.1322C49.3752 24.9342 49.2231 24.7606 49.0418 24.6214C48.8605 24.4822 48.6535 24.38 48.4327 24.3208C48.2119 24.2616 47.9816 24.2464 47.755 24.2762C47.5283 24.3059 47.3098 24.38 47.1118 24.4943L42.0503 27.4217V14.7494Z" fill="white"/>
<path d="M41.635 67.8559C41.8984 68.0091 42.1979 68.0892 42.5026 68.0879C42.8861 68.0889 43.2592 67.963 43.5638 67.73C43.8685 67.497 44.0876 67.1698 44.1871 66.7994C44.2865 66.429 44.2608 66.0361 44.1139 65.6818C43.967 65.3275 43.7072 65.0317 43.3748 64.8404L36.7614 61.0268V43.3811C36.7614 43.0756 36.681 42.7754 36.5283 42.5108C36.3756 42.2461 36.156 42.0263 35.8915 41.8733L19.677 32.5112C19.4126 32.3585 19.1126 32.2781 18.8072 32.2781C18.5018 32.2781 18.2018 32.3585 17.9373 32.5112L1.72282 41.8617C1.45663 42.0157 1.23593 42.2374 1.08315 42.5042C0.930362 42.7711 0.850938 43.0736 0.852942 43.3811V62.0568C0.852918 62.362 0.933307 62.6619 1.08601 62.9261C1.23872 63.1904 1.45836 63.4098 1.72282 63.5622L17.9373 72.9244C18.2015 73.0778 18.5016 73.1586 18.8072 73.1586C19.1127 73.1586 19.4128 73.0778 19.677 72.9244L35.0333 64.0586L41.635 67.8559ZM18.8072 36.0162L31.5422 43.3695L18.8072 50.7206L6.0722 43.3811L18.8072 36.0162ZM4.33244 46.3828L8.04391 48.5285L17.0674 53.7361V68.3918L4.33244 61.0384V46.3828ZM20.5469 68.3918V53.7361L29.5658 48.5285L33.2773 46.3828V59.018L27.3412 55.5919C26.9413 55.3612 26.4662 55.2988 26.0203 55.4184C25.5744 55.538 25.1943 55.8299 24.9636 56.2298C24.7329 56.6297 24.6705 57.1048 24.7901 57.5507C24.9097 57.9966 25.2016 58.3767 25.6015 58.6074L31.5491 62.0405L20.5469 68.3918Z" fill="white"/>
<path d="M111.327 41.8616L95.1126 32.4994C94.8482 32.3467 94.5482 32.2664 94.2428 32.2664C93.9374 32.2664 93.6374 32.3467 93.3729 32.4994L77.17 41.8616C76.9055 42.0146 76.6859 42.2344 76.5333 42.4991C76.3806 42.7637 76.3002 43.0639 76.3001 43.3694V61.0267L69.6868 64.8449C69.3544 65.0362 69.0945 65.3321 68.9476 65.6863C68.8007 66.0406 68.775 66.4335 68.8745 66.8039C68.974 67.1744 69.1931 67.5015 69.4977 67.7345C69.8023 67.9675 70.1754 68.0934 70.559 68.0924C70.8636 68.0937 71.1631 68.0136 71.4265 67.8605L78.0283 64.0516L93.3845 72.9173C93.6487 73.0707 93.9488 73.1515 94.2544 73.1515C94.5599 73.1515 94.86 73.0707 95.1242 72.9173L111.339 63.5552C111.602 63.4009 111.819 63.1801 111.97 62.9151C112.121 62.65 112.199 62.3499 112.197 62.0451V43.381C112.199 43.0735 112.12 42.771 111.967 42.5041C111.814 42.2372 111.593 42.0156 111.327 41.8616ZM94.2428 36.0161L106.978 43.3694L94.2428 50.7204L81.5078 43.381L94.2428 36.0161ZM88.0725 56.2273C87.9583 56.0295 87.8064 55.8561 87.6252 55.7171C87.444 55.5781 87.2372 55.4761 87.0166 55.4171C86.7959 55.358 86.5658 55.3431 86.3394 55.3731C86.113 55.403 85.8948 55.4773 85.6971 55.5917L79.768 59.0179V46.3827L83.4795 48.5283L92.4984 53.736V68.3917L81.4916 62.0381L87.4392 58.605C87.6369 58.4905 87.8101 58.3381 87.9489 58.1566C88.0878 57.9752 88.1895 57.7681 88.2483 57.5473C88.3071 57.3265 88.3218 57.0963 88.2917 56.8698C88.2615 56.6433 88.187 56.425 88.0725 56.2273ZM95.9756 68.3917V53.736L105.006 48.5283L108.718 46.3827V61.0383L95.9756 68.3917Z" fill="white"/>
</svg>
