<svg width="131" height="133" viewBox="0 0 131 133" fill="none" xmlns="http://www.w3.org/2000/svg">
<path fill-rule="evenodd" clip-rule="evenodd" d="M90.8646 23.2604C89.6368 18.4794 87.7313 13.6781 86.3326 10.4377C84.4272 6.02441 80.4686 2.44806 75.2358 1.62564C72.0143 1.13044 68.7593 0.886457 65.5 0.895893C61.5675 0.895893 58.2778 1.23181 55.7671 1.62564C50.5343 2.44806 46.5757 6.02731 44.6703 10.4377C43.2716 13.681 41.3661 18.4794 40.1383 23.2604C29.6583 23.8396 22.0509 24.7373 16.7284 25.5858C8.4434 26.9063 2.82837 33.6072 2.02913 41.591C1.22698 49.6038 0.34375 61.998 0.34375 77.6355C0.34375 93.2759 1.22698 105.667 2.02913 113.68C2.82548 121.661 8.4434 128.362 16.7284 129.685C25.6475 131.11 40.9781 132.656 65.5 132.656C90.0219 132.656 105.35 131.11 114.272 129.685C122.557 128.365 128.172 121.664 128.971 113.68C129.773 105.664 130.656 93.2759 130.656 77.6355C130.656 61.9951 129.773 49.6038 128.971 41.591C128.175 33.6101 122.557 26.9092 114.272 25.5858C108.949 24.7344 101.342 23.8425 90.8646 23.2604ZM65.5 12.4792C62.2277 12.4792 59.5404 12.7572 57.5654 13.07C56.7314 13.2003 55.8337 13.8026 55.3067 15.0305C54.2029 17.5656 53.2144 20.1494 52.3442 22.7739C56.4013 22.6726 60.7798 22.6146 65.5 22.6146C70.2202 22.6146 74.5987 22.6726 78.6587 22.7739C77.7894 20.1495 76.8019 17.5657 75.6991 15.0305C75.1692 13.8026 74.2715 13.2003 73.4346 13.07C70.809 12.668 68.1562 12.4705 65.5 12.4792ZM58.6542 65.9971C61.0549 64.5782 64.944 62.3194 68.0831 60.7267C69.0997 60.2018 70.2825 60.0992 71.3743 60.4412C72.4662 60.7833 73.379 61.5423 73.9145 62.5534C74.45 63.5645 74.5649 64.7461 74.2343 65.8415C73.9037 66.9368 73.1543 67.8575 72.1488 68.4036C71.4538 68.7887 70.7357 69.1738 70.0088 69.5648C67.3823 70.978 64.6168 72.4664 62.2248 74.2502C59.0278 76.6335 57.9708 78.4984 57.9708 79.8566L57.9621 86.3172C57.9614 86.698 58.0357 87.0751 58.1809 87.4272C58.3261 87.7792 58.5393 88.0991 58.8083 88.3686C59.0772 88.6381 59.3967 88.8519 59.7485 88.9978C60.1002 89.1437 60.4772 89.2188 60.858 89.2188H64.055C64.823 89.2188 65.5596 88.9137 66.1026 88.3706C66.6457 87.8276 66.9508 87.091 66.9508 86.323C66.9505 85.5377 67.163 84.7669 67.5658 84.0928C67.9687 83.4187 68.5467 82.8664 69.2385 82.4947C74.6653 79.5815 78.8614 77.2011 81.7746 74.3748C84.4619 71.7627 85.9735 68.8495 85.9735 64.6042C85.9735 60.3589 84.6878 56.3714 82.209 53.5132C79.817 50.7592 75.9945 48.6771 70.0465 48.6771C65.138 48.6771 60.6437 50.1395 57.2266 52.352C53.7545 54.5991 51.71 57.3965 51.0932 59.8695C50.4938 62.2528 50.9658 64.1322 51.7766 65.2934C52.544 66.3939 53.8298 67.1873 55.7642 67.1468C56.3723 67.1352 57.2208 66.8456 58.6542 65.9971ZM62.6042 112.385C64.5242 112.385 66.3656 111.623 67.7233 110.265C69.081 108.907 69.8437 107.066 69.8437 105.146C69.8437 103.226 69.081 101.384 67.7233 100.027C66.3656 98.669 64.5242 97.9063 62.6042 97.9063C60.6841 97.9063 58.8427 98.669 57.485 100.027C56.1273 101.384 55.3646 103.226 55.3646 105.146C55.3646 107.066 56.1273 108.907 57.485 110.265C58.8427 111.623 60.6841 112.385 62.6042 112.385Z" fill="white"/>
</svg>
