<svg width="146" height="145" viewBox="0 0 146 145" fill="none" xmlns="http://www.w3.org/2000/svg">
<path d="M84.1722 39.0763C84.1722 32.9889 79.2197 28.0364 73.1323 28.0364C67.0449 28.0364 62.0924 32.9889 62.0924 39.0763C62.0924 45.1637 67.0449 50.1162 73.1323 50.1162C79.2197 50.1162 84.1722 45.1637 84.1722 39.0763ZM73.1323 46.4362C69.0741 46.4362 65.7724 43.1346 65.7724 39.0763C65.7724 35.018 69.0741 31.7163 73.1323 31.7163C77.1906 31.7163 80.4923 35.018 80.4923 39.0763C80.4923 43.1346 77.1906 46.4362 73.1323 46.4362Z" fill="white"/>
<path d="M89.6921 74.036V66.6761C89.6921 57.545 82.2634 50.1162 73.1323 50.1162C64.0011 50.1162 56.5724 57.545 56.5724 66.6761V74.036C56.5724 75.0523 57.3963 75.876 58.4124 75.876H87.8522C88.8682 75.876 89.6921 75.0523 89.6921 74.036ZM86.0122 72.196H60.2524V66.6761C60.2524 59.5741 66.0303 53.7962 73.1323 53.7962C80.2342 53.7962 86.0122 59.5741 86.0122 66.6761V72.196Z" fill="white"/>
<path d="M39.2505 100.185L48.1085 104.613V114.516C48.1085 115.532 48.9325 116.356 49.9485 116.356H69.4524C70.4684 116.356 71.2923 115.532 71.2923 114.516V91.1075C71.2923 85.2594 66.9772 80.2142 61.4685 79.6217C61.3222 79.5941 54.3571 79.0751 50.9901 75.7103L45.9522 70.6726C44.5619 69.2819 42.7139 68.5161 40.7486 68.5161V53.7962C40.7486 49.738 37.4469 46.4363 33.3886 46.4363C29.3304 46.4363 26.0287 49.738 26.0287 53.7962V78.7906C26.0287 87.8455 31.1435 96.1304 39.2505 100.185ZM29.7087 53.7962C29.7087 51.7671 31.3595 50.1163 33.3886 50.1163C35.4178 50.1163 37.0686 51.7671 37.0686 53.7962V69.5025C34.8246 70.8001 33.3886 73.2193 33.3886 75.8761C33.3886 77.8412 34.1544 79.6891 35.5449 81.0795L44.9675 90.5039C45.6856 91.2225 46.8509 91.2228 47.5696 90.5041C48.2881 89.7856 48.2883 88.6207 47.5698 87.902L38.1472 78.4774C37.4517 77.7821 37.0686 76.8582 37.0686 75.8761C37.0686 74.3187 38.0543 72.924 39.5217 72.4057C39.5222 72.4055 39.5228 72.4051 39.5233 72.4049H39.5235C40.7894 71.9562 42.2956 72.22 43.3501 73.2745L48.3886 78.3129C51.8201 81.7421 56.8214 82.7066 61.0543 83.2783C61.0611 83.2791 61.0681 83.28 61.0751 83.2807C64.7409 83.6748 67.6124 87.1129 67.6124 91.1075V112.676H51.7885V103.476C51.7885 102.779 51.3946 102.142 50.7713 101.83L40.8963 96.8935C33.9956 93.4422 29.7087 86.5057 29.7087 78.7906V53.7962Z" fill="white"/>
<path d="M107.014 100.185L98.1561 104.613V114.516C98.1561 115.532 97.3322 116.356 96.3161 116.356H76.8123C75.7962 116.356 74.9723 115.532 74.9723 114.516V91.1075C74.9723 85.2594 79.2874 80.2142 84.7962 79.6217C84.9425 79.5941 91.9075 79.0751 95.2745 75.7103L100.312 70.6726C101.703 69.2819 103.551 68.5161 105.516 68.5161V53.7962C105.516 49.738 108.818 46.4363 112.876 46.4363C116.934 46.4363 120.236 49.738 120.236 53.7962V78.7906C120.236 87.8455 115.121 96.1304 107.014 100.185ZM116.556 53.7962C116.556 51.7671 114.905 50.1163 112.876 50.1163C110.847 50.1163 109.196 51.7671 109.196 53.7962V69.5025C111.44 70.8001 112.876 73.2193 112.876 75.8761C112.876 77.8412 112.11 79.6891 110.72 81.0795L101.297 90.5039C100.579 91.2225 99.4138 91.2228 98.6951 90.5041C97.9765 89.7856 97.9764 88.6207 98.6949 87.902L108.117 78.4774C108.813 77.7821 109.196 76.8582 109.196 75.8761C109.196 74.3187 108.21 72.924 106.743 72.4057C106.742 72.4055 106.742 72.4051 106.741 72.4049H106.741C105.475 71.9562 103.969 72.22 102.915 73.2745L97.8761 78.3129C94.4445 81.7421 89.4432 82.7066 85.2104 83.2783C85.2035 83.2791 85.1966 83.28 85.1896 83.2807C81.5238 83.6748 78.6523 87.1129 78.6523 91.1075V112.676H94.4762V103.476C94.4762 102.779 94.8701 102.142 95.4933 101.83L105.368 96.8935C112.269 93.4422 116.556 86.5057 116.556 78.7906V53.7962Z" fill="white"/>
</svg>
