<?xml version="1.0" encoding="utf-8"?>
<!-- Generator: Adobe Illustrator 24.0.0, SVG Export Plug-In . SVG Version: 6.00 Build 0)  -->
<svg version="1.1" id="Layer_1" xmlns="http://www.w3.org/2000/svg" xmlns:xlink="http://www.w3.org/1999/xlink" x="0px" y="0px"
	 viewBox="0 0 600 600" style="enable-background:new 0 0 600 600;" xml:space="preserve">
<style type="text/css">
	.st0{fill:#FFFFFF;}
</style>
<g>
	<path class="st0" d="M108.5,176.8c0.1-0.1,0.1-0.2,0.1-0.3C108.6,176.6,108.5,176.7,108.5,176.8z M151.9,200.8L151.9,200.8
		c-0.3-0.1-0.5-0.2-0.7-0.3c0.4,0.3,0.9,0.5,1.4,0.6C152.3,201,152.1,200.9,151.9,200.8z M215,182c0.1,0,0.1,0,0.1,0
		c0.1-0.1,0.2-0.1,0.3-0.2l0.1-0.1C215.3,181.8,215.1,181.9,215,182z M222.5,181.2L222.5,181.2c-0.5-0.2-1.1-0.4-1.8-0.4
		c0.3,0,0.5,0.1,0.8,0.2l0,0c0.1,0,0.2,0,0.3,0.1c0.2,0,0.3,0.1,0.5,0.1s0.3,0.1,0.4,0.1C222.6,181.3,222.6,181.2,222.5,181.2z
		 M117,161.4c1.3-1.3,2.8-2.4,4.4-3.4C119.8,158.9,118.4,160.1,117,161.4z M134.4,153.7h-0.1c-0.4,0-0.8,0.1-1.2,0.1
		c-0.5,0.1-1,0.1-1.4,0.2c-0.3,0-0.6,0.1-0.9,0.2c-0.3,0.1-0.6,0.1-0.9,0.2c-0.3,0.1-0.7,0.2-1,0.2c-0.6,0.2-1.1,0.3-1.6,0.5
		c-0.3,0.1-0.5,0.2-0.8,0.3s-0.5,0.2-0.8,0.3c-0.5,0.2-0.9,0.4-1.4,0.6c-0.1,0-0.2,0.1-0.3,0.1c-0.2,0.1-0.4,0.2-0.5,0.3
		c3.3-1.6,7-2.6,11.1-3C134.5,153.7,134.5,153.7,134.4,153.7z M134.6,153.7c0.5,0,1.2-0.1,1.7-0.1s1,0,1.6-0.1
		C136.8,153.5,135.7,153.6,134.6,153.7z M363.4,157.1c0.2-0.6,0.5-1.1,0.8-1.5C363.8,156,363.5,156.5,363.4,157.1z M480.7,196.8
		c0-1,0-2,0-3V215C480.8,208.9,480.8,202.9,480.7,196.8z M485.1,163.7c0.7,1,1.4,2,2.1,3.1C486.5,165.7,485.9,164.7,485.1,163.7z
		 M491.8,177.5L491.8,177.5C491.7,177.5,491.7,177.5,491.8,177.5C491.8,177.5,491.8,177.6,491.8,177.5L491.8,177.5
		c0.1,0.2,0.1,0.2,0.2,0.3C491.9,177.7,491.8,177.6,491.8,177.5z"/>
	<path class="st0" d="M491.8,177.6C491.8,177.6,491.8,177.5,491.8,177.6C491.8,177.5,491.8,177.5,491.8,177.6
		C491.7,177.5,491.7,177.5,491.8,177.6c-0.1-0.1-0.1-0.1-0.1-0.2l-0.1-0.1c-0.1-0.5-0.3-1-0.5-1.5c-0.3-1-0.6-1.9-1-2.8
		c-0.3-0.9-0.7-1.8-1.1-2.6c-0.4-0.8-0.8-1.6-1.2-2.4c-0.2-0.4-0.4-0.8-0.6-1.1c-0.7-1.1-1.3-2.1-2.1-3.1c-0.5-0.6-1-1.2-1.6-1.8
		c-0.3-0.3-0.5-0.6-0.8-0.8c-1.3-1.3-2.8-2.4-4.4-3.4c-0.4-0.3-0.9-0.5-1.4-0.8c-0.5-0.2-1-0.5-1.5-0.7c-0.2-0.1-0.5-0.2-0.7-0.3
		c-0.3-0.1-0.5-0.2-0.8-0.3c-0.5-0.2-1-0.4-1.5-0.5c-0.8-0.2-1.6-0.5-2.5-0.6c-0.9-0.2-1.7-0.3-2.6-0.5c-0.6-0.1-1.2-0.2-1.8-0.2
		c-1.7-0.2-3.5-0.3-5.3-0.3h-88.5c-1.3,0-2.5-0.1-3.8,0.1c-1.4,0.2-2.6,0.7-3.4,1.5c-0.1,0.1-0.3,0.3-0.4,0.4
		c-0.3,0.4-0.6,0.9-0.8,1.5c-0.2,0.4-0.3,0.9-0.3,1.4c-0.1,0.9,0,1.8,0.2,2.5c0.5,1.5,1.7,2.7,3.5,3.3c1.5,0.5,3.2,0.5,4.8,0.5h91.1
		c8.2,0,14.6,4.5,17,11.5c0.7,1.9,1,4.1,1.1,6.4v0.1c0,4.7,0,9.3,0,14c0,6,0,12.1,0,18.2c0,0.8-0.2,1.6-0.3,2.3H119.6
		c-0.1-0.1-0.1-0.2-0.1-0.3c0,0,0-0.1-0.1-0.1c-0.1-0.1-0.1-0.2-0.1-0.3c0-0.1,0-0.1,0-0.2c0-10.4,0.4-20.8-0.2-31.1
		c-0.2-2.9,0.2-5.7,1.1-8.2c2.6-7.6,9.6-12.5,19.4-12.5c66.2,0.4,132.5,0.2,198.7,0.2c1.4,0,2.9,0.3,4.1-0.2
		c1.7-0.7,3.8-1.7,4.7-3.1c0.2-0.3,0.4-0.7,0.5-1c0.5-1.3,0.4-2.6-0.2-3.7c-0.2-0.5-0.6-0.9-1-1.3c-0.1-0.1-0.3-0.3-0.5-0.4
		c-1.1-0.8-2.4-1.3-4.1-1.5H136.3c-0.5,0-1.1,0.1-1.7,0.1c-0.1,0-0.2,0-0.2,0h-0.1c-0.4,0-0.8,0.1-1.2,0.1c-0.5,0.1-1,0.1-1.4,0.2
		c-0.3,0-0.6,0.1-0.9,0.2c-0.3,0.1-0.6,0.1-0.9,0.2c-0.3,0.1-0.7,0.2-1,0.2c-0.6,0.2-1.1,0.3-1.6,0.5c-0.3,0.1-0.5,0.2-0.8,0.3
		s-0.5,0.2-0.8,0.3c-0.5,0.2-0.9,0.4-1.4,0.6c-0.1,0-0.2,0.1-0.3,0.1c-3.2,1.5-5.9,3.5-8.3,6.1c-0.5,0.5-1,1.1-1.5,1.7
		c-2.1,2.7-3.8,5.9-5,9.5c-0.3,0.8-0.5,1.7-0.8,2.6c0,0.1-0.1,0.2-0.1,0.3c-0.2,0.3-0.4,0.6-0.5,0.9V422c0.4,1.2,0.8,2.3,1.2,3.5
		c3.6,12.2,14.3,20.4,26.9,20.6c5.9,0.1,11.8,0,17.6,0c100.9,0,201.7-0.2,302.6,0.2c4.3,0,8.4-0.3,12-1.1c1.5-0.3,2.9-0.7,4.3-1.2
		c1.9-0.7,3.7-1.5,5.4-2.4c0.2-0.1,0.5-0.3,0.7-0.4c0.2-0.1,0.5-0.3,0.7-0.4c0.5-0.3,0.9-0.6,1.4-1c0.2-0.2,0.4-0.3,0.7-0.5
		c0.2-0.2,0.4-0.3,0.6-0.5s0.4-0.3,0.6-0.5c0.1,0,0.1-0.1,0.2-0.2c0.2-0.1,0.3-0.3,0.5-0.5l0.8-0.8c0.2-0.2,0.4-0.4,0.6-0.7l0.1-0.1
		c0.2-0.2,0.4-0.4,0.5-0.6c0.3-0.4,0.6-0.8,0.9-1.2c0.2-0.3,0.4-0.5,0.6-0.8c0.1,0,0.1-0.1,0.1-0.2c0.2-0.3,0.4-0.5,0.5-0.8
		c0.1-0.2,0.2-0.4,0.3-0.5c0.5-0.8,1-1.7,1.4-2.6c0.1-0.3,0.3-0.5,0.4-0.8c0.1-0.2,0.2-0.4,0.3-0.7c0.4-0.9,0.8-1.8,1.1-2.8
		c0.2-0.5,0.3-1,0.5-1.5s0.3-1.1,0.5-1.6L491.8,177.6L491.8,177.6z M123.5,428.6c-2-2.4-3.4-5.3-4.1-8.5c-0.1-0.7-0.3-1.3-0.3-2
		c0-0.3-0.1-0.5-0.1-0.8s0-0.5-0.1-0.8v-1.8c0.3-60.5,0.2-121,0.2-181.5v-4.4h361.5v138.6c0,15.8,0.1,31.6,0.2,47.3
		c0.1,1.1,0.1,2.1,0,2.9c-0.1,0.8-0.2,1.7-0.4,2.5c-0.3,1.3-0.7,2.5-1.2,3.7c-0.3,0.6-0.5,1.2-0.8,1.7c-0.6,1.1-1.3,2.2-2.1,3.1
		c-0.4,0.5-0.8,0.9-1.3,1.4c-0.5,0.4-0.9,0.8-1.5,1.2c-0.5,0.4-1,0.8-1.6,1.1c-0.8,0.5-1.7,1-2.7,1.3c-0.3,0.1-0.6,0.3-1,0.4
		c-2.3,0.8-4.9,1.2-7.8,1.2c-107-0.3-214-0.3-321,0c-2.9,0-5.5-0.4-7.8-1.2c-0.3-0.1-0.7-0.2-1-0.4c-0.9-0.4-1.8-0.8-2.7-1.3
		c-1.1-0.7-2.1-1.5-3.1-2.3C124.3,429.6,123.9,429.1,123.5,428.6z"/>
	<path class="st0" d="M230.2,190.8c0.1,3.8-1.8,7.2-4.9,9.1c-0.4,0.3-0.9,0.5-1.3,0.7c-0.1,0.1-0.3,0.1-0.5,0.2
		c-0.6,0.2-1.3,0.4-1.9,0.6c-0.2,0-0.3,0-0.5,0.1c-0.4,0-0.7,0.1-1,0.1c-0.8,0-1.6,0-2.3-0.2c-1.1-0.2-2.2-0.7-3.2-1.3
		c-0.2-0.1-0.4-0.3-0.6-0.4c-0.3-0.2-0.6-0.5-0.9-0.8c-0.1-0.1-0.2-0.2-0.4-0.3c-0.1-0.1-0.2-0.2-0.3-0.4c-0.2-0.2-0.3-0.4-0.5-0.6
		c-0.1-0.1-0.2-0.2-0.3-0.3c-0.2-0.2-0.3-0.4-0.5-0.7c-0.2-0.3-0.3-0.6-0.5-0.9c-0.1-0.3-0.3-0.6-0.4-0.9c-0.4-1.1-0.7-2.3-0.7-3.5
		c0-1.3,0.2-2.5,0.6-3.7c0.1-0.3,0.3-0.6,0.4-0.9c0.5-1,1.2-2,2-2.8c0.5-0.5,1-0.9,1.5-1.3c0.3-0.2,0.6-0.4,0.9-0.5
		c0.4-0.3,0.9-0.5,1.4-0.6c0.3-0.1,0.6-0.2,1-0.3c0.2,0,0.3-0.1,0.5-0.1c0.7-0.2,1.4-0.2,2.1-0.2c1.1,0,2.1,0.1,3.1,0.5
		c0.8,0.2,1.5,0.6,2.3,1c0.3,0.2,0.5,0.3,0.8,0.5c0.1,0.1,0.3,0.2,0.4,0.3c0.3,0.2,0.5,0.4,0.7,0.6
		C228.9,185.5,230.1,188.1,230.2,190.8z"/>
	<path class="st0" d="M198.1,191.2c0,5.7-4.6,10.3-10.2,10.4c-1.5,0-2.9-0.3-4.1-0.8c-0.3-0.1-0.6-0.3-0.9-0.5
		c-0.2-0.1-0.3-0.2-0.4-0.3c-0.3-0.2-0.6-0.4-0.8-0.6c-1.6-1.2-2.9-2.9-3.6-4.8c-0.1-0.2-0.1-0.3-0.2-0.5c-0.3-1-0.5-2-0.5-3.1
		c0-5.7,4.6-10.3,10.2-10.4c1.1,0,2.2,0.1,3.2,0.5c0.2,0,0.3,0.1,0.5,0.2c0.1,0,0.3,0.1,0.4,0.1c0.2,0.1,0.4,0.2,0.6,0.2
		c0.4,0.2,0.9,0.5,1.3,0.8c0.4,0.3,0.8,0.6,1.2,0.9c0.1,0.1,0.3,0.2,0.4,0.4c0.3,0.3,0.5,0.5,0.7,0.8c0.2,0.2,0.4,0.4,0.5,0.7
		c0.5,0.8,0.9,1.6,1.2,2.5c0,0.1,0.1,0.2,0.1,0.3c0,0.1,0,0.1,0.1,0.2c0.1,0.2,0.1,0.4,0.2,0.6C198,189.6,198.1,190.4,198.1,191.2z"
		/>
	<path class="st0" d="M166,191.5c0,0.5-0.1,1-0.2,1.5c-0.1,0.3-0.1,0.7-0.2,1c-0.2,0.7-0.4,1.3-0.7,1.9c-0.1,0.2-0.1,0.3-0.2,0.4
		c-0.3,0.6-0.7,1.1-1.1,1.6c-0.2,0.3-0.4,0.5-0.7,0.7c-1.9,1.9-4.5,3-7.3,3c-0.3,0-0.7,0-1-0.1c-0.3,0-0.7-0.1-1-0.2s-0.7-0.2-1-0.3
		c-0.5-0.1-1-0.3-1.4-0.6c-0.3-0.1-0.6-0.3-0.9-0.5c-0.4-0.3-0.8-0.6-1.2-0.9c-2.3-2-3.8-5-3.7-8.3c0-2.4,0.9-4.5,2.3-6.2
		c0.1-0.1,0.2-0.3,0.3-0.4c0.2-0.2,0.3-0.4,0.5-0.5c0.1-0.1,0.2-0.2,0.4-0.3c1.9-1.7,4.3-2.7,6.9-2.6
		C161.6,180.8,166.2,185.6,166,191.5z"/>
	<path class="st0" d="M480.7,367.6V229h-0.1v138.4c0,15.8,0.1,31.6,0.2,47.3c0.1,1.1,0.1,2.1,0,2.9s-0.2,1.7-0.4,2.5
		c-0.3,1.3-0.7,2.5-1.2,3.7c-0.3,0.6-0.5,1.2-0.8,1.7c-0.6,1.1-1.3,2.2-2.1,3.1c-0.4,0.5-0.8,0.9-1.3,1.4c-0.5,0.4-0.9,0.8-1.5,1.2
		c-0.5,0.4-1,0.8-1.6,1.1c-0.8,0.5-1.7,1-2.7,1.3c-0.3,0.1-0.6,0.3-1,0.4c-2.3,0.8-4.9,1.2-7.8,1.2c-107-0.3-214-0.3-321,0
		c-2.9,0-5.5-0.4-7.8-1.2c-0.3-0.1-0.7-0.2-1-0.4c-0.9-0.4-1.8-0.8-2.7-1.3c-1.1-0.7-2.1-1.5-3.1-2.3l0.2,0.2
		c0.9,0.9,1.9,1.7,3.1,2.3c0.8,0.5,1.7,1,2.7,1.3c0.3,0.1,0.6,0.3,1,0.4c2.3,0.8,4.9,1.2,7.8,1.2c107-0.3,214-0.3,321,0
		c2.9,0,5.5-0.4,7.8-1.2c0.3-0.1,0.6-0.2,1-0.4c1-0.4,1.9-0.8,2.7-1.3c0.5-0.3,1.1-0.7,1.6-1.1c0.5-0.4,1-0.8,1.5-1.2
		c0.4-0.4,0.9-0.9,1.3-1.4c0.8-1,1.5-2,2.1-3.1c0.3-0.5,0.6-1.1,0.8-1.7c0.5-1.2,0.9-2.4,1.2-3.7c0.2-0.8,0.3-1.6,0.4-2.5
		s0.1-1.8,0.1-2.7C480.8,399.2,480.8,383.4,480.7,367.6z"/>
</g>
</svg>
