<?xml version="1.0" encoding="utf-8"?>
<!-- Generator: Adobe Illustrator 24.0.0, SVG Export Plug-In . SVG Version: 6.00 Build 0)  -->
<svg version="1.1" id="Layer_1" xmlns="http://www.w3.org/2000/svg" xmlns:xlink="http://www.w3.org/1999/xlink" x="0px" y="0px"
	 viewBox="0 0 27 27" style="enable-background:new 0 0 27 27;" xml:space="preserve">
<style type="text/css">
	.st0{fill:#FFFFFF;}
</style>
<path class="st0" d="M19.6,15.7l1.7,0.9c0.2,0.1,0.2,0.4,0,0.5l-7.6,3.8c-0.2,0.1-0.4,0.1-0.5,0l-7.6-3.8c-0.1-0.1-0.1-0.3-0.1-0.4
	s0.1-0.1,0.1-0.1l1.7-0.9l5.3,2.7c0.5,0.3,1.1,0.3,1.6,0L19.6,15.7L19.6,15.7z M13.2,5.6c0.2-0.1,0.4-0.1,0.6,0l7.6,3.8
	c0.1,0,0.1,0.2,0.1,0.4c0,0.1-0.1,0.1-0.1,0.1l-7.6,3.8c-0.2,0.1-0.4,0.1-0.5,0L5.7,9.9C5.5,9.8,5.5,9.6,5.5,9.5
	c0-0.1,0.1-0.1,0.1-0.1L13.2,5.6z"/>
<path class="st0" d="M19.6,12.1l1.7,0.9c0.2,0.1,0.2,0.4,0,0.5l-7.6,3.8c-0.2,0.1-0.4,0.1-0.5,0l-7.5-3.8c-0.2-0.1-0.2-0.3-0.2-0.4
	C5.5,13,5.6,13,5.6,13l1.7-0.9l5.3,2.7c0.5,0.3,1.1,0.3,1.6,0L19.6,12.1L19.6,12.1z"/>
</svg>
