<svg width="145" height="145" viewBox="0 0 145 145" fill="none" xmlns="http://www.w3.org/2000/svg">
<g filter="url(#filter0_d_1_12051)">
<path d="M101.868 71.6348L67.3277 77.1096L72.7998 42.5691C72.9553 41.5872 72.2868 40.6648 71.3048 40.5093H71.3022C58.8914 38.5376 46.2915 42.6339 37.4122 51.5262C22.1124 66.8285 22.1124 91.7227 37.4122 107.025C52.7119 122.327 77.6087 122.327 92.9084 107.025C101.801 98.1458 105.894 85.5432 103.925 73.135C103.772 72.1504 102.85 71.4794 101.868 71.6348ZM99.1553 90.023C97.4453 95.4822 94.4268 100.444 90.3667 104.478C76.4687 118.374 53.8571 118.374 39.9591 104.478C26.0611 90.5801 26.0611 67.966 39.9591 54.0679C43.9933 50.0104 48.9524 46.992 54.4142 45.2793C59.1117 43.8076 64.063 43.3102 68.96 43.8284L63.3868 78.9932C63.2313 79.9752 63.8998 80.8976 64.8818 81.0504C65.0683 81.0815 65.2575 81.0815 65.444 81.0504L100.606 75.4798C101.124 80.3742 100.63 85.3256 99.1553 90.023Z" fill="white"/>
<path d="M52.0331 63.4631C48.7322 60.1622 43.3844 60.1622 40.086 63.4605C36.7877 66.7588 36.7851 72.1092 40.0834 75.4075C43.3818 78.7084 48.7322 78.7084 52.0331 75.4101C55.3236 72.1092 55.3262 66.764 52.0331 63.4631ZM49.4861 72.8658C47.5921 74.7572 44.5218 74.7572 42.6278 72.8632C40.7338 70.9692 40.7364 67.8988 42.6304 66.0074C44.5244 64.1134 47.5947 64.116 49.4861 66.01C51.3776 67.904 51.3776 70.9717 49.4861 72.8658Z" fill="white"/>
<path d="M100.111 48.9302H104.752L104.749 45.1836H100.111V48.9302Z" fill="white"/>
<path d="M100.111 40.3281H96.3649V45.1836H100.111V40.3281Z" fill="white"/>
<path d="M96.3648 53.568L100.111 53.5706V45.1836H91.727V48.9302H96.3648V53.568Z" fill="white"/>
<path d="M90.3123 59.6206H85.6744V63.3672H90.3123V59.6206Z" fill="white"/>
<path d="M85.6744 54.7651H81.9278V59.6232H85.6744V54.7651Z" fill="white"/>
<path d="M81.9278 68.005H85.6743V59.6206H77.2899V63.3698L81.9278 63.3672V68.005Z" fill="white"/>
<path d="M119.186 30.749H114.548V34.4956H119.186V30.749Z" fill="white"/>
<path d="M114.548 25.8911H110.802V30.7492H114.548V25.8911Z" fill="white"/>
<path d="M110.802 39.1309L114.548 39.1335V30.749H106.164V34.4956H110.802V39.1309Z" fill="white"/>
</g>
<defs>
<filter id="filter0_d_1_12051" x="-6.2504" y="-6.61563" width="157.624" height="157.624" filterUnits="userSpaceOnUse" color-interpolation-filters="sRGB">
<feFlood flood-opacity="0" result="BackgroundImageFix"/>
<feColorMatrix in="SourceAlpha" type="matrix" values="0 0 0 0 0 0 0 0 0 0 0 0 0 0 0 0 0 0 127 0" result="hardAlpha"/>
<feOffset/>
<feGaussianBlur stdDeviation="3.30782"/>
<feComposite in2="hardAlpha" operator="out"/>
<feColorMatrix type="matrix" values="0 0 0 0 0.164706 0 0 0 0 0.72549 0 0 0 0 1 0 0 0 1 0"/>
<feBlend mode="normal" in2="BackgroundImageFix" result="effect1_dropShadow_1_12051"/>
<feBlend mode="normal" in="SourceGraphic" in2="effect1_dropShadow_1_12051" result="shape"/>
</filter>
</defs>
</svg>
