<svg width="45" height="45" viewBox="0 0 45 45" fill="none" xmlns="http://www.w3.org/2000/svg">
<path d="M15.4716 44.2211L15.4822 44.2246L15.4932 44.2265C16.0769 44.3287 16.5056 44.208 16.7891 43.9569C17.0691 43.7089 17.184 43.3542 17.184 43.032C17.184 42.8494 17.1806 42.5199 17.1763 42.091C17.1744 41.9032 17.1723 41.6963 17.1702 41.4744C17.1633 40.7446 17.1565 39.85 17.1565 38.9279V38.7478L16.9793 38.7804C14.2324 39.2861 12.5289 38.9466 11.4642 38.3495C10.4011 37.7534 9.95121 36.8874 9.73824 36.2885L9.73831 36.2885L9.7366 36.2841C9.6079 35.9551 9.27186 35.2984 8.85117 34.6587C8.64031 34.3381 8.40617 34.0185 8.16373 33.7447C7.92265 33.4725 7.66685 33.2379 7.41147 33.0952L7.4091 33.0939C7.22476 32.9952 7.02005 32.8598 6.84571 32.7129C6.668 32.5632 6.53632 32.4137 6.47974 32.2895C6.45221 32.229 6.44778 32.1862 6.45284 32.1573C6.45719 32.1326 6.47108 32.1024 6.51682 32.0688C6.62035 31.9928 6.85539 31.9231 7.31303 31.9163L7.31317 31.9163C8.13163 31.9033 8.84131 32.2799 9.40412 32.7523C9.96589 33.2238 10.369 33.7807 10.5707 34.1032C11.5873 35.8107 12.9179 36.4356 14.1625 36.5501C15.3975 36.6636 16.534 36.2738 17.1789 35.9794L17.2543 35.945L17.2653 35.863C17.454 34.4612 18.0177 33.5324 18.6198 33.0089L18.8776 32.7848L18.5381 32.7466C16.0956 32.4722 13.6256 31.8636 11.7664 30.2951C9.91437 28.7327 8.64516 26.1971 8.64516 22.0156C8.64516 19.6578 9.48428 17.7102 10.8648 16.1944L10.928 16.125L10.8931 16.0377C10.6829 15.5122 9.93321 13.3277 11.0844 10.383C11.0855 10.3828 11.0865 10.3826 11.0875 10.3824C11.1397 10.3733 11.2217 10.3625 11.3346 10.3578C11.5602 10.3485 11.91 10.3636 12.3925 10.4661C13.3577 10.6713 14.855 11.2266 16.9502 12.637L17.0078 12.6758L17.0746 12.657C18.8236 12.1651 20.6828 11.919 22.5429 11.919C24.4029 11.919 26.2623 12.1651 28.0112 12.657L28.0784 12.6759L28.1361 12.6367C30.2312 11.2126 31.7281 10.6576 32.6928 10.4559C33.175 10.3551 33.5245 10.3425 33.7499 10.3539C33.8626 10.3596 33.9444 10.3713 33.9965 10.381C33.998 10.3813 33.9994 10.3815 34.0009 10.3818C35.1528 13.3271 34.4029 15.5121 34.1927 16.0377L34.1578 16.125L34.2211 16.1944C35.6017 17.7104 36.4407 19.6305 36.4407 22.0156C36.4407 26.2108 35.1647 28.7462 33.306 30.3052C31.44 31.8703 28.963 32.4721 26.5201 32.7466L26.1788 32.785L26.439 33.0093C27.1973 33.663 27.8743 34.9393 27.8743 36.9723C27.8743 38.4454 27.8674 39.7741 27.8605 40.8275C27.8582 41.1759 27.8559 41.4943 27.8539 41.778C27.8498 42.3515 27.8467 42.7828 27.8467 43.032C27.8467 43.3535 27.9611 43.7148 28.2406 43.9664C28.5249 44.2223 28.9555 44.343 29.5411 44.2259L29.5504 44.224L29.5594 44.221C38.3228 41.2814 44.6734 32.962 44.6734 23.1724C44.6734 10.9149 34.7454 0.986719 22.4878 0.986719C10.2303 0.986719 0.302148 10.9149 0.302148 23.1724C0.302148 32.9898 6.65308 41.2816 15.4716 44.2211Z" fill="white" stroke="#8D31AB" stroke-width="0.3"/>
</svg>
