<svg width="111" height="111" viewBox="0 0 111 111" fill="none" xmlns="http://www.w3.org/2000/svg">
<path d="M15.8702 61.5241C11.4871 65.9073 11.4871 73.0387 15.8697 77.4213L33.4964 95.048C37.8795 99.4311 45.0104 99.4306 49.3936 95.0474L50.0277 94.4133L55.453 99.8387C53.9999 102.52 54.401 105.95 56.6656 108.214C59.4241 110.973 63.913 110.973 66.6714 108.214C69.4299 105.456 69.4299 100.967 66.6714 98.2085C64.4072 95.9443 60.9778 95.5432 58.2957 96.9959L52.8704 91.5706L63.7885 80.6526L69.2138 86.0779C67.7606 88.7596 68.1617 92.1889 70.4264 94.4536C73.1848 97.2121 77.6737 97.2121 80.4322 94.4536C83.1907 91.6951 83.1907 87.2062 80.4322 84.4477C78.168 82.1835 74.7386 81.7824 72.0565 83.2351L66.6312 77.8098L77.5492 66.8918L82.9745 72.3171C81.5214 74.9988 81.9225 78.4282 84.1871 80.6928C86.9456 83.4513 91.4345 83.4513 94.193 80.6928C96.9515 77.9343 96.9515 73.4454 94.193 70.687C91.9287 68.4227 88.4994 68.0216 85.8173 69.4744L80.392 64.049L91.31 53.131L96.7353 58.5563C95.2822 61.238 95.6833 64.6674 97.9479 66.932C100.706 69.6905 105.195 69.6905 107.954 66.932C110.712 64.1736 110.712 59.6847 107.954 56.9262C105.69 54.6619 102.26 54.2609 99.5781 55.7136L94.1527 50.2883L94.7868 49.6542C99.17 45.271 99.17 38.1396 94.7874 33.7569L77.1612 16.1298C72.7781 11.7467 65.6472 11.7472 61.264 16.1303L60.6299 16.7644L55.2046 11.3391C56.6577 8.65747 56.2566 5.22807 53.992 2.96344C51.2345 0.204974 46.7451 0.20547 43.9872 2.96344C41.2287 5.72191 41.2287 10.2108 43.9872 12.9693C46.2514 15.2335 49.6808 15.6346 52.3629 14.1819L57.7882 19.6072L46.8697 30.5247L41.4443 25.0994C42.8975 22.4177 42.4964 18.9883 40.2318 16.7237C37.4728 13.9667 32.9844 13.9663 30.2264 16.7242C27.4679 19.4827 27.4679 23.9716 30.2264 26.7301C32.4907 28.9943 35.92 29.3954 38.6021 27.9427L44.0274 33.368L33.1084 44.286L27.6831 38.8607C29.1362 36.179 28.7351 32.7496 26.4705 30.485C23.712 27.7275 19.2231 27.7275 16.4646 30.486C13.7062 33.2445 13.7062 37.7334 16.4646 40.4919C18.7289 42.7561 22.1583 43.1572 24.8403 41.7045L30.2656 47.1298L19.3475 58.0469L13.9222 52.6216C15.3753 49.9399 14.9742 46.5106 12.7096 44.2459C9.95113 41.4884 5.46222 41.4885 2.70374 44.2469C-0.0547312 47.0054 -0.0547312 51.4943 2.70374 54.2528C4.96799 56.517 8.39737 56.9181 11.0794 55.4654L16.5048 60.8907L15.8702 61.5241ZM63.8288 101.051C65.0192 102.242 65.0202 104.18 63.8288 105.372C62.6374 106.563 60.6999 106.563 59.5084 105.372C58.317 104.18 58.317 102.243 59.5085 101.051C60.6999 99.86 62.6384 99.861 63.8288 101.051ZM77.5894 87.2907C78.7798 88.4811 78.7809 90.4197 77.5895 91.6111C76.3981 92.8024 74.4605 92.8025 73.2691 91.6111C72.0777 90.4197 72.0777 88.4822 73.2691 87.2907C74.4605 86.0994 76.399 86.1003 77.5894 87.2907ZM91.3501 73.5301C92.5405 74.7205 92.5415 76.659 91.3501 77.8504C90.1587 79.0419 88.2212 79.0419 87.0297 77.8504C85.8383 76.659 85.8383 74.7215 87.0297 73.5301C88.2212 72.3387 90.1597 72.3397 91.3501 73.5301ZM105.112 59.7682C106.302 60.9585 106.303 62.8971 105.112 64.0885C103.921 65.2799 101.983 65.2799 100.792 64.0885C99.6002 62.8971 99.6002 60.9596 100.792 59.7682C101.983 58.5768 103.922 58.5777 105.112 59.7682ZM46.8311 10.1267C45.6407 8.9363 45.6396 6.99773 46.8311 5.80631C48.0225 4.61489 49.96 4.61489 51.1514 5.80632C52.3428 6.99774 52.3428 8.93524 51.1514 10.1267C49.96 11.3181 48.0215 11.3171 46.8311 10.1267ZM33.0704 23.8873C31.8801 22.6969 31.879 20.7584 33.0704 19.567C34.2618 18.3756 36.1993 18.3755 37.3908 19.567C38.5822 20.7584 38.5822 22.6959 37.3908 23.8873C36.1994 25.0787 34.2608 25.0777 33.0704 23.8873ZM19.3098 37.648C18.1194 36.4576 18.1183 34.519 19.3098 33.3276C20.5012 32.1362 22.4387 32.1362 23.6301 33.3276C24.8215 34.519 24.8215 36.4565 23.6301 37.648C22.4387 38.8394 20.5002 38.8384 19.3098 37.648ZM5.54786 51.4099C4.35749 50.2195 4.35643 48.2809 5.54785 47.0895C6.73921 45.8982 8.67678 45.8981 9.86821 47.0895C11.0596 48.2809 11.0596 50.2185 9.86821 51.4099C8.67685 52.6012 6.73829 52.6003 5.54786 51.4099ZM74.3194 18.973L91.946 36.5996C94.7611 39.4147 94.7611 43.9957 91.9456 46.8112L46.5515 92.2053C43.7364 95.0204 39.1555 95.0213 36.3399 92.2057L18.7132 74.5791C15.8982 71.764 15.8982 67.183 18.7136 64.3675L64.1078 18.9734C66.9244 16.1578 71.5043 16.1579 74.3194 18.973Z" fill="white"/>
<path d="M22.8722 72.4113L38.5087 88.0478C40.2722 89.8113 43.1418 89.8112 44.9052 88.0478L87.7863 45.1667C89.5499 43.4031 89.5497 40.5336 87.7863 38.7702L72.1503 23.1331C70.3867 21.3696 67.5172 21.3697 65.7538 23.1331L22.8727 66.0143C21.1091 67.7778 21.1092 70.6483 22.8722 72.4113ZM69.3083 25.9751L84.9448 41.6116C85.1412 41.808 85.1412 42.1263 84.9448 42.3226L42.0624 85.205C41.8661 85.4013 41.5478 85.4013 41.3515 85.205L25.715 69.5685C25.5186 69.3721 25.5186 69.0538 25.715 68.8575L68.5961 25.9764C68.7929 25.7805 69.1117 25.78 69.3075 25.9759L69.3083 25.9751Z" fill="white"/>
</svg>
