<svg width="145" height="145" viewBox="0 0 145 145" fill="none" xmlns="http://www.w3.org/2000/svg">
<path d="M32.8702 78.5241C28.4871 82.9073 28.4871 90.0387 32.8697 94.4213L50.4964 112.048C54.8795 116.431 62.0104 116.431 66.3936 112.047L67.0277 111.413L72.453 116.839C70.9999 119.52 71.401 122.95 73.6656 125.214C76.4241 127.973 80.913 127.973 83.6714 125.214C86.4299 122.456 86.4299 117.967 83.6714 115.209C81.4072 112.944 77.9778 112.543 75.2957 113.996L69.8704 108.571L80.7885 97.6526L86.2138 103.078C84.7606 105.76 85.1617 109.189 87.4264 111.454C90.1848 114.212 94.6737 114.212 97.4322 111.454C100.191 108.695 100.191 104.206 97.4322 101.448C95.168 99.1835 91.7386 98.7824 89.0565 100.235L83.6312 94.8098L94.5492 83.8918L99.9745 89.3171C98.5214 91.9988 98.9225 95.4282 101.187 97.6928C103.946 100.451 108.435 100.451 111.193 97.6928C113.951 94.9343 113.951 90.4454 111.193 87.687C108.929 85.4227 105.499 85.0216 102.817 86.4744L97.392 81.049L108.31 70.131L113.735 75.5563C112.282 78.238 112.683 81.6674 114.948 83.932C117.706 86.6905 122.195 86.6905 124.954 83.932C127.712 81.1736 127.712 76.6847 124.954 73.9262C122.69 71.6619 119.26 71.2609 116.578 72.7136L111.153 67.2883L111.787 66.6542C116.17 62.271 116.17 55.1396 111.787 50.7569L94.1612 33.1298C89.7781 28.7467 82.6472 28.7472 78.264 33.1303L77.6299 33.7644L72.2046 28.3391C73.6577 25.6575 73.2566 22.2281 70.992 19.9634C68.2345 17.205 63.7451 17.2055 60.9872 19.9634C58.2287 22.7219 58.2287 27.2108 60.9872 29.9693C63.2514 32.2335 66.6808 32.6346 69.3629 31.1819L74.7882 36.6072L63.8697 47.5247L58.4443 42.0994C59.8975 39.4177 59.4964 35.9883 57.2318 33.7237C54.4728 30.9667 49.9844 30.9663 47.2264 33.7242C44.4679 36.4827 44.4679 40.9716 47.2264 43.7301C49.4907 45.9943 52.92 46.3954 55.6021 44.9427L61.0274 50.368L50.1084 61.286L44.6831 55.8607C46.1362 53.179 45.7351 49.7496 43.4705 47.485C40.712 44.7275 36.2231 44.7275 33.4646 47.486C30.7062 50.2445 30.7062 54.7334 33.4646 57.4919C35.7289 59.7561 39.1583 60.1572 41.8403 58.7045L47.2656 64.1298L36.3475 75.0469L30.9222 69.6216C32.3753 66.9399 31.9742 63.5106 29.7096 61.2459C26.9511 58.4884 22.4622 58.4885 19.7037 61.2469C16.9453 64.0054 16.9453 68.4943 19.7037 71.2528C21.968 73.517 25.3974 73.9181 28.0794 72.4654L33.5048 77.8907L32.8702 78.5241ZM80.8288 118.051C82.0192 119.242 82.0202 121.18 80.8288 122.372C79.6374 123.563 77.6999 123.563 76.5084 122.372C75.317 121.18 75.317 119.243 76.5085 118.051C77.6999 116.86 79.6384 116.861 80.8288 118.051ZM94.5894 104.291C95.7798 105.481 95.7809 107.42 94.5895 108.611C93.3981 109.802 91.4605 109.803 90.2691 108.611C89.0777 107.42 89.0777 105.482 90.2691 104.291C91.4605 103.099 93.399 103.1 94.5894 104.291ZM108.35 90.5301C109.54 91.7205 109.542 93.659 108.35 94.8504C107.159 96.0419 105.221 96.0419 104.03 94.8504C102.838 93.659 102.838 91.7215 104.03 90.5301C105.221 89.3387 107.16 89.3397 108.35 90.5301ZM122.112 76.7682C123.302 77.9585 123.303 79.8971 122.112 81.0885C120.921 82.2799 118.983 82.2799 117.792 81.0885C116.6 79.8971 116.6 77.9596 117.792 76.7682C118.983 75.5768 120.922 75.5777 122.112 76.7682ZM63.8311 27.1267C62.6407 25.9363 62.6396 23.9977 63.8311 22.8063C65.0225 21.6149 66.96 21.6149 68.1514 22.8063C69.3428 23.9977 69.3428 25.9352 68.1514 27.1267C66.96 28.3181 65.0215 28.3171 63.8311 27.1267ZM50.0704 40.8873C48.8801 39.6969 48.879 37.7584 50.0704 36.567C51.2618 35.3756 53.1993 35.3755 54.3908 36.567C55.5822 37.7584 55.5822 39.6959 54.3908 40.8873C53.1994 42.0787 51.2608 42.0777 50.0704 40.8873ZM36.3098 54.648C35.1194 53.4576 35.1183 51.519 36.3098 50.3276C37.5012 49.1362 39.4387 49.1362 40.6301 50.3276C41.8215 51.519 41.8215 53.4565 40.6301 54.648C39.4387 55.8394 37.5002 55.8384 36.3098 54.648ZM22.5479 68.4099C21.3575 67.2195 21.3564 65.2809 22.5479 64.0895C23.7392 62.8982 25.6768 62.8981 26.8682 64.0895C28.0596 65.2809 28.0596 67.2185 26.8682 68.4099C25.6768 69.6012 23.7383 69.6003 22.5479 68.4099ZM91.3194 35.973L108.946 53.5996C111.761 56.4147 111.761 60.9957 108.946 63.8112L63.5515 109.205C60.7364 112.02 56.1555 112.021 53.3399 109.206L35.7132 91.5791C32.8982 88.764 32.8982 84.183 35.7136 81.3675L81.1078 35.9734C83.9244 33.1578 88.5043 33.1579 91.3194 35.973Z" fill="white"/>
<path d="M39.8722 89.4113L55.5087 105.048C57.2722 106.811 60.1418 106.811 61.9052 105.048L104.786 62.1667C106.55 60.4031 106.55 57.5336 104.786 55.7702L89.1503 40.1331C87.3867 38.3696 84.5172 38.3697 82.7538 40.1331L39.8727 83.0143C38.1091 84.7778 38.1092 87.6483 39.8722 89.4113ZM86.3083 42.9751L101.945 58.6116C102.141 58.808 102.141 59.1263 101.945 59.3226L59.0624 102.205C58.8661 102.401 58.5478 102.401 58.3515 102.205L42.715 86.5685C42.5186 86.3721 42.5186 86.0538 42.715 85.8575L85.5961 42.9764C85.7929 42.7805 86.1117 42.78 86.3075 42.9759L86.3083 42.9751Z" fill="white"/>
</svg>
