<svg width="145" height="145" viewBox="0 0 145 145" fill="none" xmlns="http://www.w3.org/2000/svg">
<g filter="url(#filter0_d_1_12086)">
<path d="M64.2835 49.1377C63.5294 49.3718 62.7338 49.4298 61.9549 49.3034C59.6657 48.8953 57.8177 46.6185 57.3557 43.6373C57.1817 42.5911 56.1976 41.8826 55.1514 42.0442C54.1052 42.2058 53.3843 43.1816 53.5335 44.2298C53.8173 46.1503 54.5672 47.9713 55.717 49.5354C54.851 50.1134 54.2067 50.9711 53.8981 51.9655C53.664 52.7921 53.695 53.6705 53.983 54.4805C54.2068 55.1373 54.762 55.6241 55.4436 55.7567C56.1231 55.8893 56.8233 55.649 57.277 55.1248C57.7307 54.6007 57.8674 53.8735 57.6395 53.2189C57.6168 53.165 57.6064 53.107 57.6126 53.049C57.654 52.9061 58.0539 52.5 58.9198 52.2991C60.0966 52.9185 61.4079 53.2396 62.74 53.2396C63.6288 53.2355 64.5134 53.1049 65.3669 52.8522C66.3924 52.5539 66.9829 51.4807 66.6845 50.4553C66.3821 49.4298 65.3089 48.8393 64.2835 49.1377Z" fill="white"/>
<path d="M57.6809 89.8297C57.0345 88.9803 55.8205 88.8146 54.9711 89.463C54.2274 90.0286 52.2261 91.3255 49.7049 91.1867C48.7333 91.1266 47.7844 90.8759 46.9123 90.445C46.7444 90.3124 46.5539 90.2088 46.3508 90.1384C44.3682 88.9596 42.976 86.9998 42.5099 84.7416C42.2841 83.7017 41.2628 83.0387 40.2228 83.2583C39.1828 83.4779 38.5136 84.4951 38.7249 85.5372C39.1559 87.5964 40.115 89.5086 41.5051 91.0872C40.3388 91.7792 39.4521 92.8606 39.0046 94.1409C38.3189 96.2022 38.9943 98.4645 40.7738 100.045C41.2876 100.513 42.0148 100.669 42.6757 100.451C43.3386 100.234 43.8317 99.6785 43.9705 98.9969C44.1093 98.3133 43.8689 97.611 43.3427 97.1552C42.7399 96.6207 42.4851 95.935 42.6736 95.3653C42.9077 94.6609 43.8855 93.971 45.1741 93.9006C46.5207 94.5697 47.9895 94.9613 49.4915 95.0504C49.6966 95.0607 49.8996 95.0669 50.1006 95.0669C53.4733 95.0669 56.0443 93.509 57.3142 92.5436C58.1636 91.8931 58.3273 90.6791 57.6809 89.8297Z" fill="white"/>
<path d="M58.3231 98.9786C57.3142 98.6306 56.2121 99.1672 55.8661 100.176C55.518 101.187 56.0546 102.287 57.0635 102.635C59.5019 103.476 60.9604 104.597 60.8692 105.554C60.8071 106.217 60.5999 106.832 60.3451 107.12C59.6386 107.922 59.7153 109.144 60.517 109.851C61.3188 110.557 62.5411 110.481 63.2475 109.679C64.3331 108.448 64.6376 106.799 64.7225 105.921C64.88 104.206 64.2647 101.023 58.3231 98.9786Z" fill="white"/>
<path d="M105.27 74.1265C106.241 77.7892 109.78 80.1634 113.536 79.6724C117.294 79.1834 120.105 75.9827 120.105 72.1915C120.105 68.4003 117.294 65.2016 113.536 64.7106C109.778 64.2196 106.239 66.5938 105.27 70.2565H75.8413V53.0968H93.6061C94.6999 53.0843 95.5928 52.2142 95.6322 51.1204V41.7335H112.608C112.964 42.9993 113.639 44.1512 114.567 45.0793C116.726 47.2504 119.981 47.903 122.811 46.7367C125.641 45.5682 127.486 42.8087 127.486 39.7489C127.486 36.6869 125.643 33.9274 122.813 32.759C119.983 31.5906 116.728 32.2431 114.569 34.4122C113.588 35.3444 112.906 36.544 112.608 37.8636H93.6061C93.113 37.8429 92.6344 38.0273 92.2864 38.3753C91.9363 38.7234 91.7477 39.1999 91.7643 39.6909V49.2248L75.8413 49.2248V25.2305C75.8413 24.754 75.6652 24.2941 75.3483 23.9398C72.0336 20.2398 66.2784 18.4312 61.0267 19.4401C55.0561 20.5837 50.5232 25.247 49.6676 30.8572C47.281 31.17 44.998 32.0215 42.9906 33.3473C37.484 36.9707 36.4792 43.5918 37.8776 48.2117C38.0972 48.9368 38.3831 49.6391 38.7291 50.3124C36.9474 51.0499 34.6624 52.3924 33.1127 54.7437C31.588 57.0578 31.0804 59.838 31.5942 63.0201C31.5072 63.0678 31.416 63.1175 31.3311 63.1693C26.9805 65.6843 23.9476 69.7241 23.0112 74.2528C22.3296 77.4702 22.8123 80.8242 24.3744 83.7184C22.2674 85.1541 19.2759 87.81 18.3043 91.3463C17.0447 95.931 19.6716 100.644 25.058 103.737C23.324 107.76 24.0263 112.42 26.8687 115.753C28.9155 118.142 32.1204 119.66 35.8909 120.027C36.4854 120.085 37.0862 120.114 37.6891 120.114C40.0715 120.116 42.4353 119.677 44.6583 118.819C46.4523 119.979 48.5054 120.675 50.6351 120.841C52.8746 121 55.1182 120.582 57.1505 119.623C59.0275 122.848 61.4679 124.74 64.2896 125.129C64.7764 125.196 65.2674 125.231 65.7584 125.231C70.6435 125.231 74.2461 121.898 75.3048 120.793C75.6487 120.433 75.8393 119.954 75.8393 119.457V95.1582H87.2004L87.2004 104.692C87.1838 105.185 87.3723 105.662 87.7225 106.008C88.0726 106.354 88.5511 106.54 89.0421 106.519L101.157 106.519C101.456 107.839 102.137 109.041 103.117 109.973C106.061 112.902 110.822 112.894 113.753 109.954C116.687 107.017 116.687 102.256 113.753 99.3182C110.82 96.3785 106.061 96.3702 103.117 99.2995C102.187 100.23 101.514 101.384 101.157 102.652L91.0682 102.652L91.0682 93.2647C91.0289 92.1709 90.1381 91.3008 89.0421 91.2904H75.8372V74.1265H105.27ZM109.962 69.5936C111.203 68.3506 113.148 68.1559 114.611 69.1316C116.071 70.1053 116.641 71.9781 115.97 73.6003C115.299 75.2245 113.575 76.1464 111.851 75.8025C110.13 75.4606 108.889 73.9483 108.889 72.1936C108.883 71.2178 109.27 70.2814 109.962 69.5936ZM117.302 37.093C118.738 35.6573 121.066 35.6573 122.502 37.093C123.938 38.5286 123.938 40.8551 122.502 42.2929C121.066 43.7286 118.74 43.7286 117.302 42.2929V42.2908C115.866 40.8551 115.866 38.5286 117.302 37.093ZM71.9735 84.0063C70.9024 83.186 69.7195 82.5209 68.4661 82.0237C67.4696 81.6405 66.3509 82.1418 65.9677 83.1383C65.5865 84.1348 66.0857 85.2535 67.0843 85.6347C67.4986 85.7942 71.151 87.2672 71.8222 90.1323C71.8554 90.2773 71.9093 90.4182 71.9735 90.5508V118.633C70.7823 119.706 68.0456 121.74 64.8179 121.295C62.2407 120.938 60.5212 117.934 59.7236 116.173C59.4916 115.662 59.0503 115.276 58.5096 115.115C57.9709 114.955 57.3888 115.038 56.9164 115.343C55.0022 116.571 52.9326 117.139 50.9355 116.979C50.1545 116.917 49.3838 116.754 48.6463 116.488C50.6144 114.812 51.9962 112.55 52.5866 110.035C52.7606 109.36 52.5576 108.645 52.0563 108.16C51.5549 107.677 50.8319 107.499 50.1648 107.698C49.4957 107.895 48.986 108.436 48.8286 109.115C48.4308 110.878 47.4571 112.461 46.0629 113.611C45.4517 114.104 44.7846 114.52 44.0761 114.854C39.6696 116.971 32.8828 116.822 29.8063 113.232C27.5938 110.592 27.3866 106.809 29.3008 103.946C29.6033 103.476 29.6862 102.896 29.5287 102.357C29.3713 101.819 28.988 101.375 28.4784 101.143C22.6797 98.4854 21.3476 94.8661 22.0333 92.3635C22.9615 88.9846 27.109 86.4654 27.8279 86.1464C28.3748 85.9144 28.785 85.4462 28.9404 84.8723C29.0957 84.3005 28.9818 83.6873 28.6275 83.2108C26.848 80.8843 26.1809 77.8928 26.8003 75.0297C27.513 71.5783 29.8705 68.4749 33.2702 66.5089C33.7052 66.2582 34.1548 66.0282 34.6126 65.8231C41.2524 62.8461 49.5951 64.8039 53.6017 70.2814C54.2315 71.1432 55.4435 71.3297 56.3053 70.6999C57.1671 70.0701 57.3556 68.8582 56.7238 67.9984C54.2378 64.6008 50.4113 62.1583 45.951 61.1204C42.4353 60.2959 38.7622 60.4077 35.3025 61.4457C35.1699 59.6681 35.5138 58.1392 36.3301 56.8879C38.2008 54.0207 42.0231 53.306 42.0521 53.2998C42.7254 53.1838 43.2889 52.7218 43.5333 52.0837C43.7778 51.4456 43.668 50.7267 43.2433 50.1902C42.4975 49.2703 41.934 48.2159 41.5818 47.0847C40.5563 43.6913 41.4409 38.9906 45.1203 36.5709C47.0138 35.3175 49.2263 34.6297 51.4969 34.5841C55.0871 34.5158 58.7022 36.0613 61.673 38.9409C62.4416 39.6846 63.6639 39.666 64.4077 38.8974C65.1514 38.1309 65.1328 36.9065 64.3642 36.1628C61.2338 33.1298 57.4799 31.2819 53.608 30.8282C54.4429 27.0826 57.627 24.0227 61.758 23.2292C65.4083 22.5269 69.4937 23.6622 71.9735 26.0074V84.0063ZM106.637 102.094C107.942 100.976 109.904 101.127 111.021 102.432C112.137 103.735 111.986 105.699 110.683 106.816C109.38 107.932 107.416 107.781 106.299 106.478C105.183 105.175 105.334 103.213 106.637 102.094Z" fill="white"/>
</g>
<defs>
<filter id="filter0_d_1_12086" x="-6.07224" y="-6.61563" width="157.624" height="157.624" filterUnits="userSpaceOnUse" color-interpolation-filters="sRGB">
<feFlood flood-opacity="0" result="BackgroundImageFix"/>
<feColorMatrix in="SourceAlpha" type="matrix" values="0 0 0 0 0 0 0 0 0 0 0 0 0 0 0 0 0 0 127 0" result="hardAlpha"/>
<feOffset/>
<feGaussianBlur stdDeviation="3.30782"/>
<feComposite in2="hardAlpha" operator="out"/>
<feColorMatrix type="matrix" values="0 0 0 0 0.623529 0 0 0 0 0.917647 0 0 0 0 0.0941176 0 0 0 1 0"/>
<feBlend mode="normal" in2="BackgroundImageFix" result="effect1_dropShadow_1_12086"/>
<feBlend mode="normal" in="SourceGraphic" in2="effect1_dropShadow_1_12086" result="shape"/>
</filter>
</defs>
</svg>
