<svg width="111" height="107" viewBox="0 0 111 107" fill="none" xmlns="http://www.w3.org/2000/svg">
<path d="M47.2835 30.1377C46.5294 30.3718 45.7338 30.4298 44.9549 30.3034C42.6657 29.8953 40.8177 27.6185 40.3557 24.6373C40.1817 23.5911 39.1976 22.8826 38.1514 23.0442C37.1052 23.2058 36.3843 24.1816 36.5335 25.2298C36.8173 27.1503 37.5672 28.9713 38.717 30.5354C37.851 31.1134 37.2067 31.9711 36.8981 32.9655C36.664 33.7921 36.695 34.6705 36.983 35.4805C37.2068 36.1373 37.762 36.6241 38.4436 36.7567C39.1231 36.8893 39.8233 36.649 40.277 36.1248C40.7307 35.6007 40.8674 34.8735 40.6395 34.2189C40.6168 34.165 40.6064 34.107 40.6126 34.049C40.654 33.9061 41.0539 33.5 41.9198 33.2991C43.0966 33.9185 44.4079 34.2396 45.74 34.2396C46.6288 34.2355 47.5134 34.1049 48.3669 33.8522C49.3924 33.5539 49.9829 32.4807 49.6845 31.4553C49.3821 30.4298 48.3089 29.8393 47.2835 30.1377Z" fill="white"/>
<path d="M40.6809 70.8297C40.0345 69.9803 38.8205 69.8146 37.9711 70.463C37.2274 71.0286 35.2261 72.3255 32.7049 72.1867C31.7333 72.1266 30.7844 71.8759 29.9123 71.445C29.7444 71.3124 29.5539 71.2088 29.3508 71.1384C27.3682 69.9596 25.976 67.9998 25.5099 65.7416C25.2841 64.7017 24.2628 64.0387 23.2228 64.2583C22.1828 64.4779 21.5136 65.4951 21.7249 66.5372C22.1559 68.5964 23.115 70.5086 24.5051 72.0872C23.3388 72.7792 22.4521 73.8606 22.0046 75.1409C21.3189 77.2022 21.9943 79.4645 23.7738 81.0452C24.2876 81.5134 25.0148 81.6688 25.6757 81.4513C26.3386 81.2337 26.8317 80.6785 26.9705 79.9969C27.1093 79.3133 26.8689 78.611 26.3427 78.1552C25.7399 77.6207 25.4851 76.935 25.6736 76.3653C25.9077 75.6609 26.8855 74.971 28.1741 74.9006C29.5207 75.5697 30.9895 75.9613 32.4915 76.0504C32.6966 76.0607 32.8996 76.0669 33.1006 76.0669C36.4733 76.0669 39.0443 74.509 40.3142 73.5436C41.1636 72.8931 41.3273 71.6791 40.6809 70.8297Z" fill="white"/>
<path d="M41.3231 79.9786C40.3142 79.6306 39.2121 80.1672 38.8661 81.1761C38.518 82.1871 39.0546 83.2871 40.0635 83.6352C42.5019 84.4763 43.9604 85.5971 43.8692 86.5542C43.8071 87.2171 43.5999 87.8324 43.3451 88.1204C42.6386 88.9221 42.7153 90.1444 43.517 90.8509C44.3188 91.5573 45.5411 91.4807 46.2475 90.6789C47.3331 89.4483 47.6376 87.7993 47.7225 86.9209C47.88 85.2055 47.2647 82.0234 41.3231 79.9786Z" fill="white"/>
<path d="M88.2697 55.1265C89.2413 58.7892 92.7797 61.1634 96.5357 60.6724C100.294 60.1834 103.105 56.9827 103.105 53.1915C103.105 49.4003 100.294 46.2016 96.5357 45.7106C92.7777 45.2196 89.2392 47.5938 88.2697 51.2565H58.8413L58.8413 34.0968H76.6061C77.6999 34.0843 78.5928 33.2142 78.6322 32.1204V22.7335H95.6076C95.9639 23.9993 96.6393 25.1512 97.5674 26.0793C99.7261 28.2504 102.981 28.903 105.811 27.7367C108.641 26.5682 110.486 23.8087 110.486 20.7489C110.486 17.6869 108.643 14.9274 105.813 13.759C102.983 12.5906 99.7282 13.2431 97.5695 15.4122C96.5875 16.3444 95.9059 17.544 95.6076 18.8636H76.6061C76.113 18.8429 75.6344 19.0273 75.2864 19.3753C74.9363 19.7234 74.7477 20.1999 74.7643 20.6909V30.2248L58.8413 30.2248V6.23047C58.8413 5.75398 58.6652 5.29406 58.3483 4.93981C55.0336 1.23977 49.2784 -0.568814 44.0267 0.440098C38.0561 1.58367 33.5232 6.24704 32.6676 11.8572C30.281 12.17 27.998 13.0215 25.9906 14.3473C20.484 17.9707 19.4792 24.5918 20.8776 29.2117C21.0972 29.9368 21.3831 30.6391 21.7291 31.3124C19.9474 32.0499 17.6624 33.3924 16.1127 35.7437C14.588 38.0578 14.0804 40.838 14.5942 44.0201C14.5072 44.0678 14.416 44.1175 14.3311 44.1693C9.98054 46.6843 6.94759 50.7241 6.01118 55.2528C5.3296 58.4702 5.8123 61.8242 7.37435 64.7184C5.26745 66.1541 2.27593 68.81 1.30431 72.3463C0.0447184 76.931 2.67162 81.6441 8.05801 84.7371C6.32401 88.7603 7.02631 93.4195 9.86867 96.7529C11.9155 99.1415 15.1204 100.66 18.8909 101.027C19.4854 101.085 20.0862 101.114 20.6891 101.114C23.0715 101.116 25.4353 100.677 27.6583 99.819C29.4523 100.979 31.5054 101.675 33.6351 101.841C35.8746 102 38.1182 101.582 40.1505 100.623C42.0275 103.848 44.4679 105.74 47.2896 106.129C47.7764 106.196 48.2674 106.231 48.7584 106.231C53.6435 106.231 57.2461 102.898 58.3048 101.793C58.6487 101.433 58.8393 100.954 58.8393 100.457V76.1582H70.2004L70.2004 85.6922C70.1838 86.1852 70.3723 86.6617 70.7225 87.0077C71.0726 87.3536 71.5511 87.5401 72.0421 87.5194L84.1574 87.5194C84.4557 88.8391 85.1373 90.0406 86.1172 90.9729C89.0611 93.9023 93.8218 93.894 96.7532 90.9542C99.6867 88.0166 99.6867 83.2558 96.7532 80.3182C93.8197 77.3785 89.0611 77.3702 86.1172 80.2995C85.187 81.2297 84.5137 82.3837 84.1574 83.6515L74.0682 83.6515L74.0682 74.2647C74.0289 73.1709 73.1381 72.3008 72.0421 72.2904H58.8372V55.1265H88.2697ZM92.962 50.5936C94.203 49.3506 96.1483 49.1559 97.6109 50.1316C99.0714 51.1053 99.6412 52.9781 98.9699 54.6003C98.2987 56.2245 96.5751 57.1464 94.8514 56.8025C93.1298 56.4606 91.8889 54.9483 91.8889 53.1936C91.8827 52.2178 92.2701 51.2814 92.962 50.5936ZM100.302 18.093C101.738 16.6573 104.066 16.6573 105.502 18.093C106.938 19.5286 106.938 21.8551 105.502 23.2929C104.066 24.7286 101.74 24.7286 100.302 23.2929V23.2908C98.8664 21.8551 98.8664 19.5286 100.302 18.093ZM54.9735 65.0063C53.9024 64.186 52.7195 63.5209 51.4661 63.0237C50.4696 62.6405 49.3509 63.1418 48.9677 64.1383C48.5865 65.1348 49.0857 66.2535 50.0843 66.6347C50.4986 66.7942 54.151 68.2672 54.8222 71.1323C54.8554 71.2773 54.9093 71.4182 54.9735 71.5508V99.6325C53.7823 100.706 51.0456 102.74 47.8179 102.295C45.2407 101.938 43.5212 98.9344 42.7236 97.1734C42.4916 96.6617 42.0503 96.2764 41.5096 96.1148C40.9709 95.9553 40.3888 96.0382 39.9164 96.3427C38.0022 97.5712 35.9326 98.1389 33.9355 97.9793C33.1545 97.9172 32.3838 97.7535 31.6463 97.4883C33.6144 95.8124 34.9962 93.5501 35.5866 91.035C35.7606 90.3597 35.5576 89.6449 35.0563 89.1602C34.5549 88.6775 33.8319 88.4993 33.1648 88.6982C32.4957 88.895 31.986 89.4357 31.8286 90.1152C31.4308 91.8782 30.4571 93.461 29.0629 94.6108C28.4517 95.1038 27.7846 95.5202 27.0761 95.8538C22.6696 97.971 15.8828 97.8219 12.8063 94.2317C10.5938 91.5923 10.3866 87.8094 12.3008 84.9463C12.6033 84.4761 12.6862 83.896 12.5287 83.3574C12.3713 82.8187 11.988 82.3754 11.4784 82.1433C5.67971 79.4854 4.34762 75.8661 5.03335 73.3635C5.96146 69.9846 10.109 67.4654 10.8279 67.1464C11.3748 66.9144 11.785 66.4462 11.9404 65.8723C12.0957 65.3005 11.9818 64.6873 11.6275 64.2108C9.84795 61.8843 9.18087 58.8928 9.8003 56.0297C10.513 52.5783 12.8705 49.4749 16.2702 47.5089C16.7052 47.2582 17.1548 47.0282 17.6126 46.8231C24.2524 43.8461 32.5951 45.8039 36.6017 51.2814C37.2315 52.1432 38.4435 52.3297 39.3053 51.6999C40.1671 51.0701 40.3556 49.8582 39.7238 48.9984C37.2378 45.6008 33.4113 43.1583 28.951 42.1204C25.4353 41.2959 21.7622 41.4077 18.3025 42.4457C18.1699 40.6681 18.5138 39.1392 19.3301 37.8879C21.2008 35.0207 25.0231 34.306 25.0521 34.2998C25.7254 34.1838 26.2889 33.7218 26.5333 33.0837C26.7778 32.4456 26.668 31.7267 26.2433 31.1902C25.4975 30.2703 24.934 29.2159 24.5818 28.0847C23.5563 24.6913 24.4409 19.9906 28.1203 17.5709C30.0138 16.3175 32.2263 15.6297 34.4969 15.5841C38.0871 15.5158 41.7022 17.0613 44.673 19.9409C45.4416 20.6846 46.6639 20.666 47.4077 19.8974C48.1514 19.1309 48.1328 17.9065 47.3642 17.1628C44.2338 14.1298 40.4799 12.2819 36.608 11.8282C37.4429 8.08256 40.627 5.02267 44.758 4.22922C48.4083 3.52691 52.4937 4.6622 54.9735 7.00735L54.9735 65.0063ZM89.637 83.0943C90.9421 81.9755 92.904 82.1268 94.0207 83.4319C95.1373 84.735 94.9861 86.699 93.683 87.8156C92.3799 88.9323 90.4159 88.781 89.2993 87.478C88.1827 86.1749 88.3339 84.213 89.637 83.0943Z" fill="white"/>
</svg>
