<svg width="45" height="45" viewBox="0 0 45 45" fill="none" xmlns="http://www.w3.org/2000/svg">
<mask id="path-1-outside-1_1_12142" maskUnits="userSpaceOnUse" x="-0.522156" y="-0.40625" width="46" height="46" fill="black">
<rect fill="white" x="-0.522156" y="-0.40625" width="46" height="46"/>
<path fill-rule="evenodd" clip-rule="evenodd" d="M36.9369 1.75194C39.8956 2.89303 42.2327 5.22897 43.3805 8.18308C44.0364 9.91305 44.379 11.7481 44.4108 13.6002C44.5478 15.9386 44.5478 16.6961 44.5478 22.6654C44.5478 28.6347 44.516 29.38 44.4108 31.7306C44.3741 33.5583 44.029 35.3615 43.3854 37.0719C42.2376 40.0261 39.9005 42.3596 36.9418 43.5056C35.2287 44.1458 33.4202 44.4927 31.5921 44.5293C29.255 44.6637 28.4891 44.6637 22.5134 44.6637H22.5129C16.5366 44.6637 15.7902 44.632 13.4336 44.5293C11.5981 44.4707 9.78963 44.0944 8.08633 43.4298C5.12516 42.2863 2.78804 39.9503 1.64029 36.9986C0.996661 35.2858 0.651598 33.4825 0.61489 31.6548C0.477844 29.3165 0.477844 28.5565 0.477844 22.5897C0.477844 16.6203 0.509659 15.8751 0.61489 13.5245C0.651598 11.6968 0.996661 9.89348 1.64029 8.18308C2.7856 5.22897 5.12271 2.89303 8.08386 1.75194C9.79452 1.10687 11.603 0.762347 13.4287 0.725696C15.7658 0.59375 16.5317 0.59375 22.508 0.59375C28.4841 0.59375 29.2305 0.623071 31.5872 0.725696C33.4178 0.764791 35.2263 1.10932 36.9369 1.75194ZM39.6387 35.5985C40.1281 34.2767 40.3826 32.8815 40.3997 31.474V31.4764H40.4267C40.5319 29.1405 40.5319 28.5003 40.5319 22.5481C40.5319 16.5934 40.505 15.941 40.3997 13.6173C40.3777 12.2246 40.1183 10.844 39.6387 9.5392C38.8923 7.61619 37.3725 6.09637 35.449 5.35603C34.1397 4.86978 32.7594 4.61322 31.3621 4.59612C28.9956 4.46172 28.3838 4.46172 22.4198 4.46172C16.4559 4.46172 15.8025 4.49105 13.4752 4.59612C12.0827 4.61566 10.6975 4.87223 9.39069 5.35603C7.45984 6.09395 5.93029 7.6113 5.1839 9.5392C4.69444 10.8611 4.43993 12.2539 4.4228 13.6613C4.2931 16.029 4.2931 16.6374 4.2931 22.5921V22.5921C4.2931 28.5443 4.31757 29.1991 4.4228 31.5205C4.44483 32.9132 4.70424 34.2937 5.1839 35.5985C5.93029 37.524 7.45984 39.0438 9.39069 39.7793C10.6975 40.2655 12.0827 40.5221 13.4752 40.5392C15.8441 40.6736 16.4534 40.6736 22.4198 40.6736C28.3813 40.6736 29.0372 40.6467 31.3621 40.5392C32.7594 40.5196 34.1397 40.2655 35.449 39.7793C37.3725 39.0414 38.8923 37.5215 39.6387 35.5985ZM34.2595 13.4946C35.7165 13.4946 36.8977 12.3153 36.8977 10.8606C36.8977 9.40586 35.7165 8.22656 34.2595 8.22656C32.8025 8.22656 31.6214 9.40586 31.6214 10.8606C31.6214 12.3153 32.8025 13.4946 34.2595 13.4946ZM22.4956 11.2773C16.2453 11.2773 11.1819 16.3353 11.1819 22.5734C11.1819 28.814 16.2453 33.8719 22.4956 33.8719C28.7409 33.8719 33.8092 28.814 33.8092 22.5734C33.8092 16.3353 28.7409 11.2773 22.4956 11.2773ZM22.4956 29.9135C18.4356 29.9135 15.1441 26.6271 15.1441 22.5759C15.1441 18.5222 18.4356 15.2382 22.4956 15.2382C26.5555 15.2382 29.8422 18.5222 29.8422 22.5759C29.8422 26.6271 26.5555 29.9135 22.4956 29.9135Z"/>
</mask>
<path fill-rule="evenodd" clip-rule="evenodd" d="M36.9369 1.75194C39.8956 2.89303 42.2327 5.22897 43.3805 8.18308C44.0364 9.91305 44.379 11.7481 44.4108 13.6002C44.5478 15.9386 44.5478 16.6961 44.5478 22.6654C44.5478 28.6347 44.516 29.38 44.4108 31.7306C44.3741 33.5583 44.029 35.3615 43.3854 37.0719C42.2376 40.0261 39.9005 42.3596 36.9418 43.5056C35.2287 44.1458 33.4202 44.4927 31.5921 44.5293C29.255 44.6637 28.4891 44.6637 22.5134 44.6637H22.5129C16.5366 44.6637 15.7902 44.632 13.4336 44.5293C11.5981 44.4707 9.78963 44.0944 8.08633 43.4298C5.12516 42.2863 2.78804 39.9503 1.64029 36.9986C0.996661 35.2858 0.651598 33.4825 0.61489 31.6548C0.477844 29.3165 0.477844 28.5565 0.477844 22.5897C0.477844 16.6203 0.509659 15.8751 0.61489 13.5245C0.651598 11.6968 0.996661 9.89348 1.64029 8.18308C2.7856 5.22897 5.12271 2.89303 8.08386 1.75194C9.79452 1.10687 11.603 0.762347 13.4287 0.725696C15.7658 0.59375 16.5317 0.59375 22.508 0.59375C28.4841 0.59375 29.2305 0.623071 31.5872 0.725696C33.4178 0.764791 35.2263 1.10932 36.9369 1.75194ZM39.6387 35.5985C40.1281 34.2767 40.3826 32.8815 40.3997 31.474V31.4764H40.4267C40.5319 29.1405 40.5319 28.5003 40.5319 22.5481C40.5319 16.5934 40.505 15.941 40.3997 13.6173C40.3777 12.2246 40.1183 10.844 39.6387 9.5392C38.8923 7.61619 37.3725 6.09637 35.449 5.35603C34.1397 4.86978 32.7594 4.61322 31.3621 4.59612C28.9956 4.46172 28.3838 4.46172 22.4198 4.46172C16.4559 4.46172 15.8025 4.49105 13.4752 4.59612C12.0827 4.61566 10.6975 4.87223 9.39069 5.35603C7.45984 6.09395 5.93029 7.6113 5.1839 9.5392C4.69444 10.8611 4.43993 12.2539 4.4228 13.6613C4.2931 16.029 4.2931 16.6374 4.2931 22.5921V22.5921C4.2931 28.5443 4.31757 29.1991 4.4228 31.5205C4.44483 32.9132 4.70424 34.2937 5.1839 35.5985C5.93029 37.524 7.45984 39.0438 9.39069 39.7793C10.6975 40.2655 12.0827 40.5221 13.4752 40.5392C15.8441 40.6736 16.4534 40.6736 22.4198 40.6736C28.3813 40.6736 29.0372 40.6467 31.3621 40.5392C32.7594 40.5196 34.1397 40.2655 35.449 39.7793C37.3725 39.0414 38.8923 37.5215 39.6387 35.5985ZM34.2595 13.4946C35.7165 13.4946 36.8977 12.3153 36.8977 10.8606C36.8977 9.40586 35.7165 8.22656 34.2595 8.22656C32.8025 8.22656 31.6214 9.40586 31.6214 10.8606C31.6214 12.3153 32.8025 13.4946 34.2595 13.4946ZM22.4956 11.2773C16.2453 11.2773 11.1819 16.3353 11.1819 22.5734C11.1819 28.814 16.2453 33.8719 22.4956 33.8719C28.7409 33.8719 33.8092 28.814 33.8092 22.5734C33.8092 16.3353 28.7409 11.2773 22.4956 11.2773ZM22.4956 29.9135C18.4356 29.9135 15.1441 26.6271 15.1441 22.5759C15.1441 18.5222 18.4356 15.2382 22.4956 15.2382C26.5555 15.2382 29.8422 18.5222 29.8422 22.5759C29.8422 26.6271 26.5555 29.9135 22.4956 29.9135Z" fill="white"/>
<path d="M43.3805 8.18308L43.661 8.07673L43.6601 8.07444L43.3805 8.18308ZM36.9369 1.75194L37.0449 1.47203L37.0424 1.4711L36.9369 1.75194ZM44.4108 13.6002L44.1106 13.6054L44.1113 13.6178L44.4108 13.6002ZM44.4108 31.7306L44.111 31.7172L44.1109 31.7246L44.4108 31.7306ZM43.3854 37.0719L43.665 37.1806L43.6661 37.1776L43.3854 37.0719ZM36.9418 43.5056L37.0468 43.7866L37.0501 43.7853L36.9418 43.5056ZM31.5921 44.5293L31.5861 44.2292L31.5749 44.2298L31.5921 44.5293ZM13.4336 44.5293L13.4466 44.2296L13.4432 44.2295L13.4336 44.5293ZM8.08633 43.4298L8.19538 43.1503L8.1944 43.1499L8.08633 43.4298ZM1.64029 36.9986L1.35944 37.1042L1.36068 37.1073L1.64029 36.9986ZM0.61489 31.6548L0.915052 31.6488L0.914376 31.6373L0.61489 31.6548ZM0.61489 13.5245L0.914681 13.5379L0.91483 13.5305L0.61489 13.5245ZM1.64029 8.18308L1.36056 8.07463L1.35951 8.07743L1.64029 8.18308ZM8.08386 1.75194L7.978 1.47123L7.97598 1.47201L8.08386 1.75194ZM13.4287 0.725696L13.4347 1.02583L13.4456 1.02522L13.4287 0.725696ZM31.5872 0.725696L31.5742 1.02549L31.5808 1.02563L31.5872 0.725696ZM40.3997 31.474H40.6997L40.0998 31.4704L40.3997 31.474ZM39.6387 35.5985L39.9184 35.7071L39.92 35.7027L39.6387 35.5985ZM40.3997 31.4764H40.0997V31.7764H40.3997V31.4764ZM40.4267 31.4764V31.7764H40.7134L40.7264 31.4899L40.4267 31.4764ZM40.3997 13.6173L40.0996 13.622L40.1 13.6309L40.3997 13.6173ZM39.6387 9.5392L39.9203 9.43567L39.9183 9.43065L39.6387 9.5392ZM35.449 5.35603L35.5567 5.07603L35.5534 5.0748L35.449 5.35603ZM31.3621 4.59612L31.345 4.89593L31.3584 4.89609L31.3621 4.59612ZM13.4752 4.59612L13.4794 4.89623L13.4887 4.89581L13.4752 4.59612ZM9.39069 5.35603L9.28653 5.07467L9.28359 5.0758L9.39069 5.35603ZM5.1839 9.5392L4.9041 9.43088L4.90256 9.43503L5.1839 9.5392ZM4.4228 13.6613L4.72262 13.6777L4.72278 13.665L4.4228 13.6613ZM4.4228 31.5205L4.72289 31.5157L4.72249 31.5069L4.4228 31.5205ZM5.1839 35.5985L4.90228 35.7021L4.90418 35.707L5.1839 35.5985ZM9.39069 39.7793L9.2839 40.0596L9.28607 40.0604L9.39069 39.7793ZM13.4752 40.5392L13.4922 40.2394L13.4789 40.2392L13.4752 40.5392ZM31.3621 40.5392L31.3578 40.2391L31.3482 40.2395L31.3621 40.5392ZM35.449 39.7793L35.5534 40.0605L35.5564 40.0594L35.449 39.7793ZM43.6601 8.07444C42.4819 5.04181 40.0825 2.64358 37.0449 1.47204L36.829 2.03185C39.7087 3.14248 41.9836 5.41612 43.1008 8.29173L43.6601 8.07444ZM44.7108 13.595C44.6784 11.7094 44.3295 9.84006 43.661 8.07673L43.1 8.28944C43.7432 9.98603 44.0796 11.7867 44.1108 13.6054L44.7108 13.595ZM44.8478 22.6654C44.8478 16.6979 44.8479 15.9314 44.7103 13.5826L44.1113 13.6178C44.2478 15.9458 44.2478 16.6942 44.2478 22.6654H44.8478ZM44.7105 31.744C44.816 29.3871 44.8478 28.6369 44.8478 22.6654H44.2478C44.2478 28.6326 44.216 29.3729 44.1111 31.7172L44.7105 31.744ZM43.6661 37.1776C44.3218 35.4351 44.6733 33.5981 44.7107 31.7366L44.1109 31.7246C44.0748 33.5184 43.7362 35.2879 43.1046 36.9663L43.6661 37.1776ZM37.0501 43.7853C40.0874 42.6089 42.4867 40.2134 43.665 37.1806L43.1057 36.9633C41.9885 39.8388 39.7137 42.1102 36.8334 43.2258L37.0501 43.7853ZM31.5981 44.8293C33.4602 44.7919 35.3022 44.4386 37.0468 43.7866L36.8368 43.2245C35.1553 43.8529 33.3802 44.1934 31.5861 44.2294L31.5981 44.8293ZM22.5134 44.9637C28.4872 44.9637 29.2621 44.9638 31.6094 44.8288L31.5749 44.2298C29.248 44.3636 28.4909 44.3637 22.5134 44.3637V44.9637ZM22.5129 44.9637H22.5134V44.3637H22.5129V44.9637ZM13.4205 44.829C15.7833 44.9319 16.5344 44.9637 22.5129 44.9637V44.3637C16.5388 44.3637 15.7972 44.332 13.4466 44.2296L13.4205 44.829ZM7.97727 43.7093C9.71181 44.3861 11.5539 44.7694 13.424 44.8292L13.4432 44.2295C11.6423 44.1719 9.86746 43.8028 8.19538 43.1503L7.97727 43.7093ZM1.36068 37.1073C2.53897 40.1376 4.93829 42.5357 7.97826 43.7096L8.1944 43.1499C5.31203 42.0368 3.03711 39.7631 1.91989 36.8899L1.36068 37.1073ZM0.314951 31.6608C0.352339 33.5224 0.703823 35.3594 1.35946 37.1041L1.92111 36.8931C1.2895 35.2122 0.950857 33.4426 0.91483 31.6488L0.314951 31.6608ZM0.177844 22.5897C0.177844 28.5546 0.177751 29.3237 0.315404 31.6724L0.914376 31.6373C0.777938 29.3093 0.777844 28.5584 0.777844 22.5897H0.177844ZM0.31519 13.5111C0.209677 15.8679 0.177844 16.6181 0.177844 22.5897H0.777844C0.777844 16.6225 0.80964 15.8822 0.91459 13.5379L0.31519 13.5111ZM1.35951 8.07743C0.703817 9.81989 0.352339 11.6569 0.314951 13.5185L0.91483 13.5305C0.950858 11.7366 1.28951 9.96708 1.92107 8.28874L1.35951 8.07743ZM7.97598 1.47201C4.93586 2.64353 2.5364 5.0418 1.36057 8.07464L1.92 8.29153C3.03479 5.41613 5.30957 3.14253 8.19173 2.03188L7.97598 1.47201ZM13.4227 0.425756C11.5633 0.463085 9.72099 0.81398 7.97801 1.47124L8.18971 2.03265C9.86805 1.39977 11.6427 1.06161 13.4347 1.02564L13.4227 0.425756ZM22.508 0.29375C16.5336 0.29375 15.7589 0.293663 13.4118 0.426173L13.4456 1.02522C15.7727 0.893837 16.5299 0.89375 22.508 0.89375V0.29375ZM31.6003 0.42598C29.2373 0.323084 28.4861 0.29375 22.508 0.29375V0.89375C28.4822 0.89375 29.2237 0.923058 31.5742 1.02541L31.6003 0.42598ZM37.0424 1.4711C35.2996 0.816401 33.4576 0.465573 31.5936 0.425764L31.5808 1.02563C33.3779 1.06401 35.1529 1.40223 36.8314 2.03278L37.0424 1.4711ZM40.0998 31.4704C40.0831 32.8441 39.8347 34.2052 39.3573 35.4944L39.92 35.7027C40.4216 34.3481 40.6822 32.9189 40.6997 31.4777L40.0998 31.4704ZM40.6997 31.4764V31.474H40.0997V31.4764H40.6997ZM40.4267 31.1764H40.3997V31.7764H40.4267V31.1764ZM40.2319 22.5481C40.2319 28.5016 40.2318 29.1349 40.127 31.4629L40.7264 31.4899C40.8319 29.1461 40.8319 28.499 40.8319 22.5481H40.2319ZM40.1 13.6309C40.205 15.948 40.2319 16.5952 40.2319 22.5481H40.8319C40.8319 16.5916 40.805 15.9341 40.6994 13.6037L40.1 13.6309ZM39.3571 9.64272C39.8252 10.9161 40.0783 12.2633 40.0998 13.622L40.6997 13.6125C40.6771 12.1858 40.4114 10.7719 39.9202 9.43569L39.3571 9.64272ZM35.3412 5.63601C37.1855 6.34585 38.643 7.80321 39.359 9.64776L39.9183 9.43065C39.1415 7.42918 37.5595 5.84689 35.5567 5.07605L35.3412 5.63601ZM31.3584 4.89609C32.7214 4.91277 34.0676 5.16301 35.3445 5.63726L35.5534 5.0748C34.2118 4.57655 32.7975 4.31366 31.3657 4.29614L31.3584 4.89609ZM22.4198 4.76172C28.3853 4.76172 28.9885 4.76181 31.345 4.89563L31.3791 4.2966C29.0027 4.16164 28.3823 4.16172 22.4198 4.16172V4.76172ZM13.4887 4.89581C15.8096 4.79103 16.458 4.76172 22.4198 4.76172V4.16172C16.4539 4.16172 15.7954 4.19106 13.4616 4.29642L13.4887 4.89581ZM9.49485 5.63737C10.7695 5.16549 12.1208 4.91516 13.4794 4.89609L13.471 4.29615C12.0446 4.31617 10.6256 4.57896 9.28654 5.07469L9.49485 5.63737ZM5.46366 9.64752C6.17925 7.79916 7.64582 6.34404 9.49779 5.63626L9.28359 5.0758C7.27385 5.84387 5.68132 7.42345 4.90413 9.43089L5.46366 9.64752ZM4.72278 13.665C4.7395 12.2913 4.98788 10.9326 5.46523 9.64337L4.90256 9.43503C4.40101 10.7896 4.14037 12.2164 4.12282 13.6577L4.72278 13.665ZM4.5931 22.5921C4.5931 16.636 4.59317 16.0358 4.72235 13.6777L4.12325 13.6449C3.99302 16.0222 3.9931 16.6388 3.9931 22.5921H4.5931ZM4.5931 22.5921V22.5921H3.9931V22.5921H4.5931ZM4.72249 31.5069C4.61757 29.1923 4.5931 28.5428 4.5931 22.5921H3.9931C3.9931 28.5459 4.01757 29.206 4.12311 31.534L4.72249 31.5069ZM5.46547 35.495C4.99734 34.2216 4.74425 32.8744 4.72276 31.5157L4.12284 31.5252C4.1454 32.952 4.41113 34.3659 4.90232 35.702L5.46547 35.495ZM9.49748 39.4989C7.64593 38.7936 6.17927 37.3362 5.46361 35.4901L4.90418 35.707C5.6813 37.7117 7.27374 39.2939 9.2839 40.0596L9.49748 39.4989ZM13.4789 40.2392C12.1206 40.2225 10.7696 39.9723 9.49531 39.4981L9.28607 40.0604C10.6254 40.5588 12.0447 40.8216 13.4715 40.8392L13.4789 40.2392ZM22.4198 40.3736C16.452 40.3736 15.8512 40.3735 13.4922 40.2397L13.4582 40.8387C15.837 40.9737 16.4549 40.9736 22.4198 40.9736V40.3736ZM31.3482 40.2395C29.0301 40.3467 28.3796 40.3736 22.4198 40.3736V40.9736C28.3831 40.9736 29.0443 40.9467 31.3759 40.8389L31.3482 40.2395ZM35.3445 39.498C34.0679 39.9722 32.7216 40.2202 31.3579 40.2392L31.3663 40.8392C32.7973 40.8191 34.2115 40.5589 35.5534 40.0605L35.3445 39.498ZM39.359 35.49C38.643 37.3346 37.1855 38.7918 35.3415 39.4992L35.5564 40.0594C37.5595 39.291 39.1415 37.7085 39.9183 35.7071L39.359 35.49ZM36.5977 10.8606C36.5977 12.1492 35.5513 13.1946 34.2595 13.1946V13.7946C35.8818 13.7946 37.1977 12.4815 37.1977 10.8606H36.5977ZM34.2595 8.52656C35.5513 8.52656 36.5977 9.57199 36.5977 10.8606H37.1977C37.1977 9.23974 35.8818 7.92656 34.2595 7.92656V8.52656ZM31.9214 10.8606C31.9214 9.57199 32.9678 8.52656 34.2595 8.52656V7.92656C32.6373 7.92656 31.3214 9.23974 31.3214 10.8606H31.9214ZM34.2595 13.1946C32.9678 13.1946 31.9214 12.1492 31.9214 10.8606H31.3214C31.3214 12.4815 32.6373 13.7946 34.2595 13.7946V13.1946ZM11.4819 22.5734C11.4819 16.5014 16.4106 11.5773 22.4956 11.5773V10.9773C16.08 10.9773 10.8819 16.1692 10.8819 22.5734H11.4819ZM22.4956 33.5719C16.4106 33.5719 11.4819 28.6479 11.4819 22.5734H10.8819C10.8819 28.98 16.08 34.1719 22.4956 34.1719V33.5719ZM33.5092 22.5734C33.5092 28.6478 28.5757 33.5719 22.4956 33.5719V34.1719C28.9062 34.1719 34.1092 28.9801 34.1092 22.5734H33.5092ZM22.4956 11.5773C28.5757 11.5773 33.5092 16.5015 33.5092 22.5734H34.1092C34.1092 16.1691 28.9061 10.9773 22.4956 10.9773V11.5773ZM14.8441 22.5759C14.8441 26.7933 18.2704 30.2135 22.4956 30.2135V29.6135C18.6008 29.6135 15.4441 26.4609 15.4441 22.5759H14.8441ZM22.4956 14.9382C18.2705 14.9382 14.8441 18.3559 14.8441 22.5759H15.4441C15.4441 18.6884 18.6007 15.5382 22.4956 15.5382V14.9382ZM30.1422 22.5759C30.1422 18.3562 26.7209 14.9382 22.4956 14.9382V15.5382C26.3902 15.5382 29.5422 18.6882 29.5422 22.5759H30.1422ZM22.4956 30.2135C26.721 30.2135 30.1422 26.793 30.1422 22.5759H29.5422C29.5422 26.4612 26.3901 29.6135 22.4956 29.6135V30.2135Z" fill="url(#paint0_radial_1_12142)" mask="url(#path-1-outside-1_1_12142)"/>
<defs>
<radialGradient id="paint0_radial_1_12142" cx="0" cy="0" r="1" gradientUnits="userSpaceOnUse" gradientTransform="translate(1.2797 40.6289) rotate(-3.0007) scale(63.7147 54.1678)">
<stop stop-color="#FED576"/>
<stop offset="0.2634" stop-color="#F47133"/>
<stop offset="0.6091" stop-color="#BC3081"/>
<stop offset="1" stop-color="#4C63D2"/>
</radialGradient>
</defs>
</svg>
