<svg width="145" height="145" viewBox="0 0 145 145" fill="none" xmlns="http://www.w3.org/2000/svg">
<path d="M98.278 37.1292L90.2761 45.1311L78.3125 33.1675C80.788 29.2763 79.6393 24.1142 75.748 21.6387C71.8568 19.1632 66.6947 20.3119 64.2192 24.2032C61.7437 28.0944 62.8924 33.2565 66.7837 35.732C69.491 37.4541 72.9476 37.4728 75.6735 35.7797L87.6516 47.7577L47.9442 87.463L35.8937 75.4125C38.3278 71.4943 37.1253 66.3467 33.2071 63.9126C29.2889 61.4785 24.1413 62.6811 21.7072 66.5992C19.2731 70.5174 20.4756 75.665 24.3938 78.0991C27.1198 79.7922 30.5743 79.7736 33.2816 78.0515L45.3176 90.0875L37.3157 98.0894C36.5768 98.8118 36.5561 99.9936 37.266 100.743L60.0278 123.505C60.7853 124.235 61.9817 124.244 62.7496 123.525L123.712 62.5631C124.432 61.7952 124.422 60.5988 123.693 59.8413L100.929 37.0795C100.18 36.3696 98.9983 36.3902 98.278 37.1292ZM67.9862 31.965C66.1751 30.1539 66.1751 27.2168 67.9862 25.4057C69.7973 23.5946 72.7344 23.5946 74.5455 25.4057C76.3566 27.2168 76.3566 30.1539 74.5455 31.965C72.7323 33.774 69.7994 33.774 67.9862 31.965ZM25.5219 74.2844C23.7108 72.4734 23.7108 69.5363 25.5219 67.7252C27.333 65.9141 30.27 65.9141 32.0811 67.7252C33.8922 69.5363 33.8922 72.4734 32.0811 74.2844C30.27 76.0935 27.335 76.0935 25.5219 74.2844ZM72.2293 108.794L62.5488 99.114L99.3005 62.3623L108.981 72.0428L72.2293 108.794ZM119.81 61.2115L111.606 69.4162L100.681 58.4917C99.9566 57.7652 98.7209 57.6887 97.9965 58.4131L58.6017 97.81C57.8772 98.5344 57.9559 99.7701 58.6803 100.495L69.6048 111.419L61.4001 119.624L41.2173 99.441L99.6275 41.0287L119.81 61.2115Z" fill="white"/>
<path d="M76.8244 92.3851L70.9171 98.2924C70.1927 99.0168 70.1927 100.192 70.9171 100.919C71.6415 101.643 72.8172 101.643 73.5416 100.919L79.4489 95.0117C80.1733 94.2873 80.1733 93.1116 79.4489 92.3872C78.7244 91.6607 77.5488 91.6607 76.8244 92.3851Z" fill="white"/>
<path d="M88.8023 80.4071L82.8951 86.3143C82.1706 87.0388 82.1706 88.2144 82.8951 88.9409C83.6195 89.6654 84.7952 89.6654 85.5196 88.9409L91.4269 83.0337C92.1513 82.3092 92.1513 81.1336 91.4269 80.4092C90.7045 79.6826 89.5288 79.6826 88.8023 80.4071Z" fill="white"/>
<path d="M39.9381 59.1043C39.9505 47.7121 49.184 38.4807 60.5762 38.4662C61.6008 38.4662 62.4329 37.6362 62.4329 36.6096C62.4329 35.585 61.6008 34.7529 60.5762 34.7529C47.1328 34.7674 36.2393 45.6629 36.2249 59.1043C36.2249 60.1289 37.0569 60.9609 38.0815 60.9609C39.106 60.9609 39.9381 60.1289 39.9381 59.1043Z" fill="white"/>
<path d="M61.8885 45.2407C62.6129 44.5162 62.6129 43.3406 61.8885 42.6161C61.5408 42.2684 61.0688 42.0718 60.5762 42.0718C51.173 42.0821 43.5541 49.7032 43.5437 59.1043C43.5437 60.1309 44.3737 60.9609 45.4003 60.9609C46.4249 60.9609 47.257 60.1309 47.257 59.1043C47.2652 51.7502 53.2242 45.7912 60.5783 45.783C61.0688 45.785 61.5408 45.5884 61.8885 45.2407Z" fill="white"/>
<path d="M51.8395 59.1044C51.8395 60.1289 52.6716 60.961 53.6962 60.961C54.7228 60.961 55.5528 60.1289 55.5528 59.1044C55.5528 56.3308 57.8006 54.0809 60.5742 54.0809C61.5987 54.0809 62.4308 53.2489 62.4308 52.2243C62.4308 51.1997 61.5987 50.3677 60.5742 50.3677C55.7515 50.3677 51.8416 54.2796 51.8395 59.1044Z" fill="white"/>
</svg>
