<svg width="105" height="105" viewBox="0 0 105 105" fill="none" xmlns="http://www.w3.org/2000/svg">
<path d="M78.278 17.1292L70.2761 25.1311L58.3125 13.1675C60.788 9.27629 59.6393 4.11417 55.748 1.63867C51.8568 -0.836834 46.6947 0.311915 44.2192 4.20317C41.7437 8.09442 42.8924 13.2565 46.7837 15.732C49.491 17.4541 52.9476 17.4728 55.6735 15.7797L67.6516 27.7577L27.9442 67.463L15.8937 55.4125C18.3278 51.4943 17.1253 46.3467 13.2071 43.9126C9.28893 41.4785 4.14129 42.6811 1.70719 46.5992C-0.726915 50.5174 0.475649 55.665 4.39381 58.0991C7.11976 59.7922 10.5743 59.7736 13.2816 58.0515L25.3176 70.0875L17.3157 78.0894C16.5768 78.8118 16.5561 79.9936 17.266 80.7429L40.0278 103.505C40.7853 104.235 41.9817 104.244 42.7496 103.525L103.712 42.5631C104.432 41.7952 104.422 40.5988 103.693 39.8413L80.9294 17.0795C80.1802 16.3696 78.9983 16.3902 78.278 17.1292ZM47.9862 11.965C46.1751 10.1539 46.1751 7.21682 47.9862 5.40573C49.7973 3.59464 52.7344 3.59464 54.5455 5.40573C56.3566 7.21682 56.3566 10.1539 54.5455 11.965C52.7323 13.774 49.7994 13.774 47.9862 11.965ZM5.52186 54.2844C3.71077 52.4734 3.71077 49.5363 5.52186 47.7252C7.33295 45.9141 10.27 45.9141 12.0811 47.7252C13.8922 49.5363 13.8922 52.4734 12.0811 54.2844C10.27 56.0935 7.33502 56.0935 5.52186 54.2844ZM52.2293 88.7945L42.5488 79.114L79.3005 42.3623L88.981 52.0428L52.2293 88.7945ZM99.8103 41.2115L91.6055 49.4162L80.6811 38.4917C79.9566 37.7652 78.7209 37.6887 77.9965 38.4131L38.6017 77.81C37.8772 78.5344 37.9559 79.7701 38.6803 80.4945L49.6048 91.419L41.4001 99.6238L21.2173 79.441L79.6275 21.0287L99.8103 41.2115Z" fill="white"/>
<path d="M56.8244 72.3851L50.9171 78.2924C50.1927 79.0168 50.1927 80.1925 50.9171 80.919C51.6415 81.6434 52.8172 81.6434 53.5416 80.919L59.4489 75.0117C60.1733 74.2873 60.1733 73.1116 59.4489 72.3872C58.7244 71.6607 57.5488 71.6607 56.8244 72.3851Z" fill="white"/>
<path d="M68.8023 60.4071L62.8951 66.3143C62.1706 67.0388 62.1706 68.2144 62.8951 68.9409C63.6195 69.6654 64.7952 69.6654 65.5196 68.9409L71.4269 63.0337C72.1513 62.3092 72.1513 61.1336 71.4269 60.4092C70.7045 59.6826 69.5288 59.6826 68.8023 60.4071Z" fill="white"/>
<path d="M19.9381 39.1043C19.9505 27.7121 29.184 18.4807 40.5762 18.4662C41.6008 18.4662 42.4329 17.6362 42.4329 16.6096C42.4329 15.585 41.6008 14.7529 40.5762 14.7529C27.1328 14.7674 16.2393 25.6629 16.2249 39.1043C16.2249 40.1289 17.0569 40.9609 18.0815 40.9609C19.106 40.9609 19.9381 40.1289 19.9381 39.1043Z" fill="white"/>
<path d="M41.8885 25.2407C42.6129 24.5162 42.6129 23.3406 41.8885 22.6161C41.5408 22.2684 41.0688 22.0718 40.5762 22.0718C31.173 22.0821 23.5541 29.7032 23.5437 39.1043C23.5437 40.1309 24.3737 40.9609 25.4003 40.9609C26.4249 40.9609 27.257 40.1309 27.257 39.1043C27.2652 31.7502 33.2242 25.7912 40.5783 25.783C41.0688 25.785 41.5408 25.5884 41.8885 25.2407Z" fill="white"/>
<path d="M31.8395 39.1044C31.8395 40.1289 32.6716 40.961 33.6962 40.961C34.7228 40.961 35.5528 40.1289 35.5528 39.1044C35.5528 36.3308 37.8006 34.0809 40.5742 34.0809C41.5987 34.0809 42.4308 33.2489 42.4308 32.2243C42.4308 31.1997 41.5987 30.3677 40.5742 30.3677C35.7515 30.3677 31.8416 34.2796 31.8395 39.1044Z" fill="white"/>
</svg>
