<svg width="104" height="104" viewBox="0 0 104 104" fill="none" xmlns="http://www.w3.org/2000/svg">
<path d="M3.16744 72.6987L30.6478 100.179C34.4428 103.974 40.594 103.974 44.3869 100.179L100.349 44.217C104.144 40.422 104.144 34.2708 100.349 30.4758L72.8686 2.99753C69.0757 -0.795401 62.9224 -0.795401 59.1295 2.99753L3.16744 58.9596C-0.627592 62.7525 -0.627592 68.9058 3.16744 72.6987ZM61.3657 5.34103C63.8901 2.81661 68.0322 2.74299 70.5588 5.2674L98.0791 32.7877C100.603 35.3121 100.532 39.4564 98.0054 41.9808L93.6214 46.3648L56.9816 9.72299L61.3657 5.34103ZM54.6907 12.0139L91.3305 48.6536L50.9714 89.0148L14.3317 52.375L54.6907 12.0139ZM12.0408 54.666L48.6805 91.3057L42.0076 97.9786C39.4832 100.503 35.3411 100.577 32.8146 98.0522L5.29426 70.5319C2.76984 68.0075 2.84138 63.8653 5.36789 61.3388L12.0408 54.666Z" fill="white"/>
<path d="M86.1849 26.9038L76.4406 17.1596C75.8074 16.5285 74.7829 16.5285 74.1497 17.1596C73.5186 17.7928 73.5186 18.8173 74.1497 19.4484L83.894 29.1926C84.5272 29.8259 85.5517 29.8259 86.1849 29.1926C86.816 28.5615 86.816 27.5371 86.1849 26.9038Z" fill="white"/>
<path d="M20.5628 82.7814C22.8495 85.0702 26.5603 85.0702 28.847 82.7835C31.1358 80.4968 31.1359 76.7859 28.8492 74.4971C26.5604 72.2083 22.8516 72.2083 20.5628 74.495C18.2803 76.7838 18.2803 80.4926 20.5628 82.7814ZM26.5603 76.7859C27.5848 77.8104 27.5848 79.4681 26.5603 80.4926C25.538 81.515 23.8782 81.515 22.8537 80.4926C21.8292 79.4681 21.8313 77.8104 22.8537 76.7859C23.8782 75.7657 25.5359 75.7657 26.5603 76.7859Z" fill="white"/>
</svg>
