<svg width="145" height="145" viewBox="0 0 145 145" fill="none" xmlns="http://www.w3.org/2000/svg">
<path d="M24.1674 93.6987L51.6478 121.179C55.4428 124.974 61.594 124.974 65.3869 121.179L121.349 65.217C125.144 61.422 125.144 55.2708 121.349 51.4758L93.8686 23.9975C90.0757 20.2046 83.9224 20.2046 80.1295 23.9975L24.1674 79.9596C20.3724 83.7525 20.3724 89.9058 24.1674 93.6987ZM82.3657 26.341C84.8901 23.8166 89.0322 23.743 91.5588 26.2674L119.079 53.7877C121.603 56.3121 121.532 60.4564 119.005 62.9808L114.621 67.3648L77.9816 30.723L82.3657 26.341ZM75.6907 33.0139L112.33 69.6536L71.9714 110.015L35.3317 73.375L75.6907 33.0139ZM33.0408 75.666L69.6805 112.306L63.0076 118.979C60.4832 121.503 56.3411 121.577 53.8146 119.052L26.2943 91.5319C23.7698 89.0075 23.8414 84.8653 26.3679 82.3388L33.0408 75.666Z" fill="white"/>
<path d="M107.185 47.9038L97.4406 38.1596C96.8074 37.5285 95.7829 37.5285 95.1497 38.1596C94.5186 38.7928 94.5186 39.8173 95.1497 40.4484L104.894 50.1926C105.527 50.8259 106.552 50.8259 107.185 50.1926C107.816 49.5615 107.816 48.5371 107.185 47.9038Z" fill="white"/>
<path d="M41.5628 103.781C43.8495 106.07 47.5603 106.07 49.847 103.784C52.1358 101.497 52.1359 97.7859 49.8492 95.4971C47.5604 93.2083 43.8516 93.2083 41.5628 95.495C39.2803 97.7838 39.2803 101.493 41.5628 103.781ZM47.5603 97.7859C48.5848 98.8104 48.5848 100.468 47.5603 101.493C46.538 102.515 44.8782 102.515 43.8537 101.493C42.8292 100.468 42.8313 98.8104 43.8537 97.7859C44.8782 96.7657 46.5359 96.7657 47.5603 97.7859Z" fill="white"/>
</svg>
