<svg width="95" height="89" viewBox="0 0 95 89" fill="none" xmlns="http://www.w3.org/2000/svg">
<path d="M58.1722 11.0763C58.1722 4.98888 53.2197 0.036377 47.1323 0.036377C41.0449 0.036377 36.0924 4.98888 36.0924 11.0763C36.0924 17.1637 41.0449 22.1162 47.1323 22.1162C53.2197 22.1162 58.1722 17.1637 58.1722 11.0763ZM47.1323 18.4362C43.0741 18.4362 39.7724 15.1346 39.7724 11.0763C39.7724 7.01802 43.0741 3.71635 47.1323 3.71635C51.1906 3.71635 54.4923 7.01802 54.4923 11.0763C54.4923 15.1346 51.1906 18.4362 47.1323 18.4362Z" fill="white"/>
<path d="M63.6921 46.036V38.6761C63.6921 29.545 56.2634 22.1162 47.1323 22.1162C38.0011 22.1162 30.5724 29.545 30.5724 38.6761V46.036C30.5724 47.0523 31.3963 47.876 32.4124 47.876H61.8522C62.8682 47.876 63.6921 47.0523 63.6921 46.036ZM60.0122 44.196H34.2524V38.6761C34.2524 31.5741 40.0303 25.7962 47.1323 25.7962C54.2342 25.7962 60.0122 31.5741 60.0122 38.6761V44.196Z" fill="white"/>
<path d="M13.2505 72.1849L22.1085 76.6131V86.5158C22.1085 87.532 22.9325 88.3558 23.9485 88.3558H43.4524C44.4684 88.3558 45.2923 87.532 45.2923 86.5158V63.1075C45.2923 57.2594 40.9772 52.2142 35.4685 51.6217C35.3222 51.5941 28.3571 51.0751 24.9901 47.7103L19.9522 42.6726C18.5619 41.2819 16.7139 40.5161 14.7486 40.5161V25.7962C14.7486 21.738 11.4469 18.4363 7.38863 18.4363C3.33036 18.4363 0.0286865 21.738 0.0286865 25.7962V50.7906C0.0286865 59.8455 5.14348 68.1304 13.2505 72.1849ZM3.70866 25.7962C3.70866 23.7671 5.35949 22.1163 7.38863 22.1163C9.41777 22.1163 11.0686 23.7671 11.0686 25.7962V41.5025C8.82456 42.8001 7.38863 45.2193 7.38863 47.8761C7.38863 49.8412 8.15443 51.6891 9.54491 53.0795L18.9675 62.5039C19.6856 63.2225 20.8509 63.2228 21.5696 62.5041C22.2881 61.7856 22.2883 60.6207 21.5698 59.902L12.1472 50.4774C11.4517 49.7821 11.0686 48.8582 11.0686 47.8761C11.0686 46.3187 12.0543 44.924 13.5217 44.4057C13.5222 44.4055 13.5228 44.4051 13.5233 44.4049H13.5235C14.7894 43.9562 16.2956 44.22 17.3501 45.2745L22.3886 50.3129C25.8201 53.7421 30.8214 54.7066 35.0543 55.2783C35.0611 55.2791 35.0681 55.28 35.0751 55.2807C38.7409 55.6748 41.6124 59.1129 41.6124 63.1075V84.6758H25.7885V75.4758C25.7885 74.7789 25.3946 74.1417 24.7713 73.8302L14.8963 68.8935C7.99564 65.4422 3.70866 58.5057 3.70866 50.7906V25.7962Z" fill="white"/>
<path d="M81.0142 72.1849L72.1561 76.6131V86.5158C72.1561 87.532 71.3322 88.3558 70.3161 88.3558H50.8123C49.7962 88.3558 48.9723 87.532 48.9723 86.5158V63.1075C48.9723 57.2594 53.2874 52.2142 58.7962 51.6217C58.9425 51.5941 65.9075 51.0751 69.2745 47.7103L74.3124 42.6726C75.7027 41.2819 77.5508 40.5161 79.5161 40.5161V25.7962C79.5161 21.738 82.8177 18.4363 86.876 18.4363C90.9343 18.4363 94.236 21.738 94.236 25.7962V50.7906C94.236 59.8455 89.1212 68.1304 81.0142 72.1849ZM90.556 25.7962C90.556 23.7671 88.9052 22.1163 86.876 22.1163C84.8469 22.1163 83.196 23.7671 83.196 25.7962V41.5025C85.4401 42.8001 86.876 45.2193 86.876 47.8761C86.876 49.8412 86.1102 51.6891 84.7197 53.0795L75.2972 62.5039C74.579 63.2225 73.4138 63.2228 72.6951 62.5041C71.9765 61.7856 71.9764 60.6207 72.6949 59.902L82.1174 50.4774C82.813 49.7821 83.196 48.8582 83.196 47.8761C83.196 46.3187 82.2104 44.924 80.743 44.4057C80.7424 44.4055 80.7419 44.4051 80.7413 44.4049H80.7411C79.4752 43.9562 77.969 44.22 76.9145 45.2745L71.8761 50.3129C68.4445 53.7421 63.4432 54.7066 59.2104 55.2783C59.2035 55.2791 59.1966 55.28 59.1896 55.2807C55.5238 55.6748 52.6523 59.1129 52.6523 63.1075V84.6758H68.4762V75.4758C68.4762 74.7789 68.8701 74.1417 69.4933 73.8302L79.3683 68.8935C86.269 65.4422 90.556 58.5057 90.556 50.7906V25.7962Z" fill="white"/>
</svg>
