<svg width="146" height="145" viewBox="0 0 146 145" fill="none" xmlns="http://www.w3.org/2000/svg">
<g filter="url(#filter0_d_1_12118)">
<path d="M58.8317 27.7788C57.86 27.7788 57.0723 28.5665 57.0723 29.5381C57.0723 30.5098 57.86 31.2975 58.8317 31.2975H72.6994C73.6711 31.2975 74.4588 30.5098 74.4588 29.5381C74.4588 28.5665 73.6711 27.7788 72.6994 27.7788H58.8317Z" fill="white"/>
<path fill-rule="evenodd" clip-rule="evenodd" d="M25.2695 19.603C24.1835 19.603 23.3032 20.4834 23.3032 21.5694C23.3032 22.6553 24.1835 23.5357 25.2695 23.5357H48.8965V37.2512L25.1177 37.2518C24.0317 37.2518 23.1513 38.1322 23.1514 39.2181C23.1514 40.3041 24.0318 41.1844 25.1177 41.1844L48.8965 41.1839V42.8885C48.8965 46.9466 52.1863 50.2363 56.2444 50.2363H65.3352L70.8366 59.322V61.8266C70.8366 65.2378 73.6019 68.0032 77.0131 68.0032H77.6313C78.5292 68.0032 79.257 68.731 79.257 69.6289C79.257 70.5267 78.5292 71.2545 77.6313 71.2545H77.0131C73.9125 71.2545 71.3455 73.5392 70.9038 76.517L52.1745 87.3312C51.8552 87.5152 51.59 87.7801 51.4056 88.0992C51.2212 88.4183 51.1242 88.7804 51.1242 89.1489V111.699C51.1243 112.068 51.2213 112.43 51.4057 112.75C51.59 113.069 51.8552 113.334 52.1745 113.519L71.7525 124.821C72.0716 125.006 72.4339 125.103 72.8028 125.103C73.1718 125.103 73.5341 125.006 73.8532 124.821L93.4312 113.519C93.7505 113.334 94.0157 113.069 94.2 112.75C94.3844 112.43 94.4814 112.068 94.4815 111.699V89.1489C94.4815 88.7804 94.3844 88.4183 94.2001 88.0992C94.0157 87.7801 93.7505 87.5152 93.4312 87.3312L74.9131 76.6389C75.2332 75.7906 76.0527 75.1872 77.0131 75.1872H77.6313C80.7011 75.1872 83.1897 72.6986 83.1897 69.6289C83.1897 66.5591 80.7011 64.0705 77.6313 64.0705H77.0131C75.7739 64.0705 74.7692 63.0659 74.7692 61.8266V59.3219L80.2706 50.2363H88.9475C93.0056 50.2363 96.2953 46.9466 96.2953 42.8885V41.1844L120.129 41.1839C121.215 41.1838 122.096 40.3035 122.095 39.2175C122.095 38.1315 121.215 37.2512 120.129 37.2512L96.2953 37.2517V23.5357H120.281C121.367 23.5357 122.247 22.6553 122.247 21.5694C122.247 20.4834 121.367 19.603 120.281 19.603H25.2695ZM92.3627 23.5357H52.8292V42.8885C52.8292 44.7746 54.3582 46.3037 56.2444 46.3037H88.9475C90.8336 46.3037 92.3627 44.7746 92.3627 42.8885V23.5357ZM57.4261 89.1489L70.8366 81.408V84.9529C70.8366 86.0388 71.7169 86.9192 72.8029 86.9192C73.8889 86.9192 74.7692 86.0388 74.7692 84.9529V81.4081L88.1796 89.1489L72.8028 98.0277L57.4261 89.1489ZM69.9326 50.2363L72.8029 54.9767L75.6732 50.2363H69.9326ZM55.3255 92.7872L70.7022 101.666V119.365L55.3255 110.486V92.7872ZM90.2802 110.486L74.9035 119.365V101.666L90.2802 92.7872V110.486Z" fill="white"/>
</g>
<defs>
<filter id="filter0_d_1_12118" x="-5.87589" y="-6.22305" width="157.624" height="157.624" filterUnits="userSpaceOnUse" color-interpolation-filters="sRGB">
<feFlood flood-opacity="0" result="BackgroundImageFix"/>
<feColorMatrix in="SourceAlpha" type="matrix" values="0 0 0 0 0 0 0 0 0 0 0 0 0 0 0 0 0 0 127 0" result="hardAlpha"/>
<feOffset/>
<feGaussianBlur stdDeviation="3.30782"/>
<feComposite in2="hardAlpha" operator="out"/>
<feColorMatrix type="matrix" values="0 0 0 0 0.00635415 0 0 0 0 0.7625 0 0 0 0 0.630931 0 0 0 1 0"/>
<feBlend mode="normal" in2="BackgroundImageFix" result="effect1_dropShadow_1_12118"/>
<feBlend mode="normal" in="SourceGraphic" in2="effect1_dropShadow_1_12118" result="shape"/>
</filter>
</defs>
</svg>
