<svg width="100" height="107" viewBox="0 0 100 107" fill="none" xmlns="http://www.w3.org/2000/svg">
<path d="M35.8317 8.7788C34.86 8.7788 34.0723 9.56649 34.0723 10.5381C34.0723 11.5098 34.86 12.2975 35.8317 12.2975H49.6994C50.6711 12.2975 51.4588 11.5098 51.4588 10.5381C51.4588 9.56649 50.6711 8.7788 49.6994 8.7788H35.8317Z" fill="white"/>
<path fill-rule="evenodd" clip-rule="evenodd" d="M2.26949 0.603027C1.18352 0.603027 0.303167 1.48338 0.303167 2.56935C0.303167 3.65532 1.18352 4.53568 2.26949 4.53568H25.8965V18.2512L2.11765 18.2518C1.03168 18.2518 0.151344 19.1322 0.151367 20.2181C0.15139 21.3041 1.03176 22.1844 2.11774 22.1844L25.8965 22.1839V23.8885C25.8965 27.9466 29.1863 31.2363 33.2444 31.2363H42.3352L47.8366 40.322V42.8266C47.8366 46.2378 50.6019 49.0032 54.0131 49.0032H54.6313C55.5292 49.0032 56.257 49.731 56.257 50.6289C56.257 51.5267 55.5292 52.2545 54.6313 52.2545H54.0131C50.9125 52.2545 48.3455 54.5392 47.9038 57.517L29.1745 68.3312C28.8552 68.5152 28.59 68.7801 28.4056 69.0992C28.2212 69.4183 28.1242 69.7804 28.1242 70.1489V92.6986C28.1243 93.0676 28.2213 93.43 28.4057 93.7495C28.59 94.069 28.8552 94.3345 29.1745 94.5192L48.7525 105.821C49.0716 106.006 49.4339 106.103 49.8028 106.103C50.1718 106.103 50.5341 106.006 50.8532 105.821L70.4312 94.5192C70.7505 94.3345 71.0157 94.069 71.2 93.7495C71.3844 93.43 71.4814 93.0676 71.4815 92.6986V70.1489C71.4815 69.7804 71.3844 69.4183 71.2001 69.0992C71.0157 68.7801 70.7505 68.5152 70.4312 68.3312L51.9131 57.6389C52.2332 56.7906 53.0527 56.1872 54.0131 56.1872H54.6313C57.7011 56.1872 60.1897 53.6986 60.1897 50.6289C60.1897 47.5591 57.7011 45.0705 54.6313 45.0705H54.0131C52.7739 45.0705 51.7692 44.0659 51.7692 42.8266V40.3219L57.2706 31.2363H65.9475C70.0056 31.2363 73.2953 27.9466 73.2953 23.8885V22.1844L97.1292 22.1839C98.2152 22.1838 99.0955 21.3035 99.0955 20.2175C99.0955 19.1315 98.2151 18.2512 97.1291 18.2512L73.2953 18.2517V4.53568H97.2811C98.367 4.53568 99.2474 3.65532 99.2474 2.56935C99.2474 1.48338 98.367 0.603027 97.2811 0.603027H2.26949ZM69.3627 4.53568H29.8292V23.8885C29.8292 25.7746 31.3582 27.3037 33.2444 27.3037H65.9475C67.8336 27.3037 69.3627 25.7746 69.3627 23.8885V4.53568ZM34.4261 70.1489L47.8366 62.408V65.9529C47.8366 67.0388 48.7169 67.9192 49.8029 67.9192C50.8889 67.9192 51.7692 67.0388 51.7692 65.9529V62.4081L65.1796 70.1489L49.8028 79.0277L34.4261 70.1489ZM46.9326 31.2363L49.8029 35.9767L52.6732 31.2363H46.9326ZM32.3255 73.7872L47.7022 82.666V100.365L32.3255 91.4859V73.7872ZM67.2802 91.4859L51.9035 100.365V82.666L67.2802 73.7872V91.4859Z" fill="white"/>
</svg>
