<?xml version="1.0" encoding="utf-8"?>
<!-- Generator: Adobe Illustrator 24.0.0, SVG Export Plug-In . SVG Version: 6.00 Build 0)  -->
<svg version="1.1" id="Layer_1" xmlns="http://www.w3.org/2000/svg" xmlns:xlink="http://www.w3.org/1999/xlink" x="0px" y="0px"
	 viewBox="0 0 766 766" style="enable-background:new 0 0 766 766;" xml:space="preserve">
<style type="text/css">
	.st0{fill:#FFFFFF;}
</style>
<path class="st0" d="M639,287c0,17.7-14.3,32-32,32h-38.1c3.8,12.5,6.1,25,6.1,32c0,17.7-14.3,32-32,32c-17.7,0-32-14.3-32-32
	c0-7,2.3-19.5,6.1-32H479c-17.7,0-32-14.3-32-32v-38.1c12.5,3.8,25,6.1,32,6.1c17.7,0,32-14.3,32-32s-14.3-32-32-32
	c-7,0-19.5,2.3-32,6.1V159c0-17.7,14.3-32,32-32h74.7c47.1,0,85.3,38.2,85.3,85.3V287z M197.1,404.3c-3.8-12.5-6.1-25-6.1-32
	c0-17.7,14.3-32,32-32s32,14.3,32,32c0,7-2.3,19.5-6.1,32H319v-160c0-17.7-14.3-32-32-32h-74.7c-47.1,0-85.3,38.2-85.3,85.3v106.7
	H197.1z M521.7,447c17.7,0,32,14.3,32,32v74.7c0,47.1-38.2,85.3-85.3,85.3H361.7V447h70.1c-3.8,12.5-6.1,25-6.1,32
	c0,17.7,14.3,32,32,32c17.7,0,32-14.3,32-32c0-7-2.3-19.5-6.1-32H521.7z M319,639H212.3c-47.1,0-85.3-38.2-85.3-85.3V447h192v70.1
	c-12.5-3.8-25-6.1-32-6.1c-17.7,0-32,14.3-32,32c0,17.7,14.3,32,32,32c7,0,19.5-2.3,32-6.1V639z"/>
</svg>
