<svg width="28" height="27" viewBox="0 0 28 27" fill="none" xmlns="http://www.w3.org/2000/svg">
<g clip-path="url(#clip0_49_6940)">
<path fill-rule="evenodd" clip-rule="evenodd" d="M1.49243 11.0674C1.49243 5.43081 6.28774 0.86618 12.1968 0.86618C18.0316 0.86618 22.7802 5.3176 22.8984 10.8567L25.0809 13.7871C25.4707 14.3103 25.4296 15.0763 24.7968 15.4495C24.317 15.7311 23.6161 16.0599 22.6756 16.2999L22.3522 19.9995C22.33 20.2538 22.2546 20.5012 22.1307 20.7268C22.0068 20.9525 21.8368 21.1517 21.631 21.3125C21.4252 21.4734 21.1878 21.5925 20.9331 21.6629C20.6783 21.7333 20.4114 21.7534 20.1483 21.722L18.7308 21.553V23.133C18.7308 23.9493 18.179 24.6876 17.3144 24.842C16.2727 25.0288 14.5666 25.2412 12.1962 25.2412C9.82643 25.2412 8.12037 25.0288 7.07862 24.842C6.21406 24.6871 5.66112 23.9493 5.66112 23.133V19.1474C3.12762 17.283 1.49243 14.3575 1.49243 11.0674ZM5.50868 12.8728C4.66943 10.0366 5.89737 6.90793 8.66993 5.36635C11.4431 3.82476 14.8709 4.36426 17.0022 6.48272C17.6502 7.12731 17.3611 8.14131 16.5539 8.58981L7.62818 13.5526C6.82099 14.0016 5.76406 13.7356 5.50868 12.8728Z" fill="white"/>
</g>
<defs>
<clipPath id="clip0_49_6940">
<rect width="27" height="26" fill="white" transform="translate(0.0861816 0.0536804)"/>
</clipPath>
</defs>
</svg>
