<svg width="113" height="114" viewBox="0 0 113 114" fill="none" xmlns="http://www.w3.org/2000/svg">
<path fill-rule="evenodd" clip-rule="evenodd" d="M75.4779 2.39911C75.3768 2.61969 75.2462 2.76818 75.1644 2.85C75.1375 2.87695 75.1106 2.90397 75.0838 2.93106C75.298 2.7518 75.4815 2.49392 75.5727 2.12882C75.6055 1.9977 75.6191 1.87251 75.6193 1.75538C75.6187 2.01984 75.5496 2.24274 75.4779 2.39911ZM75.2664 0.756584L111.16 36.6506C112.466 37.9564 112.56 40.2115 111 41.5146C102.878 48.2998 91.0072 48.4838 81.3397 42.7674L78.4569 45.6501L80.9438 48.137C82.6009 49.794 82.6009 52.4806 80.9438 54.1377L66.0714 69.0101L69.3632 72.3019L77.651 64.0141C79.308 62.3571 81.9946 62.3571 83.6517 64.0141L106.499 86.8611C108.156 88.5181 108.156 91.2047 106.499 92.8618L87.5711 111.789C85.9141 113.446 83.2275 113.446 81.5704 111.789L58.7234 88.9423C57.0664 87.2853 57.0664 84.5987 58.7234 82.9416L67.1678 74.4972L63.8761 71.2055L50.5715 84.51C48.9145 86.1671 46.2279 86.1671 44.5708 84.51L43.8085 83.7477L42.5028 85.0534C40.28 87.2762 36.676 87.2762 34.4531 85.0534L28.2355 78.8358C26.0127 76.6129 26.0127 73.0089 28.2355 70.7861L29.5412 69.4804L28.6221 68.5613C26.965 66.9042 26.965 64.2176 28.6221 62.5606L41.9266 49.256L38.6347 45.9641L30.1903 54.4086C28.5333 56.0656 25.8467 56.0656 24.1896 54.4086L1.34264 31.5616C-0.314404 29.9046 -0.314411 27.218 1.34263 25.5609L20.2702 6.6334C21.9272 4.97635 24.6138 4.97635 26.2708 6.6334L49.1178 29.4804C50.7749 31.1374 50.7749 33.824 49.1178 35.4811L40.8301 43.7688L44.122 47.0607L58.9944 32.1883C60.6515 30.5312 63.3381 30.5312 64.9951 32.1883L67.6388 34.8319L70.4826 31.9881C64.3128 21.7256 64.82 8.91053 72.8637 0.760609C73.2275 0.319654 73.7731 0.199951 74.0667 0.199951C74.3595 0.199951 74.9026 0.318925 75.2664 0.756584ZM72.5141 1.75538C72.5148 2.01984 72.5838 2.24274 72.6555 2.39911C72.7566 2.61969 72.8872 2.76818 72.969 2.85L73.0525 2.93349C72.8371 2.75414 72.6524 2.49557 72.5607 2.12882C72.5279 1.9977 72.5143 1.87251 72.5141 1.75538ZM74.1113 3.9923C66.8858 12.5001 67.9622 26.3758 77.3593 35.7729C86.7037 45.1173 100.504 46.2376 109.009 39.1319C109.028 39.1167 109.035 39.1047 109.039 39.0953C109.044 39.0841 109.05 39.0656 109.05 39.0389C109.051 38.9831 109.029 38.9097 108.965 38.846L74.1113 3.9923ZM72.2498 34.6117L69.8342 37.0273L76.2616 43.4547L78.6997 41.0166C77.4669 40.1046 76.2835 39.0879 75.1639 37.9683C74.0989 36.9033 73.127 35.7803 72.2498 34.6117ZM38.6347 41.5734L46.9224 33.2857C47.367 32.8411 47.367 32.1203 46.9224 31.6757L41.1433 25.8966L32.0506 34.9892L38.6347 41.5734ZM29.8552 32.7939L38.9479 23.7012L32.2069 16.9602L23.1142 26.0529L29.8552 32.7939ZM20.9188 28.2482L27.6598 34.9892L18.4104 44.2387L11.6694 37.4977L20.9188 28.2482ZM20.9188 23.8575L30.0115 14.7648L24.0755 8.82877C23.6309 8.3842 22.9101 8.38419 22.4655 8.82877L14.1778 17.1165L20.9188 23.8575ZM11.9824 19.3119L18.7235 26.0529L9.47405 35.3023L3.53801 29.3662C3.09343 28.9217 3.09344 28.2009 3.53801 27.7563L11.9824 19.3119ZM20.6058 46.434L29.8552 37.1846L36.4394 43.7688L27.9949 52.2132C27.5503 52.6578 26.8296 52.6578 26.385 52.2132L20.6058 46.434ZM31.7366 71.6758L30.4309 72.9814C29.4205 73.9918 29.4205 75.63 30.4309 76.6404L36.6485 82.858C37.6589 83.8684 39.2971 83.8684 40.3075 82.858L41.6131 81.5523L31.7366 71.6758ZM69.3632 76.6926L60.9188 85.137C60.4743 85.5816 60.4743 86.3024 60.9188 86.7469L66.8549 92.683L76.1043 83.4336L69.3632 76.6926ZM78.2996 85.629L69.0503 94.8784L75.7912 101.619L85.0406 92.37L78.2996 85.629ZM87.236 90.1746L80.495 83.4337L89.5877 74.3409L96.3287 81.0819L87.236 90.1746ZM87.236 94.5654L77.9866 103.815L83.7658 109.594C84.2104 110.038 84.9312 110.038 85.3757 109.594L93.8201 101.15L87.236 94.5654ZM96.0155 98.9541L89.4314 92.37L98.5241 83.2773L104.303 89.0565C104.748 89.501 104.748 90.2218 104.303 90.6664L96.0155 98.9541ZM87.3924 72.1456L78.2996 81.2383L71.5586 74.4972L79.8463 66.2095C80.2909 65.7649 81.0117 65.7649 81.4563 66.2095L87.3924 72.1456ZM62.7997 34.3836C62.3552 33.9391 61.6344 33.9391 61.1898 34.3836L30.8175 64.756C30.3729 65.2005 30.3729 65.9213 30.8175 66.3659L46.7662 82.3146C47.2108 82.7592 47.9316 82.7592 48.3761 82.3146L78.7485 51.9423C79.193 51.4977 79.193 50.7769 78.7485 50.3324L62.7997 34.3836Z" fill="white"/>
</svg>
