<svg width="145" height="145" viewBox="0 0 145 145" fill="none" xmlns="http://www.w3.org/2000/svg">
<path fill-rule="evenodd" clip-rule="evenodd" d="M85.4779 24.3991C85.3768 24.6197 85.2462 24.7682 85.1644 24.85C85.1375 24.877 85.1106 24.904 85.0838 24.9311C85.298 24.7518 85.4815 24.4939 85.5727 24.1288C85.6055 23.9977 85.6191 23.8725 85.6193 23.7554C85.6187 24.0198 85.5496 24.2427 85.4779 24.3991ZM85.2664 22.7566L121.16 58.6506C122.466 59.9564 122.56 62.2115 121 63.5146C112.878 70.2998 101.007 70.4838 91.3397 64.7674L88.4569 67.6501L90.9438 70.137C92.6009 71.794 92.6009 74.4806 90.9438 76.1377L76.0714 91.0101L79.3632 94.3019L87.651 86.0141C89.308 84.3571 91.9946 84.3571 93.6517 86.0141L116.499 108.861C118.156 110.518 118.156 113.205 116.499 114.862L97.5711 133.789C95.9141 135.446 93.2275 135.446 91.5704 133.789L68.7234 110.942C67.0664 109.285 67.0664 106.599 68.7234 104.942L77.1678 96.4972L73.8761 93.2055L60.5715 106.51C58.9145 108.167 56.2279 108.167 54.5708 106.51L53.8085 105.748L52.5028 107.053C50.28 109.276 46.676 109.276 44.4531 107.053L38.2355 100.836C36.0127 98.6129 36.0127 95.0089 38.2355 92.7861L39.5412 91.4804L38.6221 90.5613C36.965 88.9042 36.965 86.2176 38.6221 84.5606L51.9266 71.256L48.6347 67.9641L40.1903 76.4086C38.5333 78.0656 35.8467 78.0656 34.1896 76.4086L11.3426 53.5616C9.6856 51.9046 9.68559 49.218 11.3426 47.5609L30.2702 28.6334C31.9272 26.9764 34.6138 26.9764 36.2708 28.6334L59.1178 51.4804C60.7749 53.1374 60.7749 55.824 59.1178 57.4811L50.8301 65.7688L54.122 69.0607L68.9944 54.1883C70.6515 52.5312 73.3381 52.5312 74.9951 54.1883L77.6388 56.8319L80.4826 53.9881C74.3128 43.7256 74.82 30.9105 82.8637 22.7606C83.2275 22.3197 83.7731 22.2 84.0667 22.2C84.3595 22.2 84.9026 22.3189 85.2664 22.7566ZM82.5141 23.7554C82.5148 24.0198 82.5838 24.2427 82.6555 24.3991C82.7566 24.6197 82.8872 24.7682 82.969 24.85L83.0525 24.9335C82.8371 24.7541 82.6524 24.4956 82.5607 24.1288C82.5279 23.9977 82.5143 23.8725 82.5141 23.7554ZM84.1113 25.9923C76.8858 34.5001 77.9622 48.3758 87.3593 57.7729C96.7037 67.1173 110.504 68.2376 119.009 61.1319C119.028 61.1167 119.035 61.1047 119.039 61.0953C119.044 61.0841 119.05 61.0656 119.05 61.0389C119.051 60.9831 119.029 60.9097 118.965 60.846L84.1113 25.9923ZM82.2498 56.6117L79.8342 59.0273L86.2616 65.4547L88.6997 63.0166C87.4669 62.1046 86.2835 61.0879 85.1639 59.9683C84.0989 58.9033 83.127 57.7803 82.2498 56.6117ZM48.6347 63.5734L56.9224 55.2857C57.367 54.8411 57.367 54.1203 56.9224 53.6757L51.1433 47.8966L42.0506 56.9892L48.6347 63.5734ZM39.8552 54.7939L48.9479 45.7012L42.2069 38.9602L33.1142 48.0529L39.8552 54.7939ZM30.9188 50.2482L37.6598 56.9892L28.4104 66.2387L21.6694 59.4977L30.9188 50.2482ZM30.9188 45.8575L40.0115 36.7648L34.0755 30.8288C33.6309 30.3842 32.9101 30.3842 32.4655 30.8288L24.1778 39.1165L30.9188 45.8575ZM21.9824 41.3119L28.7235 48.0529L19.4741 57.3023L13.538 51.3662C13.0934 50.9217 13.0934 50.2009 13.538 49.7563L21.9824 41.3119ZM30.6058 68.434L39.8552 59.1846L46.4394 65.7688L37.9949 74.2132C37.5503 74.6578 36.8296 74.6578 36.385 74.2132L30.6058 68.434ZM41.7366 93.6758L40.4309 94.9814C39.4205 95.9918 39.4205 97.63 40.4309 98.6404L46.6485 104.858C47.6589 105.868 49.2971 105.868 50.3075 104.858L51.6131 103.552L41.7366 93.6758ZM79.3632 98.6926L70.9188 107.137C70.4743 107.582 70.4743 108.302 70.9188 108.747L76.8549 114.683L86.1043 105.434L79.3632 98.6926ZM88.2996 107.629L79.0503 116.878L85.7912 123.619L95.0406 114.37L88.2996 107.629ZM97.236 112.175L90.495 105.434L99.5877 96.3409L106.329 103.082L97.236 112.175ZM97.236 116.565L87.9866 125.815L93.7658 131.594C94.2104 132.038 94.9312 132.038 95.3757 131.594L103.82 123.15L97.236 116.565ZM106.016 120.954L99.4314 114.37L108.524 105.277L114.303 111.056C114.748 111.501 114.748 112.222 114.303 112.666L106.016 120.954ZM97.3924 94.1456L88.2996 103.238L81.5586 96.4972L89.8463 88.2095C90.2909 87.7649 91.0117 87.7649 91.4563 88.2095L97.3924 94.1456ZM72.7997 56.3836C72.3552 55.9391 71.6344 55.9391 71.1898 56.3836L40.8175 86.756C40.3729 87.2005 40.3729 87.9213 40.8175 88.3659L56.7662 104.315C57.2108 104.759 57.9316 104.759 58.3761 104.315L88.7485 73.9423C89.193 73.4977 89.193 72.7769 88.7485 72.3324L72.7997 56.3836Z" fill="white"/>
</svg>
