<svg width="39" height="39" viewBox="0 0 39 39" fill="none" xmlns="http://www.w3.org/2000/svg">
<path d="M19.6098 38.9415C9.00972 38.9415 0.277041 30.2088 0.277041 19.5905C0.277041 8.99045 8.99141 0.257778 19.6098 0.257778C30.2098 0.257778 38.9425 8.99045 38.9425 19.5905C38.9425 30.2088 30.2281 38.9415 19.6098 38.9415ZM17.7607 25.6869C19.1338 25.6869 20.4336 25.3207 21.532 24.6983L25.7062 28.8175C26.1638 29.2935 26.7131 29.5315 27.3355 29.5315C28.5621 29.5315 29.4592 28.5978 29.4592 27.3346C29.4592 26.7853 29.2578 26.2361 28.8184 25.7967L24.6809 21.6592C25.3766 20.4876 25.7977 19.1145 25.7977 17.6499C25.7977 13.2378 22.1728 9.61291 17.7607 9.61291C13.3669 9.61291 9.72371 13.2378 9.72371 17.6499C9.72371 22.062 13.3669 25.6869 17.7607 25.6869ZM17.7607 22.4098C15.1427 22.4098 13.0007 20.2862 13.0007 17.6499C13.0007 15.0319 15.1427 12.8899 17.7607 12.8899C20.3787 12.8899 22.5206 15.0136 22.5206 17.6499C22.5206 20.2862 20.3787 22.4098 17.7607 22.4098Z" fill="white"/>
</svg>
