<svg width="125" height="123" viewBox="0 0 125 123" fill="none" xmlns="http://www.w3.org/2000/svg">
<g clip-path="url(#clip0_1_12135)">
<path d="M0.189453 1.53027H46.1805V15.0636H31.6024V53.365H14.6939V15.0636H0.189453V1.53027Z" fill="white"/>
<path d="M68.9194 1.53027H52.0087V53.365H68.9194V1.53027Z" fill="white"/>
<path d="M109.549 16.6511C107.435 15.3466 105.381 14.6922 103.39 14.6922C101.397 14.6922 99.5866 15.2221 97.9616 16.2819C96.3322 17.3418 95.0688 18.807 94.1692 20.6821C93.2697 22.5549 92.821 24.6746 92.821 27.0388C92.821 29.4053 93.2697 31.5386 94.1692 33.4341C95.0688 35.3318 96.3299 36.8242 97.9616 37.9067C99.5866 38.9914 101.397 39.5327 103.39 39.5327C105.238 39.5327 107.216 38.9779 109.33 37.8705C111.444 36.7608 113.325 35.2956 114.979 33.4703L124.743 44.0438C121.877 47.2482 118.439 49.8004 114.43 51.6959C110.424 53.5937 106.448 54.5425 102.515 54.5425C97.3634 54.5425 92.7362 53.3717 88.6313 51.0301C84.5241 48.6885 81.3054 45.4365 78.9705 41.2696C76.6424 37.105 75.4728 32.4331 75.4728 27.2562C75.4728 22.1292 76.6625 17.532 79.0442 13.4647C81.4259 9.39751 84.7161 6.20667 88.9214 3.88997C93.1246 1.58007 97.8746 0.422852 103.171 0.422852C107.06 0.422852 110.971 1.29699 114.906 3.04754C118.843 4.79582 122.12 7.12837 124.743 10.0339L114.979 21.7917C113.473 19.672 111.663 17.9577 109.549 16.6511Z" fill="white"/>
<path fill-rule="evenodd" clip-rule="evenodd" d="M89.2179 80.1611L77.5119 68.4551L62.4094 83.5575L74.1154 95.2635L89.2179 80.1611ZM77.5121 122.073L89.218 110.367L74.1156 95.2643L62.4096 106.97L77.5121 122.073Z" fill="#E61366"/>
<path fill-rule="evenodd" clip-rule="evenodd" d="M35.6003 80.1611L47.3062 68.4551L74.0622 95.211L74.062 95.2112L74.1146 95.2638L47.3061 122.072L35.6001 110.366L50.7028 95.2636L35.6003 80.1611Z" fill="white"/>
</g>
<defs>
<clipPath id="clip0_1_12135">
<rect width="124.553" height="121.789" fill="white" transform="translate(0.189453 0.422852)"/>
</clipPath>
</defs>
</svg>
