<svg width="958" height="282" viewBox="0 0 958 282" fill="none" xmlns="http://www.w3.org/2000/svg">
<path d="M0.685547 2.50726L100.425 2.50727L100.425 31.5945L68.8096 31.5945L68.8096 113.916L32.1408 113.916L32.1408 31.5945L0.685546 31.5945L0.685547 2.50726Z" fill="white"/>
<path d="M149.736 2.50592L113.062 2.50592L113.062 113.914L149.736 113.914L149.736 2.50592Z" fill="white"/>
<path d="M237.849 35.0063C233.265 32.2027 228.811 30.7961 224.493 30.7961C220.171 30.7961 216.245 31.935 212.721 34.2129C209.187 36.4908 206.447 39.64 204.496 43.6702C202.545 47.6955 201.572 52.2513 201.572 57.3328C201.572 62.4192 202.545 67.0042 204.496 71.0781C206.447 75.157 209.182 78.3646 212.721 80.6911C216.245 83.0226 220.171 84.1859 224.493 84.1859C228.502 84.1859 232.79 82.9934 237.375 80.6133C241.959 78.2283 246.04 75.0791 249.627 71.156L270.8 93.8816C264.585 100.769 257.13 106.254 248.436 110.328C239.747 114.407 231.125 116.447 222.596 116.447C211.423 116.447 201.388 113.93 192.486 108.897C183.579 103.865 176.599 96.875 171.535 87.9191C166.487 78.9681 163.95 68.9268 163.95 57.8C163.95 46.7804 166.53 36.8997 171.695 28.158C176.86 19.4162 183.996 12.5581 193.116 7.57885C202.231 2.61416 212.532 0.126954 224.019 0.126954C232.452 0.126955 240.933 2.00575 249.467 5.7682C258.006 9.52579 265.112 14.5391 270.8 20.7839L249.627 46.0552C246.359 41.4993 242.433 37.8148 237.849 35.0063Z" fill="white"/>
<path d="M80.1721 253.316L80.1721 280.021L0.685544 280.021L0.685547 168.488L78.7583 168.488L78.7583 195.193L31.3177 195.193L31.3177 210.902L71.8464 210.902L71.8464 235.722L31.3177 235.722L31.3177 253.316L80.1721 253.316Z" fill="white"/>
<path d="M209.692 280.021L209.692 168.488L257.761 168.488C263.207 168.488 268.234 169.64 272.842 171.944C277.45 174.144 281.377 177.076 284.623 180.741C287.974 184.302 290.593 188.439 292.478 193.151C294.363 197.759 295.305 202.419 295.305 207.132C295.305 212.054 294.415 216.872 292.635 221.584C290.854 226.192 288.341 230.329 285.095 233.994C281.953 237.555 278.078 240.435 273.47 242.634C268.967 244.728 263.992 245.776 258.547 245.776L240.324 245.776L240.324 280.021L209.692 280.021ZM240.324 219.071L256.505 219.071C258.39 219.071 260.118 218.233 261.688 216.557C263.364 214.777 264.202 211.635 264.202 207.132C264.202 202.524 263.259 199.382 261.374 197.707C259.489 196.031 257.604 195.193 255.719 195.193L240.324 195.193L240.324 219.071Z" fill="white"/>
<path d="M387.052 253.316L387.052 280.021L307.565 280.021L307.565 168.488L385.638 168.488L385.638 195.193L338.198 195.193L338.198 210.902L378.726 210.902L378.726 235.722L338.198 235.722L338.198 253.316L387.052 253.316Z" fill="white"/>
<path d="M401.297 280.021L401.297 168.488L452.507 168.488C457.953 168.488 462.98 169.64 467.588 171.944C472.196 174.144 476.123 177.076 479.369 180.741C482.721 184.302 485.339 188.439 487.224 193.151C489.109 197.759 490.051 202.419 490.051 207.132C490.051 213.625 488.638 219.699 485.81 225.354C482.982 230.905 479.055 235.46 474.028 239.021L497.592 280.021L463.032 280.021L443.396 245.776L431.929 245.776L431.929 280.021L401.297 280.021ZM431.929 219.071L451.251 219.071C453.136 219.071 454.864 218.024 456.435 215.929C458.11 213.835 458.948 210.902 458.948 207.132C458.948 203.257 458.005 200.325 456.12 198.335C454.235 196.241 452.35 195.193 450.465 195.193L431.929 195.193L431.929 219.071Z" fill="white"/>
<path d="M507.3 280.021L507.3 168.488L537.933 168.488L537.933 280.021L507.3 280.021Z" fill="white"/>
<path d="M636.644 253.316L636.644 280.021L557.157 280.021L557.157 168.488L635.23 168.488L635.23 195.193L587.79 195.193L587.79 210.902L628.318 210.902L628.318 235.722L587.79 235.722L587.79 253.316L636.644 253.316Z" fill="white"/>
<path d="M681.521 225.197L681.521 280.021L650.889 280.021L650.889 168.488L674.766 168.488L719.536 225.197L719.536 168.488L750.168 168.488L750.168 280.021L725.82 280.021L681.521 225.197Z" fill="white"/>
<path d="M763.192 223.312C763.192 216.505 764.448 209.803 766.962 203.205C769.58 196.607 773.35 190.69 778.272 185.454C783.194 180.218 789.164 175.976 796.18 172.73C803.197 169.483 811.208 167.86 820.215 167.86C831.001 167.86 840.322 170.112 848.176 174.615C856.135 179.013 862.052 184.878 865.927 192.209L842.521 208.86C841.474 206.137 840.06 203.886 838.28 202.105C836.604 200.325 834.719 198.911 832.625 197.864C830.53 196.817 828.331 196.084 826.027 195.665C823.828 195.246 821.681 195.036 819.586 195.036C815.188 195.036 811.365 195.927 808.119 197.707C804.977 199.382 802.359 201.634 800.265 204.462C798.275 207.184 796.756 210.326 795.709 213.887C794.766 217.343 794.295 220.799 794.295 224.255C794.295 228.13 794.871 231.847 796.023 235.408C797.175 238.969 798.851 242.11 801.05 244.833C803.249 247.556 805.92 249.755 809.061 251.431C812.308 253.002 815.921 253.787 819.901 253.787C821.995 253.787 824.142 253.578 826.341 253.159C828.54 252.635 830.635 251.85 832.625 250.803C834.719 249.651 836.552 248.237 838.123 246.561C839.798 244.781 841.107 242.634 842.05 240.121L867.027 255.044C865.351 259.128 862.786 262.794 859.33 266.04C855.978 269.287 852.104 272.009 847.705 274.209C843.411 276.408 838.751 278.084 833.724 279.235C828.802 280.387 823.985 280.963 819.272 280.963C810.999 280.963 803.406 279.34 796.494 276.094C789.687 272.743 783.77 268.344 778.743 262.898C773.821 257.453 769.999 251.274 767.276 244.362C764.553 237.45 763.192 230.434 763.192 223.312Z" fill="white"/>
<path d="M957.416 253.316L957.416 280.021L877.93 280.021L877.93 168.488L956.003 168.488L956.003 195.193L908.562 195.193L908.562 210.902L949.091 210.902L949.091 235.722L908.562 235.722L908.562 253.316L957.416 253.316Z" fill="white"/>
<path d="M144.802 250.572L175.736 281.956L200.699 256.592L169.795 225.239L144.802 250.572Z" fill="#E61366"/>
<path d="M202.181 192.357L177.175 166.994L144.802 199.869L169.795 225.238L202.181 192.357Z" fill="#E61366"/>
<path d="M88.86 256.593L113.829 281.956L169.793 225.24L113.829 168.492L88.86 193.856L119.818 225.24L88.86 256.593Z" fill="white"/>
</svg>
