<svg width="50" height="45" viewBox="0 0 50 45" fill="none" xmlns="http://www.w3.org/2000/svg">
<path d="M49.554 6.27212L49.7149 6.01212L49.4392 6.14425C47.7597 6.94908 45.9626 7.50944 44.0799 7.79163C46.0143 6.43026 47.4948 4.3769 48.2113 1.95552L48.2795 1.72502L48.0771 1.85471C46.1596 3.08346 44.038 3.97798 41.7803 4.46473C39.9347 2.36121 37.3154 1.04717 34.4167 1.04717C28.8142 1.04717 24.2832 5.95233 24.2832 11.9879C24.2832 12.8037 24.3645 13.5994 24.5213 14.3649C16.2506 13.8801 8.91914 9.58461 4.00308 3.06894L3.91904 2.95755L3.85278 3.08036C2.9812 4.69599 2.48217 6.57462 2.48217 8.57833C2.48217 12.2596 4.16495 15.5225 6.74989 17.5064C5.22881 17.4057 3.79778 16.9333 2.53679 16.1764L2.40442 16.097L2.40117 16.2513C2.4002 16.2976 2.4002 16.3436 2.4002 16.3891V16.3896C2.4002 21.5543 5.71716 25.8908 10.1843 27.0364C9.45116 27.2225 8.68645 27.3212 7.90033 27.3212C7.25948 27.3212 6.63641 27.2536 6.02868 27.1284L5.88225 27.0982L5.92475 27.2416C7.18973 31.5079 10.8204 34.6404 15.1555 34.8337C11.7625 37.6411 7.52077 39.3078 2.9193 39.3078C2.11242 39.3078 1.31675 39.2565 0.534783 39.1566L0.472444 39.319C4.93121 42.4077 10.2282 44.2106 15.9194 44.2106C34.4587 44.2106 44.585 27.6176 44.585 13.2461C44.585 12.79 44.5758 12.336 44.5575 11.8845C46.5134 10.3526 48.2106 8.44354 49.554 6.27212Z" fill="white" stroke="#4A99E9" stroke-width="0.179102"/>
</svg>
