<?xml version="1.0" encoding="utf-8"?>
<!-- Generator: Adobe Illustrator 24.0.0, SVG Export Plug-In . SVG Version: 6.00 Build 0)  -->
<svg version="1.1" id="Layer_1" xmlns="http://www.w3.org/2000/svg" xmlns:xlink="http://www.w3.org/1999/xlink" x="0px" y="0px"
	 viewBox="0 0 698 699" style="enable-background:new 0 0 698 699;" xml:space="preserve">
<style type="text/css">
	.st0{fill:#FFFFFF;}
</style>
<path class="st0" d="M490.4,346.8l-166.9,26.5L350,206.4c0.8-4.7-2.5-9.2-7.2-10h0c-60-9.5-120.8,10.3-163.7,53.2
	c-73.9,73.9-73.9,194.2,0,268.1c73.9,73.9,194.2,73.9,268.1,0c43-42.9,62.7-103.8,53.2-163.7C499.6,349.3,495.2,346,490.4,346.8z
	 M477.3,435.6c-8.3,26.4-22.8,50.3-42.5,69.8c-67.1,67.1-176.4,67.1-243.5,0c-67.1-67.1-67.1-176.4,0-243.5
	c19.5-19.6,43.4-34.2,69.8-42.5c22.7-7.1,46.6-9.5,70.3-7l-26.9,169.9c-0.8,4.7,2.5,9.2,7.2,9.9c0.9,0.2,1.8,0.2,2.7,0l169.9-26.9
	C486.9,389,484.5,412.9,477.3,435.6z"/>
<path class="st0" d="M249.7,307.3c-15.9-15.9-41.8-15.9-57.7,0c-15.9,15.9-15.9,41.8,0,57.7c15.9,15.9,41.8,15.9,57.7,0
	C265.6,349.1,265.6,323.3,249.7,307.3z M237.4,352.7c-9.2,9.1-24,9.1-33.1,0c-9.2-9.2-9.1-24,0-33.1c9.1-9.1,24-9.1,33.1,0
	C246.5,328.8,246.5,343.6,237.4,352.7z"/>
<path class="st0" d="M482,237.1h22.4l0-18.1H482V237.1z"/>
<path class="st0" d="M482,195.5h-18.1V219H482V195.5z"/>
<path class="st0" d="M463.9,259.5l18.1,0V219h-40.5v18.1h22.4V259.5z"/>
<path class="st0" d="M434.6,288.7h-22.4v18.1h22.4V288.7z"/>
<path class="st0" d="M412.2,265.3h-18.1v23.5h18.1V265.3z"/>
<path class="st0" d="M394.1,329.2h18.1v-40.5h-40.5v18.1l22.4,0V329.2z"/>
<path class="st0" d="M574.1,149.3h-22.4v18.1h22.4V149.3z"/>
<path class="st0" d="M551.7,125.8h-18.1v23.5h18.1V125.8z"/>
<path class="st0" d="M533.6,189.7l18.1,0v-40.5h-40.5v18.1h22.4V189.7z"/>
</svg>
