<svg width="90" height="90" viewBox="0 0 90 90" fill="none" xmlns="http://www.w3.org/2000/svg">
<path d="M20.1873 54.1027C16.1149 58.1712 16.1175 64.7641 20.1873 68.8299C24.2597 72.8958 30.8589 72.8958 34.9313 68.8299C39.0037 64.7615 39.0037 58.1686 34.9313 54.1002C30.8563 50.042 24.2597 50.042 20.1873 54.1027ZM32.5702 66.4737C29.8026 69.2386 25.316 69.236 22.5484 66.4737C19.7808 63.7088 19.7834 59.2265 22.551 56.4616C25.3186 53.6967 29.8052 53.6993 32.5702 56.4616C35.3326 59.2291 35.3326 63.7088 32.5702 66.4737Z" fill="white"/>
<path d="M53.8279 20.4943C49.7555 24.5602 49.7555 31.1556 53.8279 35.2215C57.8977 39.2899 64.4995 39.2899 68.5719 35.2241C72.6443 31.1556 72.6443 24.5627 68.5719 20.4943C64.4969 16.4362 57.9029 16.4362 53.8279 20.4943ZM66.2108 32.8652C63.4432 35.6301 58.9566 35.6301 56.189 32.8652C53.4215 30.1003 53.4215 25.618 56.189 22.8531C58.9566 20.0882 63.4432 20.0882 66.2108 22.8531C68.9706 25.6206 68.9706 30.0977 66.2108 32.8652Z" fill="white"/>
<path d="M74.2392 2.08942L69.7266 6.59759L65.8847 2.75931C63.332 0.20908 59.1871 0.322884 56.6344 2.87311L2.57226 56.8832C1.3477 58.0859 0.659039 59.7308 0.661628 61.4457C0.664217 63.1605 1.35546 64.8028 2.58262 66.003L6.4246 69.8412L1.76451 74.4968C1.1121 75.1486 1.00078 76.2168 1.65319 76.8686L13.8497 89.0533C14.5021 89.7051 15.5713 89.5939 16.2237 88.9421L20.8838 84.2865L22.1472 85.5487C24.3763 87.817 27.9257 88.1351 30.5224 86.2988L48.1375 73.8528C48.4378 73.6433 48.7174 73.4053 48.9763 73.1467C50.5245 71.6 51.195 69.386 50.7653 67.2419L48.8909 57.8945C48.4016 55.458 49.1679 52.9363 50.9258 51.1775C52.6863 49.4187 55.2079 48.6557 57.6493 49.1445L67.0083 51.0145C69.5454 51.5189 72.1421 50.4843 73.6385 48.3764L86.1379 30.7343C87.9968 28.1323 87.7042 24.5708 85.4492 22.305L84.1858 21.0429L88.6983 16.5347C89.3508 15.8829 89.4621 14.8147 88.8097 14.1629L76.6132 1.98079C75.9608 1.32901 74.8916 1.43764 74.2392 2.08942ZM14.9836 85.4659L5.24404 75.7383L8.78571 72.2001L18.5253 81.9303L14.9836 85.4659ZM83.4143 28.8099L70.9279 46.4391C70.1926 47.4763 68.9189 47.9858 67.671 47.7401L58.312 45.8727C54.7755 45.1666 51.12 46.2736 48.5699 48.8212C46.0198 51.3689 44.9117 55.0209 45.6185 58.554L47.4903 67.904C47.7388 69.1455 47.2314 70.418 46.1958 71.1474L28.5962 83.5752C27.3251 84.4701 25.5905 84.3072 24.5083 83.1898L4.94114 63.6415C4.3405 63.0673 3.99877 62.2733 3.99877 61.4431C3.99618 60.6128 4.33274 59.8162 4.93078 59.2394L58.9955 5.23195C60.246 3.9827 62.2731 3.86889 63.5236 5.11814L68.2561 9.84616C68.3338 9.92375 68.3908 10.0298 68.4736 10.1151C68.5564 10.1979 68.6626 10.2522 68.7403 10.3324L80.4526 22.0335C80.5303 22.1111 80.5872 22.2171 80.6701 22.2999C80.7529 22.3826 80.8591 22.4395 80.9393 22.5171L83.0907 24.6665C84.1936 25.7838 84.3308 27.5322 83.4143 28.8099ZM85.2214 15.2958L81.8273 18.6866L72.0878 8.95642L75.4818 5.5656L85.2214 15.2958Z" fill="white"/>
<path d="M24.6014 24.9071C25.2538 24.2553 25.2538 23.2001 24.6014 22.5483L17.6656 15.6192C17.0132 14.9674 15.9569 14.9674 15.3045 15.6192C14.6521 16.271 14.6521 17.3263 15.3045 17.978L22.2403 24.9071C22.8927 25.5589 23.9489 25.5589 24.6014 24.9071Z" fill="white"/>
<path d="M33.5747 15.7666C33.9941 15.6217 34.3384 15.3191 34.5326 14.9208C34.7268 14.5225 34.7553 14.0647 34.6103 13.6457L31.7366 5.30699C31.5476 4.73539 31.0686 4.31121 30.4783 4.19224C29.8881 4.07326 29.2797 4.28276 28.8861 4.74056C28.4926 5.19578 28.3761 5.82687 28.5806 6.3933L31.4544 14.732C31.7521 15.6036 32.7022 16.0666 33.5747 15.7666Z" fill="white"/>
<path d="M13.3318 34.9037C14.2043 35.2037 15.1544 34.7407 15.4547 33.8691C15.755 32.9975 15.2916 32.0482 14.4191 31.7482L6.07243 28.8773C5.19995 28.5772 4.24982 29.0402 3.9495 29.9118C3.64918 30.7835 4.1126 31.7327 4.98507 32.0327L13.3318 34.9037Z" fill="white"/>
<path d="M67.0704 67.335C66.418 67.9868 66.418 69.0421 67.0704 69.6939L74.0061 76.6229C74.6585 77.2747 75.7148 77.2747 76.3672 76.6229C77.0196 75.9712 77.0196 74.9159 76.3672 74.2641L69.4315 67.335C68.7816 66.6832 67.7228 66.6832 67.0704 67.335Z" fill="white"/>
<path d="M58.0997 76.4754C57.2272 76.7754 56.7638 77.7247 57.0641 78.5963L59.9378 86.935C60.1268 87.5066 60.6058 87.9307 61.1961 88.0497C61.7863 88.1687 62.3947 87.9592 62.7882 87.5014C63.1818 87.0462 63.2983 86.4151 63.0937 85.8487L60.22 77.51C59.9197 76.6384 58.9722 76.1754 58.0997 76.4754Z" fill="white"/>
<path d="M78.3426 57.336C77.7782 57.1368 77.1465 57.2558 76.6934 57.6463C76.2404 58.0395 76.0307 58.6447 76.1472 59.2318C76.2637 59.8189 76.6857 60.3 77.2552 60.4888L85.602 63.3598C86.1689 63.5641 86.8006 63.4451 87.2563 63.0546C87.7119 62.6614 87.9217 62.0536 87.8051 61.4639C87.6861 60.8742 87.2615 60.3931 86.6893 60.2069L78.3426 57.336Z" fill="white"/>
</svg>
