<svg width="146" height="145" viewBox="0 0 146 145" fill="none" xmlns="http://www.w3.org/2000/svg">
<g filter="url(#filter0_d_1_12064)">
<path d="M48.1873 81.1027C44.1149 85.1712 44.1175 91.7641 48.1873 95.8299C52.2597 99.8958 58.8589 99.8958 62.9313 95.8299C67.0037 91.7615 67.0037 85.1686 62.9313 81.1002C58.8563 77.042 52.2597 77.042 48.1873 81.1027ZM60.5702 93.4737C57.8026 96.2386 53.316 96.236 50.5484 93.4737C47.7808 90.7088 47.7834 86.2265 50.551 83.4616C53.3186 80.6967 57.8052 80.6993 60.5702 83.4616C63.3326 86.2291 63.3326 90.7088 60.5702 93.4737Z" fill="white"/>
<path d="M81.8279 47.4943C77.7555 51.5602 77.7555 58.1556 81.8279 62.2215C85.8977 66.2899 92.4995 66.2899 96.5719 62.2241C100.644 58.1556 100.644 51.5627 96.5719 47.4943C92.4969 43.4362 85.9029 43.4362 81.8279 47.4943ZM94.2108 59.8652C91.4432 62.6301 86.9566 62.6301 84.189 59.8652C81.4215 57.1003 81.4215 52.618 84.189 49.8531C86.9566 47.0882 91.4432 47.0882 94.2108 49.8531C96.9706 52.6206 96.9706 57.0977 94.2108 59.8652Z" fill="white"/>
<path d="M102.239 29.0894L97.7266 33.5976L93.8847 29.7593C91.332 27.2091 87.1871 27.3229 84.6344 29.8731L30.5723 83.8832C29.3477 85.0859 28.659 86.7308 28.6616 88.4457C28.6642 90.1605 29.3555 91.8028 30.5826 93.003L34.4246 96.8412L29.7645 101.497C29.1121 102.149 29.0008 103.217 29.6532 103.869L41.8497 116.053C42.5021 116.705 43.5713 116.594 44.2237 115.942L48.8838 111.287L50.1472 112.549C52.3763 114.817 55.9257 115.135 58.5224 113.299L76.1375 100.853C76.4378 100.643 76.7174 100.405 76.9763 100.147C78.5245 98.6 79.195 96.386 78.7653 94.2419L76.8909 84.8945C76.4016 82.458 77.1679 79.9363 78.9258 78.1775C80.6863 76.4187 83.2079 75.6557 85.6493 76.1445L95.0083 78.0145C97.5454 78.5189 100.142 77.4843 101.639 75.3764L114.138 57.7343C115.997 55.1323 115.704 51.5708 113.449 49.305L112.186 48.0429L116.698 43.5347C117.351 42.8829 117.462 41.8147 116.81 41.1629L104.613 28.9808C103.961 28.329 102.892 28.4376 102.239 29.0894ZM42.9836 112.466L33.244 102.738L36.7857 99.2001L46.5253 108.93L42.9836 112.466ZM111.414 55.8099L98.9279 73.4391C98.1926 74.4763 96.9189 74.9858 95.671 74.7401L86.312 72.8727C82.7755 72.1666 79.12 73.2736 76.5699 75.8212C74.0198 78.3689 72.9117 82.0209 73.6185 85.554L75.4903 94.904C75.7388 96.1455 75.2314 97.418 74.1958 98.1474L56.5962 110.575C55.3251 111.47 53.5905 111.307 52.5083 110.19L32.9411 90.6415C32.3405 90.0673 31.9988 89.2733 31.9988 88.4431C31.9962 87.6128 32.3327 86.8162 32.9308 86.2394L86.9955 32.2319C88.246 30.9827 90.2731 30.8689 91.5236 32.1181L96.2561 36.8462C96.3338 36.9238 96.3908 37.0298 96.4736 37.1151C96.5564 37.1979 96.6626 37.2522 96.7403 37.3324L108.453 49.0335C108.53 49.1111 108.587 49.2171 108.67 49.2999C108.753 49.3826 108.859 49.4395 108.939 49.5171L111.091 51.6665C112.194 52.7838 112.331 54.5322 111.414 55.8099ZM113.221 42.2958L109.827 45.6866L100.088 35.9564L103.482 32.5656L113.221 42.2958Z" fill="white"/>
<path d="M52.6014 51.9071C53.2538 51.2553 53.2538 50.2001 52.6014 49.5483L45.6656 42.6192C45.0132 41.9674 43.9569 41.9674 43.3045 42.6192C42.6521 43.271 42.6521 44.3263 43.3045 44.978L50.2403 51.9071C50.8927 52.5589 51.9489 52.5589 52.6014 51.9071Z" fill="white"/>
<path d="M61.5747 42.7666C61.9941 42.6217 62.3384 42.3191 62.5326 41.9208C62.7268 41.5225 62.7553 41.0647 62.6103 40.6457L59.7366 32.307C59.5476 31.7354 59.0686 31.3112 58.4783 31.1922C57.8881 31.0733 57.2797 31.2828 56.8861 31.7406C56.4926 32.1958 56.3761 32.8269 56.5806 33.3933L59.4544 41.732C59.7521 42.6036 60.7022 43.0666 61.5747 42.7666Z" fill="white"/>
<path d="M41.3318 61.9037C42.2043 62.2037 43.1544 61.7407 43.4547 60.8691C43.755 59.9975 43.2916 59.0482 42.4191 58.7482L34.0724 55.8773C33.2 55.5772 32.2498 56.0402 31.9495 56.9118C31.6492 57.7835 32.1126 58.7327 32.9851 59.0327L41.3318 61.9037Z" fill="white"/>
<path d="M95.0704 94.335C94.418 94.9868 94.418 96.0421 95.0704 96.6939L102.006 103.623C102.659 104.275 103.715 104.275 104.367 103.623C105.02 102.971 105.02 101.916 104.367 101.264L97.4315 94.335C96.7816 93.6832 95.7228 93.6832 95.0704 94.335Z" fill="white"/>
<path d="M86.0997 103.475C85.2272 103.775 84.7638 104.725 85.0641 105.596L87.9378 113.935C88.1268 114.507 88.6058 114.931 89.1961 115.05C89.7863 115.169 90.3947 114.959 90.7882 114.501C91.1818 114.046 91.2983 113.415 91.0937 112.849L88.22 104.51C87.9197 103.638 86.9722 103.175 86.0997 103.475Z" fill="white"/>
<path d="M106.343 84.336C105.778 84.1368 105.146 84.2558 104.693 84.6463C104.24 85.0395 104.031 85.6447 104.147 86.2318C104.264 86.8189 104.686 87.3 105.255 87.4888L113.602 90.3598C114.169 90.5641 114.801 90.4451 115.256 90.0546C115.712 89.6614 115.922 89.0536 115.805 88.4639C115.686 87.8742 115.261 87.3931 114.689 87.2069L106.343 84.336Z" fill="white"/>
</g>
<defs>
<filter id="filter0_d_1_12064" x="-5.8577" y="-6.61563" width="157.624" height="157.624" filterUnits="userSpaceOnUse" color-interpolation-filters="sRGB">
<feFlood flood-opacity="0" result="BackgroundImageFix"/>
<feColorMatrix in="SourceAlpha" type="matrix" values="0 0 0 0 0 0 0 0 0 0 0 0 0 0 0 0 0 0 127 0" result="hardAlpha"/>
<feOffset/>
<feGaussianBlur stdDeviation="3.30782"/>
<feComposite in2="hardAlpha" operator="out"/>
<feColorMatrix type="matrix" values="0 0 0 0 0 0 0 0 0 0.917647 0 0 0 0 0.815686 0 0 0 1 0"/>
<feBlend mode="normal" in2="BackgroundImageFix" result="effect1_dropShadow_1_12064"/>
<feBlend mode="normal" in="SourceGraphic" in2="effect1_dropShadow_1_12064" result="shape"/>
</filter>
</defs>
</svg>
