<svg width="59" height="59" viewBox="0 0 59 59" fill="none" xmlns="http://www.w3.org/2000/svg">
<mask id="path-1-inside-1_64_33202" fill="white">
<path fill-rule="evenodd" clip-rule="evenodd" d="M58.7092 13.5808L46.1103 0.981812L27.3652 19.7268L37.6908 30.0524L27.5819 40.1613L46.1104 58.6898L58.7094 46.0908L42.4543 29.8358L58.7092 13.5808Z"/>
</mask>
<path d="M46.1103 0.981812L47.3478 -0.255761L46.1103 -1.49333L44.8727 -0.255761L46.1103 0.981812ZM58.7092 13.5808L59.9468 14.8184L61.1844 13.5808L59.9468 12.3432L58.7092 13.5808ZM27.3652 19.7268L26.1277 18.4893L24.8901 19.7268L26.1277 20.9644L27.3652 19.7268ZM37.6908 30.0524L38.9283 31.2899L40.1659 30.0524L38.9283 28.8148L37.6908 30.0524ZM27.5819 40.1613L26.3443 38.9237L25.1067 40.1613L26.3443 41.3989L27.5819 40.1613ZM46.1104 58.6898L44.8728 59.9274L46.1104 61.165L47.348 59.9274L46.1104 58.6898ZM58.7094 46.0908L59.9469 47.3284L61.1845 46.0908L59.9469 44.8533L58.7094 46.0908ZM42.4543 29.8358L41.2167 28.5982L39.9791 29.8358L41.2167 31.0733L42.4543 29.8358ZM44.8727 2.21938L57.4717 14.8184L59.9468 12.3432L47.3478 -0.255761L44.8727 2.21938ZM28.6028 20.9644L47.3478 2.21938L44.8727 -0.255761L26.1277 18.4893L28.6028 20.9644ZM38.9283 28.8148L28.6028 18.4893L26.1277 20.9644L36.4532 31.2899L38.9283 28.8148ZM28.8194 41.3989L38.9283 31.2899L36.4532 28.8148L26.3443 38.9237L28.8194 41.3989ZM47.348 57.4522L28.8194 38.9237L26.3443 41.3989L44.8728 59.9274L47.348 57.4522ZM57.4718 44.8533L44.8728 57.4522L47.348 59.9274L59.9469 47.3284L57.4718 44.8533ZM41.2167 31.0733L57.4718 47.3284L59.9469 44.8533L43.6919 28.5982L41.2167 31.0733ZM57.4717 12.3432L41.2167 28.5982L43.6919 31.0733L59.9468 14.8184L57.4717 12.3432Z" fill="white" mask="url(#path-1-inside-1_64_33202)"/>
<path fill-rule="evenodd" clip-rule="evenodd" d="M1.00024 13.5808L13.5992 0.981812L42.3962 29.7788L42.3961 29.779L42.4526 29.8356L13.599 58.6893L1 46.0903L17.2549 29.8354L1.00024 13.5808Z" fill="white"/>
</svg>
